<svg width="24" height="24" viewBox="0 0 24 24" fill="none" xmlns="http://www.w3.org/2000/svg">
<g clip-path="url(#clip0_1716_8390)">
<path d="M12 24C14.3734 24 16.6935 23.2962 18.6668 21.9776C20.6402 20.6591 22.1783 18.7849 23.0866 16.5922C23.9948 14.3995 24.2324 11.9867 23.7694 9.65892C23.3064 7.33115 22.1635 5.19295 20.4853 3.51472C18.8071 1.83649 16.6689 0.693605 14.3411 0.230582C12.0133 -0.232441 9.60051 0.00519937 7.4078 0.913451C5.21509 1.8217 3.34094 3.35977 2.02237 5.33316C0.703789 7.30655 0 9.62663 0 12C0.00344108 15.1815 1.26883 18.2318 3.51852 20.4815C5.76821 22.7312 8.81846 23.9966 12 24ZM12 2C13.9778 2 15.9112 2.5865 17.5557 3.68531C19.2002 4.78412 20.4819 6.34591 21.2388 8.17317C21.9957 10.0004 22.1937 12.0111 21.8079 13.9509C21.422 15.8907 20.4696 17.6726 19.0711 19.0711C17.6725 20.4696 15.8907 21.422 13.9509 21.8079C12.0111 22.1937 10.0004 21.9957 8.17317 21.2388C6.3459 20.4819 4.78412 19.2002 3.6853 17.5557C2.58649 15.9112 2 13.9778 2 12C2.00291 9.34873 3.05742 6.80689 4.93215 4.93215C6.80688 3.05742 9.34873 2.00292 12 2Z" fill="#2C4DA8"/>
<path fill-rule="evenodd" clip-rule="evenodd" d="M12 2C13.9778 2 15.9112 2.5865 17.5557 3.68531C19.2002 4.78412 20.4819 6.34591 21.2388 8.17317C21.9957 10.0004 22.1937 12.0111 21.8079 13.9509C21.422 15.8907 20.4696 17.6726 19.0711 19.0711C17.6725 20.4696 15.8907 21.422 13.9509 21.8079C12.0111 22.1937 10.0004 21.9957 8.17317 21.2388C6.3459 20.4819 4.78412 19.2002 3.6853 17.5557C2.58649 15.9112 2 13.9778 2 12C2.00291 9.34873 3.05742 6.80689 4.93215 4.93215C6.80688 3.05742 9.34873 2.00292 12 2ZM12.7071 18.7071C12.5196 18.8946 12.2652 19 12 19C11.7348 19 11.4804 18.8946 11.2929 18.7071C11.1054 18.5196 11 18.2652 11 18V10C11 9.73479 11.1054 9.48044 11.2929 9.2929C11.4804 9.10536 11.7348 9.00001 12 9.00001C12.2652 9.00001 12.5196 9.10536 12.7071 9.2929C12.8946 9.48044 13 9.73479 13 10V18C13 18.2652 12.8946 18.5196 12.7071 18.7071ZM11 6.00001C11 6.55229 11.4477 7.00001 12 7.00001C12.5523 7.00001 13 6.55229 13 6.00001C13 5.44772 12.5523 5.00001 12 5.00001C11.4477 5.00001 11 5.44772 11 6.00001Z" fill="#2C4DA8"/>
<path d="M12 19C12.2652 19 12.5196 18.8946 12.7071 18.7071C12.8946 18.5196 13 18.2652 13 18V10C13 9.73479 12.8946 9.48044 12.7071 9.2929C12.5196 9.10536 12.2652 9.00001 12 9.00001C11.7348 9.00001 11.4804 9.10536 11.2929 9.2929C11.1054 9.48044 11 9.73479 11 10V18C11 18.2652 11.1054 18.5196 11.2929 18.7071C11.4804 18.8946 11.7348 19 12 19Z" fill="#E6E6E6"/>
<path d="M12 7.00001C11.4477 7.00001 11 6.55229 11 6.00001C11 5.44772 11.4477 5.00001 12 5.00001C12.5523 5.00001 13 5.44772 13 6.00001C13 6.55229 12.5523 7.00001 12 7.00001Z" fill="#E6E6E6"/>
</g>
<defs>
<clipPath id="clip0_1716_8390">
<rect width="24" height="24" fill="white" transform="matrix(-1 0 0 -1 24 24)"/>
</clipPath>
</defs>
</svg>
