<svg width="24" height="24" viewBox="0 0 24 24" fill="none" xmlns="http://www.w3.org/2000/svg">
<path fill-rule="evenodd" clip-rule="evenodd" d="M23.58 19.88C22.88 21.23 21.41 22 19.57 22H4.44003C2.59003 22 1.13003 21.23 0.430026 19.88C-0.279974 18.52 -0.0799737 16.78 0.930026 15.32L8.97003 2.6C9.68003 1.58 10.8 1 12 1C13.2 1 14.32 1.58 15 2.57L23.08 15.34C24.09 16.8 24.28 18.53 23.57 19.88H23.58ZM21.43 16.46C21.43 16.46 21.41 16.44 21.41 16.42L13.34 3.67C13.05 3.26 12.55 3 12 3C11.45 3 10.95 3.26 10.64 3.71L2.59003 16.42C1.97003 17.3 1.83003 18.26 2.19003 18.95C2.54003 19.63 3.34003 20 4.43003 20H19.55C20.64 20 21.44 19.63 21.79 18.95C22.15 18.26 22.01 17.3 21.42 16.46H21.43Z" fill="#B27A2B"/>
<path fill-rule="evenodd" clip-rule="evenodd" d="M21.43 16.46C21.43 16.46 21.41 16.44 21.41 16.42L13.34 3.67C13.05 3.26 12.55 3 12 3C11.45 3 10.95 3.26 10.64 3.71L2.59003 16.42C1.97003 17.3 1.83003 18.26 2.19003 18.95C2.54003 19.63 3.34003 20 4.43003 20H19.55C20.64 20 21.44 19.63 21.79 18.95C22.15 18.26 22.01 17.3 21.42 16.46H21.43ZM11 7V13C11 13.55 11.45 14 12 14C12.55 14 13 13.55 13 13V7C13 6.45 12.55 6 12 6C11.45 6 11 6.45 11 7ZM10.5 16.5C10.5 15.67 11.17 15 12 15C12.83 15 13.5 15.67 13.5 16.5C13.5 17.33 12.83 18 12 18C11.17 18 10.5 17.33 10.5 16.5Z" fill="#B27A2B"/>
<path d="M12 15C11.17 15 10.5 15.67 10.5 16.5C10.5 17.33 11.17 18 12 18C12.83 18 13.5 17.33 13.5 16.5C13.5 15.67 12.83 15 12 15Z" fill="#E6E6E6"/>
<path d="M11 13V7C11 6.45 11.45 6 12 6C12.55 6 13 6.45 13 7V13C13 13.55 12.55 14 12 14C11.45 14 11 13.55 11 13Z" fill="#E6E6E6"/>
</svg>
