<svg width="24" height="24" viewBox="0 0 24 24" fill="none" xmlns="http://www.w3.org/2000/svg">
<path d="M18 11.0044H8L11.29 7.71203C11.3837 7.619 11.4581 7.50832 11.5089 7.38637C11.5597 7.26442 11.5858 7.13362 11.5858 7.00151C11.5858 6.86941 11.5597 6.73861 11.5089 6.61666C11.4581 6.49471 11.3837 6.38403 11.29 6.291C11.1026 6.10462 10.8492 6 10.585 6C10.3208 6 10.0674 6.10462 9.88 6.291L5.59 10.5941C5.21441 10.9677 5.00223 11.4752 5 12.0051C5.00487 12.5316 5.21684 13.035 5.59 13.4061L9.88 17.7092C9.97324 17.8019 10.0838 17.8752 10.2054 17.9251C10.3269 17.975 10.4571 18.0005 10.5885 18C10.7199 17.9995 10.8499 17.9732 10.9712 17.9224C11.0924 17.8717 11.2024 17.7975 11.295 17.7042C11.3876 17.6109 11.4609 17.5003 11.5107 17.3786C11.5606 17.257 11.586 17.1267 11.5856 16.9952C11.5851 16.8637 11.5588 16.7336 11.508 16.6123C11.4573 16.491 11.3832 16.3809 11.29 16.2882L8 13.0058H18C18.2652 13.0058 18.5196 12.9004 18.7071 12.7127C18.8946 12.5251 19 12.2705 19 12.0051C19 11.7397 18.8946 11.4852 18.7071 11.2975C18.5196 11.1098 18.2652 11.0044 18 11.0044Z" fill="#F2F2F2"/>
</svg>
