<svg width="24" height="24" viewBox="0 0 24 24" fill="none" xmlns="http://www.w3.org/2000/svg">
<g clip-path="url(#clip0_1462_10472)">
<path d="M12 17C9.24 17 7 14.76 7 12C7 9.24 9.24 7 12 7C14.76 7 17 9.24 17 12C17 14.76 14.76 17 12 17ZM12 9C10.35 9 9 10.35 9 12C9 13.65 10.35 15 12 15C13.65 15 15 13.65 15 12C15 10.35 13.65 9 12 9ZM13 4V1C13 0.45 12.55 0 12 0C11.45 0 11 0.45 11 1V4C11 4.55 11.45 5 12 5C12.55 5 13 4.55 13 4ZM13 23V20C13 19.45 12.55 19 12 19C11.45 19 11 19.45 11 20V23C11 23.55 11.45 24 12 24C12.55 24 13 23.55 13 23ZM5 12C5 11.45 4.55 11 4 11H1C0.45 11 0 11.45 0 12C0 12.55 0.45 13 1 13H4C4.55 13 5 12.55 5 12ZM24 12C24 11.45 23.55 11 23 11H20C19.45 11 19 11.45 19 12C19 12.55 19.45 13 20 13H23C23.55 13 24 12.55 24 12ZM6.71 6.71C6.8027 6.61749 6.87625 6.5076 6.92643 6.38662C6.97661 6.26565 7.00244 6.13597 7.00244 6.005C7.00244 5.87403 6.97661 5.74435 6.92643 5.62338C6.87625 5.5024 6.8027 5.39251 6.71 5.3L4.71 3.3C4.61742 3.20742 4.50751 3.13398 4.38654 3.08387C4.26558 3.03377 4.13593 3.00798 4.005 3.00798C3.87407 3.00798 3.74442 3.03377 3.62346 3.08387C3.50249 3.13398 3.39258 3.20742 3.3 3.3C3.20742 3.39258 3.13398 3.50249 3.08387 3.62346C3.03377 3.74442 3.00798 3.87407 3.00798 4.005C3.00798 4.13593 3.03377 4.26558 3.08387 4.38654C3.13398 4.50751 3.20742 4.61742 3.3 4.71L5.3 6.71C5.5 6.91 5.75 7 6.01 7C6.27 7 6.52 6.9 6.72 6.71H6.71ZM20.71 20.71C20.8027 20.6175 20.8762 20.5076 20.9264 20.3866C20.9766 20.2656 21.0024 20.136 21.0024 20.005C21.0024 19.874 20.9766 19.7443 20.9264 19.6234C20.8762 19.5024 20.8027 19.3925 20.71 19.3L18.71 17.3C18.6174 17.2074 18.5075 17.134 18.3865 17.0839C18.2656 17.0338 18.1359 17.008 18.005 17.008C17.8741 17.008 17.7444 17.0338 17.6235 17.0839C17.5025 17.134 17.3926 17.2074 17.3 17.3C17.2074 17.3926 17.134 17.5025 17.0839 17.6235C17.0338 17.7444 17.008 17.8741 17.008 18.005C17.008 18.1359 17.0338 18.2656 17.0839 18.3865C17.134 18.5075 17.2074 18.6174 17.3 18.71L19.3 20.71C19.5 20.91 19.75 21 20.01 21C20.27 21 20.52 20.9 20.72 20.71H20.71ZM4.71 20.71L6.71 18.71C6.89698 18.523 7.00202 18.2694 7.00202 18.005C7.00202 17.7406 6.89698 17.487 6.71 17.3C6.52302 17.113 6.26943 17.008 6.005 17.008C5.74057 17.008 5.48698 17.113 5.3 17.3L3.3 19.3C3.16045 19.4397 3.06556 19.6176 3.02736 19.8113C2.98916 20.005 3.00939 20.2057 3.08548 20.3879C3.16156 20.57 3.29007 20.7255 3.45468 20.8345C3.61929 20.9435 3.81258 21.0011 4.01 21C4.27 21 4.52 20.9 4.72 20.71H4.71ZM18.71 6.71L20.71 4.71C20.8026 4.61742 20.876 4.50751 20.9261 4.38654C20.9762 4.26558 21.002 4.13593 21.002 4.005C21.002 3.87407 20.9762 3.74442 20.9261 3.62346C20.876 3.50249 20.8026 3.39258 20.71 3.3C20.6174 3.20742 20.5075 3.13398 20.3865 3.08387C20.2656 3.03377 20.1359 3.00798 20.005 3.00798C19.8741 3.00798 19.7444 3.03377 19.6235 3.08387C19.5025 3.13398 19.3926 3.20742 19.3 3.3L17.3 5.3C17.1605 5.43965 17.0656 5.61762 17.0274 5.81132C16.9892 6.00501 17.0094 6.20569 17.0855 6.38786C17.1616 6.57003 17.2901 6.72549 17.4547 6.83448C17.6193 6.94347 17.8126 7.00108 18.01 7C18.27 7 18.52 6.9 18.72 6.71H18.71Z" fill="#1A1A1A"/>
</g>
<defs>
<clipPath id="clip0_1462_10472">
<rect width="24" height="24" fill="white"/>
</clipPath>
</defs>
</svg>
