<svg width="24" height="24" viewBox="0 0 24 24" fill="none" xmlns="http://www.w3.org/2000/svg">
<g clip-path="url(#clip0_1780_8430)">
<path d="M14.707 19.707L13.414 21L14.707 22.293C14.7998 22.3858 14.8735 22.4961 14.9237 22.6174C14.974 22.7387 14.9998 22.8687 14.9998 23C14.9998 23.1313 14.974 23.2613 14.9237 23.3826C14.8735 23.5039 14.7998 23.6142 14.707 23.707C14.6141 23.7998 14.5039 23.8735 14.3826 23.9237C14.2613 23.974 14.1313 23.9998 14 23.9998C13.8687 23.9998 13.7387 23.974 13.6173 23.9237C13.496 23.8735 13.3858 23.7998 13.293 23.707L12 22.414L10.707 23.707C10.6143 23.8002 10.5042 23.8741 10.3828 23.9246C10.2615 23.9751 10.1314 24.001 9.99997 24.001C9.86856 24.001 9.73845 23.9751 9.61712 23.9246C9.49579 23.8741 9.38562 23.8002 9.29297 23.707C9.20003 23.6142 9.12629 23.504 9.07598 23.3827C9.02567 23.2614 8.99977 23.1313 8.99977 23C8.99977 22.8687 9.02567 22.7386 9.07598 22.6173C9.12629 22.496 9.20003 22.3858 9.29297 22.293L10.586 21L9.29297 19.707C9.20013 19.6142 9.12648 19.5039 9.07623 19.3826C9.02598 19.2613 9.00012 19.1313 9.00012 19C9.00012 18.8687 9.02598 18.7387 9.07623 18.6174C9.12648 18.4961 9.20013 18.3858 9.29297 18.293C9.48048 18.1055 9.73479 18.0002 9.99997 18.0002C10.1313 18.0002 10.2613 18.026 10.3826 18.0763C10.5039 18.1265 10.6141 18.2002 10.707 18.293L12 19.586L13.293 18.293C13.3858 18.2002 13.496 18.1265 13.6173 18.0763C13.7387 18.026 13.8687 18.0002 14 18.0002C14.1313 18.0002 14.2613 18.026 14.3826 18.0763C14.5039 18.1265 14.6141 18.2002 14.707 18.293C14.7998 18.3858 14.8735 18.4961 14.9237 18.6174C14.974 18.7387 14.9998 18.8687 14.9998 19C14.9998 19.1313 14.974 19.2613 14.9237 19.3826C14.8735 19.5039 14.7998 19.6142 14.707 19.707ZM21.414 21L22.707 19.707C22.8945 19.5195 22.9998 19.2652 22.9998 19C22.9998 18.7348 22.8945 18.4805 22.707 18.293C22.5195 18.1055 22.2651 18.0002 22 18.0002C21.7348 18.0002 21.4805 18.1055 21.293 18.293L20 19.586L18.707 18.293C18.5195 18.1055 18.2651 18.0002 18 18.0002C17.7348 18.0002 17.4805 18.1055 17.293 18.293C17.1055 18.4805 17.0001 18.7348 17.0001 19C17.0001 19.2652 17.1055 19.5195 17.293 19.707L18.586 21L17.293 22.293C17.1055 22.4805 17.0001 22.7348 17.0001 23C17.0001 23.2652 17.1055 23.5195 17.293 23.707C17.4805 23.8945 17.7348 23.9998 18 23.9998C18.2651 23.9998 18.5195 23.8945 18.707 23.707L20 22.414L21.293 23.707C21.3856 23.8002 21.4958 23.8741 21.6171 23.9246C21.7385 23.9751 21.8686 24.001 22 24.001C22.1314 24.001 22.2615 23.9751 22.3828 23.9246C22.5042 23.8741 22.6143 23.8002 22.707 23.707C22.7999 23.6142 22.8737 23.504 22.924 23.3827C22.9743 23.2614 23.0002 23.1313 23.0002 23C23.0002 22.8687 22.9743 22.7386 22.924 22.6173C22.8737 22.496 22.7999 22.3858 22.707 22.293L21.414 21ZM6.70697 18.293C6.61418 18.2001 6.50398 18.1263 6.38266 18.076C6.26135 18.0257 6.1313 17.9998 5.99997 17.9998C5.86864 17.9998 5.73859 18.0257 5.61728 18.076C5.49596 18.1263 5.38576 18.2001 5.29297 18.293L3.99997 19.586L2.70697 18.293C2.51946 18.1055 2.26515 18.0002 1.99997 18.0002C1.73479 18.0002 1.48048 18.1055 1.29297 18.293C1.10546 18.4805 1.00012 18.7348 1.00012 19C1.00012 19.2652 1.10546 19.5195 1.29297 19.707L2.58597 21L1.29297 22.293C1.10546 22.4805 1.00012 22.7348 1.00012 23C1.00012 23.2652 1.10546 23.5195 1.29297 23.707C1.48048 23.8945 1.73479 23.9998 1.99997 23.9998C2.26515 23.9998 2.51946 23.8945 2.70697 23.707L3.99997 22.414L5.29297 23.707C5.38562 23.8002 5.49578 23.8741 5.61712 23.9246C5.73845 23.9751 5.86856 24.001 5.99997 24.001C6.13138 24.001 6.26149 23.9751 6.38282 23.9246C6.50416 23.8741 6.61432 23.8002 6.70697 23.707C6.79992 23.6142 6.87365 23.504 6.92396 23.3827C6.97428 23.2614 7.00017 23.1313 7.00017 23C7.00017 22.8687 6.97428 22.7386 6.92396 22.6173C6.87365 22.496 6.79992 22.3858 6.70697 22.293L5.41397 21L6.70697 19.707C6.79992 19.6142 6.87365 19.504 6.92396 19.3827C6.97428 19.2614 7.00017 19.1313 7.00017 19C7.00017 18.8687 6.97428 18.7386 6.92396 18.6173C6.87365 18.496 6.79992 18.3858 6.70697 18.293ZM18 11C18 13.206 16.206 15 14 15H9.99997C7.79397 15 5.99997 13.206 5.99997 11V9C5.99997 7.526 6.80997 6.25 7.99997 5.556V4C7.99997 1.794 9.79397 0 12 0C14.206 0 16 1.794 16 4V5.556C17.19 6.25 18 7.526 18 9V11ZM9.99997 5H14V4C14 2.897 13.103 2 12 2C10.897 2 9.99997 2.897 9.99997 4V5ZM16 9C16 7.897 15.103 7 14 7H9.99997C8.89697 7 7.99997 7.897 7.99997 9V11C7.99997 12.103 8.89697 13 9.99997 13H14C15.103 13 16 12.103 16 11V9ZM12 8.5C11.602 8.50013 11.2204 8.65835 10.9391 8.93984C10.6578 9.22133 10.4998 9.60304 10.5 10.001C10.5001 10.399 10.6583 10.7806 10.9398 11.0619C11.2213 11.3432 11.603 11.5011 12.001 11.501C12.3989 11.5009 12.7805 11.3427 13.0618 11.0612C13.3431 10.7797 13.5011 10.398 13.501 10C13.5008 9.60204 13.3426 9.22044 13.0611 8.93913C12.7796 8.65783 12.3979 8.49987 12 8.5Z" fill="#333333"/>
</g>
<defs>
<clipPath id="clip0_1780_8430">
<rect width="24" height="24" fill="white"/>
</clipPath>
</defs>
</svg>
