<svg width="24" height="24" viewBox="0 0 24 24" fill="none" xmlns="http://www.w3.org/2000/svg">
<g clip-path="url(#clip0_1930_3265)">
<path d="M5 14C5.26522 14 5.51957 14.1054 5.70711 14.2929C5.89464 14.4804 6 14.7348 6 15V17C6 17.2652 5.89464 17.5196 5.70711 17.7071C5.51957 17.8946 5.26522 18 5 18C4.73478 18 4.48043 17.8946 4.29289 17.7071C4.10536 17.5196 4 17.2652 4 17V15C4 14.7348 4.10536 14.4804 4.29289 14.2929C4.48043 14.1054 4.73478 14 5 14ZM8 12V17C8 17.2652 8.10536 17.5196 8.29289 17.7071C8.48043 17.8946 8.73478 18 9 18C9.26522 18 9.51957 17.8946 9.70711 17.7071C9.89464 17.5196 10 17.2652 10 17V12C10 11.7348 9.89464 11.4804 9.70711 11.2929C9.51957 11.1054 9.26522 11 9 11C8.73478 11 8.48043 11.1054 8.29289 11.2929C8.10536 11.4804 8 11.7348 8 12ZM24 5V11C24 11.2652 23.8946 11.5196 23.7071 11.7071C23.5196 11.8946 23.2652 12 23 12C22.7348 12 22.4804 11.8946 22.2929 11.7071C22.1054 11.5196 22 11.2652 22 11V9H2V17C2 18.654 3.346 20 5 20H10C10.2652 20 10.5196 20.1054 10.7071 20.2929C10.8946 20.4804 11 20.7348 11 21C11 21.2652 10.8946 21.5196 10.7071 21.7071C10.5196 21.8946 10.2652 22 10 22H5C2.243 22 0 19.757 0 17V5C0 2.243 2.243 0 5 0H19C21.757 0 24 2.243 24 5ZM22 7V5C22 3.346 20.654 2 19 2H5C3.346 2 2 3.346 2 5V7H22ZM23.707 22.293C23.8945 22.4805 23.9998 22.7348 23.9998 23C23.9998 23.2652 23.8945 23.5195 23.707 23.707C23.5195 23.8945 23.2652 23.9998 23 23.9998C22.7348 23.9998 22.4805 23.8945 22.293 23.707L19.753 21.167C18.9375 21.71 17.9797 21.9998 17 22C14.243 22 12 19.757 12 17C12 14.243 14.243 12 17 12C19.757 12 22 14.243 22 17C21.9998 17.9797 21.71 18.9375 21.167 19.753L23.707 22.293ZM17 20C18.654 20 20 18.654 20 17C20 15.346 18.654 14 17 14C15.346 14 14 15.346 14 17C14 18.654 15.346 20 17 20Z" fill="#C43A3A"/>
</g>
<defs>
<clipPath id="clip0_1930_3265">
<rect width="24" height="24" fill="white"/>
</clipPath>
</defs>
</svg>
