<svg width="24" height="24" viewBox="0 0 24 24" fill="none" xmlns="http://www.w3.org/2000/svg">
<g clip-path="url(#clip0_1930_3276)">
<path d="M7.70699 9.25606C7.79984 9.3489 7.87349 9.45913 7.92373 9.58043C7.97398 9.70174 7.99984 9.83176 7.99984 9.96306C7.99984 10.0944 7.97398 10.2244 7.92373 10.3457C7.87349 10.467 7.79984 10.5772 7.70699 10.6701C7.61415 10.7629 7.50393 10.8366 7.38262 10.8868C7.26131 10.937 7.1313 10.9629 6.99999 10.9629C6.86869 10.9629 6.73868 10.937 6.61737 10.8868C6.49606 10.8366 6.38584 10.7629 6.29299 10.6701C6.10549 10.4826 6.00015 10.2282 6.00015 9.96306C6.00015 9.69788 6.10549 9.44357 6.29299 9.25606C6.4805 9.06855 6.73482 8.96321 6.99999 8.96321C7.26517 8.96321 7.51949 9.06855 7.70699 9.25606ZM21.559 15.3411L20.994 15.9061C20.9688 17.1811 20.4551 18.3977 19.559 19.3051L16.392 22.5131C15.9298 22.9839 15.3785 23.3579 14.7702 23.6132C14.1618 23.8685 13.5087 24 12.849 24.0001H12.832C11.497 24.0001 10.242 23.4801 9.298 22.5361L1.88199 15.1831C1.56237 14.8658 1.31863 14.4803 1.16901 14.0555C1.01939 13.6307 0.967766 13.1776 1.01799 12.7301L1.78299 5.81406C1.80744 5.59262 1.90513 5.38568 2.06056 5.22608C2.216 5.06648 2.42028 4.96335 2.64099 4.93306L9.52999 3.99106C9.98841 3.92972 10.4548 3.97456 10.8931 4.12211C11.3314 4.26967 11.73 4.51599 12.058 4.84206L19.533 12.2541C19.92 12.6411 20.23 13.0771 20.464 13.5421C20.864 12.9636 21.0488 12.2633 20.9864 11.5627C20.9239 10.8622 20.6181 10.2056 20.122 9.70706L12.531 2.30206C12.4214 2.19087 12.2875 2.10663 12.1398 2.05596C11.9922 2.00529 11.8348 1.98958 11.68 2.01006L4.79099 2.95206C4.5282 2.98793 4.2619 2.91804 4.0506 2.75773C3.83929 2.59743 3.70024 2.35981 3.664 2.09706C3.62841 1.83442 3.69843 1.56839 3.85871 1.3573C4.01899 1.14622 4.25645 1.00732 4.519 0.97106L11.409 0.0280595C11.8675 -0.0345398 12.3343 0.0097975 12.7729 0.157603C13.2115 0.305409 13.6099 0.552675 13.937 0.880059L21.526 8.28506C23.472 10.2301 23.483 13.3921 21.558 15.3421L21.559 15.3411ZM18.121 13.6711L10.646 6.25906C10.5361 6.14978 10.4026 6.0671 10.2558 6.01735C10.109 5.96761 9.95272 5.95212 9.799 5.97206L3.684 6.80906L3.005 12.9491C2.98826 13.0979 3.00538 13.2486 3.05508 13.3899C3.10478 13.5312 3.18577 13.6595 3.292 13.7651L10.708 21.1181C11.277 21.6881 12.03 21.9991 12.831 21.9991H12.841C13.237 21.9994 13.629 21.9205 13.9941 21.7672C14.3592 21.6138 14.69 21.389 14.967 21.1061L18.134 17.8981C18.6891 17.3334 18.9991 16.5725 18.9964 15.7807C18.9938 14.9888 18.6789 14.23 18.12 13.6691L18.121 13.6711Z" fill="#CC3333"/>
</g>
<defs>
<clipPath id="clip0_1930_3276">
<rect width="24" height="24" fill="white"/>
</clipPath>
</defs>
</svg>
