<svg width="24" height="24" viewBox="0 0 24 24" fill="none" xmlns="http://www.w3.org/2000/svg">
<g clip-path="url(#clip0_1462_10487)">
<path d="M18.1669 22.1527C16.719 22.6784 15.177 22.8948 13.6403 22.7877C12.1037 22.6807 10.6065 22.2526 9.24552 21.5312C7.87674 20.8112 6.67672 19.8083 5.72509 18.5891C4.77346 17.3699 4.09197 15.9623 3.72584 14.4597C3.16497 12.1179 3.38003 9.6573 4.33864 7.44833C5.29725 5.23935 6.94752 3.40157 9.04099 2.21167C10.4022 1.46397 11.8958 0.98824 13.4387 0.811007C13.8451 0.771223 14.2548 0.840761 14.6253 1.01243C14.9958 1.18409 15.3137 1.45165 15.5461 1.78741C15.7786 2.12317 15.917 2.51494 15.9472 2.92217C15.9774 3.32941 15.8983 3.73732 15.7179 4.10369C13.0963 9.12164 15.4682 14.5773 20.9306 16.2627C21.3199 16.3901 21.6678 16.6195 21.9383 16.9271C22.2088 17.2346 22.392 17.609 22.4687 18.0113C22.5454 18.4136 22.5129 18.8291 22.3745 19.2146C22.2362 19.6001 21.9971 19.9414 21.682 20.2032C20.6209 21.035 19.4344 21.693 18.1669 22.1527ZM11.3353 3.17925C10.8513 3.35411 10.3816 3.56646 9.93062 3.81439C8.18749 4.8046 6.81317 6.33424 6.01453 8.17305C5.21589 10.0119 5.03616 12.0603 5.50239 14.0101C5.80694 15.2649 6.37508 16.4406 7.16903 17.4589C7.96299 18.4772 8.96459 19.3149 10.1073 19.9163C11.7653 20.7562 13.6314 21.0968 15.4792 20.897C17.327 20.6971 19.0771 19.9653 20.5172 18.7904C20.5786 18.7379 20.625 18.67 20.6518 18.5938C20.6785 18.5176 20.6846 18.4356 20.6695 18.3563C20.6544 18.2769 20.6186 18.203 20.5657 18.1419C20.5128 18.0808 20.4446 18.0349 20.3682 18.0086C13.8574 16.0103 10.9412 9.26026 14.0813 3.27618C14.117 3.20653 14.1326 3.12831 14.1262 3.05032C14.1199 2.97232 14.0919 2.89764 14.0455 2.83466C14.0004 2.76631 13.9374 2.71161 13.8634 2.67647C13.7894 2.64134 13.7072 2.62711 13.6257 2.63532C12.8431 2.72364 12.074 2.90627 11.3353 3.17925Z" fill="#E6E6E6"/>
</g>
<defs>
<clipPath id="clip0_1462_10487">
<rect width="24" height="24" fill="white"/>
</clipPath>
</defs>
</svg>
