<svg width="24" height="24" viewBox="0 0 24 24" fill="none" xmlns="http://www.w3.org/2000/svg">
<g clip-path="url(#clip0_1979_8557)">
<path d="M18.66 20.9C18.5621 20.8121 18.4477 20.7446 18.3234 20.7014C18.1991 20.6583 18.0674 20.6404 17.9361 20.6488C17.8048 20.6572 17.6765 20.6917 17.5587 20.7503C17.4408 20.8088 17.3359 20.8904 17.25 20.99C16.68 21.64 15.86 22.01 15 22.01H5C3.35 22.01 2 20.66 2 19.01V5.00002C2 3.35002 3.35 2.00002 5 2.00002H9.51C9.67 2.00002 9.84 2.00002 10 2.02002V7.00002C10 8.65002 11.35 10 13 10H18.81C19.12 10 19.41 9.86002 19.6 9.61002C19.79 9.36002 19.85 9.05002 19.78 8.75002C19.4712 7.53143 18.8389 6.41889 17.95 5.53002L14.47 2.05002C13.8213 1.39825 13.0498 0.8815 12.2002 0.529635C11.3505 0.177769 10.4396 -0.00223569 9.52 2.09578e-05H5C2.24 2.09578e-05 0 2.24002 0 5.00002V19C0 21.76 2.24 24 5 24H15C16.43 24 17.8 23.38 18.75 22.31C18.8379 22.2121 18.9054 22.0977 18.9486 21.9734C18.9917 21.8491 19.0096 21.7174 19.0012 21.5861C18.9929 21.4548 18.9584 21.3265 18.8998 21.2087C18.8412 21.0909 18.7597 20.9859 18.66 20.9ZM12 2.66002C12.38 2.88002 12.73 3.15002 13.05 3.47002L16.53 6.95002C16.84 7.26002 17.11 7.62002 17.33 8.00002H12.99C12.44 8.00002 11.99 7.55002 11.99 7.00002V2.66002H12ZM23.13 18.09L21.52 19.7C21.32 19.9 21.07 19.99 20.81 19.99C20.55 19.99 20.3 19.89 20.1 19.7C20.0073 19.6075 19.9337 19.4976 19.8836 19.3766C19.8334 19.2557 19.8076 19.126 19.8076 18.995C19.8076 18.8641 19.8334 18.7344 19.8836 18.6134C19.9337 18.4924 20.0073 18.3825 20.1 18.29L21.39 17H13.99C13.44 17 12.99 16.55 12.99 16C12.99 15.45 13.44 15 13.99 15H21.39L20.1 13.71C20.0074 13.6174 19.934 13.5075 19.8839 13.3866C19.8338 13.2656 19.808 13.136 19.808 13.005C19.808 12.8741 19.8338 12.7444 19.8839 12.6235C19.934 12.5025 20.0074 12.3926 20.1 12.3C20.1926 12.2074 20.3025 12.134 20.4235 12.0839C20.5444 12.0338 20.6741 12.008 20.805 12.008C20.9359 12.008 21.0656 12.0338 21.1865 12.0839C21.3075 12.134 21.4174 12.2074 21.51 12.3L23.12 13.91C23.6724 14.4674 23.9823 15.2203 23.9823 16.005C23.9823 16.7897 23.6724 17.5427 23.12 18.1L23.13 18.09Z" fill="#333333"/>
</g>
<defs>
<clipPath id="clip0_1979_8557">
<rect width="24" height="24" fill="white"/>
</clipPath>
</defs>
</svg>
