<svg width="334" height="334" viewBox="0 0 334 334" fill="none" xmlns="http://www.w3.org/2000/svg">
<path d="M228.56 73.3398C234.906 69.8094 244.795 77.0138 249.167 81.0585C254.278 85.7612 258.399 91.7465 261.569 97.9088C275.961 125.885 283.526 159.168 271.699 189.482C267.716 199.744 261.502 208.993 253.506 216.559C249.01 220.791 239.759 224.782 238.409 231.255C238.12 232.862 238.235 234.516 238.743 236.068C240.53 242 245.924 246.111 250.046 250.43C269.835 271.208 255.527 303.419 234.368 317.3" stroke="#E08585" stroke-width="2" stroke-miterlimit="10"/>
<path d="M73.3698 182.425C79.5488 175.862 87.4446 171.426 95.3837 167.345C103.981 162.926 112.441 158.477 120.257 152.739C125.015 149.253 129.517 145.43 133.727 141.299" stroke="#E08585" stroke-width="2" stroke-miterlimit="10"/>
<path d="M63.3398 265.554C55.444 245.156 53.44 221.776 61.6765 201.402" stroke="#E08585" stroke-width="2" stroke-miterlimit="10"/>
<path d="M166.803 54.6965V32.8328C166.803 31.3269 166.205 29.8827 165.14 28.8178C164.075 27.753 162.631 27.1548 161.125 27.1548H88.7238C87.2178 27.1548 85.7736 27.753 84.7088 28.8178C83.644 29.8827 83.0458 31.3269 83.0458 32.8328V135.645C83.0521 137.146 83.653 138.585 84.7171 139.644C85.7812 140.704 87.2221 141.299 88.7238 141.299H161.135C161.838 141.305 162.535 141.171 163.186 140.905" stroke="#333333" stroke-width="2" stroke-linecap="round" stroke-linejoin="round"/>
<path d="M158.827 30.6279H91.0351C88.0337 30.6279 85.6009 33.0609 85.6009 36.062V132.411C85.6009 135.412 88.0337 137.845 91.0351 137.845H158.827C161.828 137.845 164.261 135.412 164.261 132.411V36.062C164.261 33.0609 161.828 30.6279 158.827 30.6279Z" fill="#D65C5C"/>
<path d="M157.772 38.9243H92.9489C91.4472 38.9243 90.2301 40.1414 90.2301 41.6431V56.279C90.2301 57.7806 91.4472 58.9977 92.9489 58.9977H157.772C159.273 58.9977 160.49 57.7806 160.49 56.279V41.6431C160.49 40.1414 159.273 38.9243 157.772 38.9243Z" fill="#D65C5C"/>
<path d="M124.929 47.382C126.077 47.382 127.007 46.4518 127.007 45.3045C127.007 44.1572 126.077 43.2271 124.929 43.2271C123.782 43.2271 122.852 44.1572 122.852 45.3045C122.852 46.4518 123.782 47.382 124.929 47.382Z" fill="#F5D6D6"/>
<path d="M119.128 54.6966C119.128 53.1579 119.739 51.6822 120.827 50.5941C121.915 49.5062 123.391 48.895 124.929 48.895C126.468 48.895 127.944 49.5062 129.032 50.5941C130.12 51.6822 130.731 53.1579 130.731 54.6966H119.128Z" fill="#F5D6D6"/>
<path d="M125.354 80.5112C123.14 80.5099 120.976 81.1652 119.135 82.394C117.294 83.6231 115.859 85.3703 115.011 87.4153C114.163 89.4601 113.941 91.7103 114.373 93.8813C114.804 96.0526 115.87 98.0469 117.435 99.612C119 101.177 120.995 102.243 123.166 102.674C125.337 103.106 127.587 102.884 129.632 102.036C131.677 101.189 133.424 99.7533 134.653 97.9123C135.882 96.0713 136.537 93.907 136.536 91.6936C136.535 88.728 135.357 85.8843 133.26 83.7874C131.163 81.6906 128.319 80.5119 125.354 80.5112ZM125.354 100.177C124.92 100.177 124.505 100.005 124.199 99.6989C123.892 99.3923 123.72 98.9771 123.72 98.5439C123.72 98.1107 123.892 97.6952 124.199 97.3889C124.505 97.0826 124.92 96.9106 125.354 96.9106C125.787 96.9106 126.202 97.0826 126.509 97.3889C126.815 97.6952 126.987 98.1107 126.987 98.5439C126.987 98.9771 126.815 99.3923 126.509 99.6989C126.202 100.005 125.787 100.177 125.354 100.177ZM127.424 87.6021C127.074 90.0269 126.776 92.582 126.065 94.9501C125.891 95.5112 124.826 95.5112 124.652 94.9501C124.141 93.1765 123.748 91.3712 123.476 89.5459C123.259 88.2099 122.474 86.0723 123.226 84.7764C123.874 83.6275 125.714 83.4838 126.776 84.085C128.092 84.8365 127.588 86.3963 127.424 87.6021Z" fill="#F5D6D6"/>
<path d="M125.354 100.176C126.256 100.176 126.987 99.4451 126.987 98.5429C126.987 97.6411 126.256 96.9097 125.354 96.9097C124.451 96.9097 123.72 97.6411 123.72 98.5429C123.72 99.4451 124.451 100.176 125.354 100.176Z" fill="white"/>
<path d="M127.424 87.6018C127.074 90.0266 126.776 92.5817 126.065 94.9498C125.891 95.5109 124.826 95.5109 124.652 94.9498C124.141 93.1766 123.748 91.3713 123.476 89.5457C123.259 88.2097 122.474 86.0721 123.226 84.7761C123.874 83.6272 125.714 83.4835 126.776 84.0847C128.092 84.8362 127.588 86.396 127.424 87.6018Z" fill="white"/>
<path d="M97.2574 67.9624H151.886" stroke="white" stroke-width="2" stroke-miterlimit="10"/>
<path d="M97.2574 73.3364H151.886" stroke="white" stroke-width="2" stroke-miterlimit="10"/>
<path d="M97.2574 107.966H151.886" stroke="white" stroke-width="2" stroke-miterlimit="10"/>
<path d="M165.186 121.824C165.393 121.984 165.754 54.4562 165.754 54.4562L145.203 46.5137C145.203 46.5137 129.926 83.9584 130.851 84.3358L134.976 86.0058C134.976 86.0058 135.995 85.2009 138.356 91.0158C140.718 96.8308 157.738 116.096 165.186 121.824Z" fill="white"/>
<path d="M109.946 113.053H139.198" stroke="white" stroke-width="2" stroke-miterlimit="10"/>
<path d="M247.421 152.207C247.153 155.12 243.56 188.526 247.043 195.049C248.306 197.411 235.774 195.15 235.019 194.976C223.663 192.304 213.029 187.377 203.075 181.385C193.122 175.393 184.328 167.508 173.951 162.194C172.033 161.212 167.788 159.061 169.044 156.245C171.182 151.449 173.807 144.829 174.014 138.974L173.951 131.292C173.951 131.292 172.434 126.469 177.381 130.694C182.327 134.919 204.962 146.058 219.615 133.152C234.268 120.247 235.136 110.04 235.136 110.04C235.136 110.04 225.754 87.0805 199.044 101.125L208.479 76.7432C208.479 76.7432 207.187 75.1032 211.275 75.4072C215.363 75.7111 222.945 73.6904 223.884 66.1988C223.884 66.1988 223.957 63.7539 228.282 68.3765C232.608 72.999 253.048 91.0517 247.421 152.207Z" fill="#666666"/>
<path d="M194.909 65.721C197.201 64.0403 199.767 62.7711 202.494 61.9702" stroke="#333333" stroke-width="2" stroke-miterlimit="10"/>
<path d="M184.755 179.716L166.385 246.128L149.685 306.522L139.051 307.524C136.613 307.749 134.346 308.876 132.696 310.684C131.045 312.492 130.129 314.852 130.126 317.3H163.015L186.836 276.245L204.555 245.701L232.257 197.939C233.059 196.546 233.837 195.153 234.595 193.73C234.608 193.714 234.615 193.694 234.615 193.674" stroke="#333333" stroke-width="2" stroke-miterlimit="10"/>
<path d="M246.739 157.315C246.99 155.692 247.21 154.068 247.407 152.435C247.407 152.358 247.407 152.292 247.427 152.215C248.551 142.324 248.791 132.352 248.142 122.419C248.146 122.39 248.146 122.36 248.142 122.332C247.407 111.52 245.423 100.164 241.462 89.0921C240.312 85.8987 238.889 82.8099 237.21 79.8603C237.087 79.6165 236.946 79.376 236.793 79.1356C236.265 78.2137 235.697 77.3153 235.123 76.4268C234.344 75.2545 233.519 74.1155 232.654 73.03C231.365 71.3818 229.934 69.8484 228.379 68.4476C228.369 68.4439 228.36 68.4382 228.352 68.4309C228.345 68.4232 228.339 68.4142 228.336 68.4041C227.18 67.3811 225.953 66.4436 224.662 65.5985C224.421 65.4349 224.181 65.2812 223.937 65.1276C223.899 65.0985 223.859 65.0728 223.817 65.0508" stroke="#333333" stroke-width="2" stroke-miterlimit="10"/>
<path d="M204.555 245.7L230.387 317.3H193.112C193.112 314.973 193.956 312.727 195.489 310.976C197.021 309.226 199.137 308.092 201.442 307.784L209.555 306.699C209.555 306.699 198.647 292.337 186.843 276.241" stroke="#333333" stroke-width="2" stroke-miterlimit="10"/>
<path d="M209.137 75.0495L197.942 103.961C197.604 104.833 197.095 105.63 196.447 106.305C195.798 106.979 195.021 107.518 194.162 107.889C193.303 108.261 192.378 108.457 191.442 108.468C190.506 108.479 189.577 108.304 188.71 107.952L162.19 97.2171C162.177 97.181 162.166 97.1442 162.157 97.1068C161.823 95.7708 158.396 82.9653 154.241 82.9653C151.052 82.9653 152.571 89.2812 153.907 92.855C154.061 93.2391 154.205 93.5998 154.335 93.9071L154.128 93.8203L133.363 85.3567L146.459 50.8345L172.027 60.7109L209.137 75.0495Z" fill="#F5D6D6"/>
<path d="M154.328 93.9083C152.935 90.7186 150.718 82.9664 154.245 82.9664C158.4 82.9664 161.823 95.782 162.16 97.108L162.194 97.2182L188.71 107.956C189.579 108.307 190.509 108.482 191.446 108.47C192.383 108.458 193.308 108.26 194.168 107.887C195.027 107.514 195.804 106.974 196.452 106.297C197.101 105.621 197.608 104.823 197.945 103.948L210.42 71.7173L170.768 56.3901L145.203 46.5137L130.841 84.3358L154.328 93.9083Z" stroke="#333333" stroke-width="2" stroke-miterlimit="10"/>
<path d="M236.522 93.0962C237.317 106.957 234.221 124.689 216.549 135.127C190.407 150.584 155.808 115.564 142.999 98.5704C140.882 95.7795 139.095 92.7535 137.671 89.5524C137.24 88.6209 136.878 87.6586 136.589 86.6733" stroke="#333333" stroke-width="2" stroke-miterlimit="10"/>
<path d="M173.72 128.299C173.72 128.299 175.724 142.898 169.545 155.31L169.572 155.276C169.572 155.276 169.572 155.3 169.552 155.31C160.066 173.102 146.486 201.485 154.061 222.11C156.636 229.124 161.075 237.474 166.382 246.131" stroke="#333333" stroke-width="2" stroke-miterlimit="10"/>
<path d="M219.715 43.6979L219.735 43.7915C219.896 45.747 219.273 47.6862 218.005 49.1826C216.735 50.6789 214.924 51.6101 212.968 51.7707C211.717 51.8793 210.458 51.6595 209.318 51.1328C208.991 50.9942 208.677 50.8278 208.379 50.6351C208.257 50.5503 208.158 50.4371 208.089 50.3055C208.02 50.1735 207.984 50.0272 207.984 49.8786C207.984 49.73 208.02 49.5837 208.089 49.4521C208.158 49.3202 208.257 49.2069 208.379 49.1221C209.816 48.0867 211.128 46.6438 211.502 44.9538C211.614 44.4341 211.624 43.8973 211.529 43.374C211.427 42.707 211.151 42.0787 210.731 41.5513C210.31 41.0239 209.758 40.6158 209.131 40.368C208.934 40.3099 208.731 40.2771 208.526 40.2711C207.948 40.2243 207.19 40.2978 207.04 40.7253C207.777 38.6529 207.808 36.3944 207.127 34.3025C206.703 33.0083 205.989 31.8282 205.039 30.8524C205.082 31.2304 205.042 31.6134 204.92 31.9739C204.798 32.3345 204.599 32.6638 204.336 32.9383C204.072 33.213 203.751 33.4261 203.396 33.5627C203.041 33.699 202.66 33.7554 202.28 33.7281C199.338 33.6279 198.783 30.8223 198.783 30.8223C198.783 30.8223 198.783 30.8557 198.783 30.8758C197.501 34.0721 193.773 34.1589 191.101 32.7394C190.154 32.2533 189.322 31.57 188.66 30.7354C187.902 27.4589 190.604 24.2926 193.72 23.8384C193.787 21.7542 195.307 19.5231 197.357 19.3527C198.072 19.2917 198.789 19.4234 199.436 19.7342C200.082 20.0449 200.633 20.5234 201.031 21.1196C201.088 21.2098 201.152 21.3066 201.202 21.4068C202.04 20.1911 203.413 18.8584 204.876 18.7348C205.89 18.6636 206.902 18.9061 207.775 19.4295C208.647 19.9529 209.337 20.7318 209.752 21.6607C209.752 21.517 211.038 20.9292 211.168 20.8758C212.369 20.4192 213.688 20.3752 214.917 20.7507C216.145 21.1262 217.215 21.8999 217.955 22.9499C218.03 23.2402 218.079 23.5363 218.102 23.835C218.176 24.7283 218.038 25.6264 217.701 26.4569C218.176 26.5923 218.619 26.8192 219.007 27.1249C219.846 27.7392 220.409 28.6598 220.574 29.6867C220.59 29.7902 220.6 29.8938 220.607 29.9973C220.674 30.7799 220.507 31.5647 220.126 32.2518C221.114 32.534 222.011 33.0691 222.729 33.8042C223.446 34.5393 223.959 35.4492 224.218 36.4435C224.299 36.7725 224.354 37.1078 224.381 37.4455C224.495 38.8767 224.085 40.3002 223.226 41.4508C222.368 42.6011 221.119 43.4 219.715 43.6979Z" fill="#D65C5C"/>
<path d="M219.715 43.6971L219.735 43.7906C219.896 45.7462 219.273 47.6854 218.005 49.1817C216.735 50.6781 214.924 51.6092 212.968 51.7699C211.717 51.8784 210.458 51.6587 209.318 51.132C210.754 50.0966 212.067 48.6503 212.437 46.9603C212.569 46.332 212.555 45.6817 212.395 45.0598C212.236 44.4379 211.936 43.8611 211.519 43.3731C211.417 42.7065 211.141 42.0779 210.721 41.5505C210.3 41.0231 209.748 40.615 209.121 40.3671C208.924 40.309 208.721 40.2763 208.516 40.2703C208.714 38.1814 208.223 36.0849 207.117 34.3017C206.693 33.0076 205.979 31.8274 205.029 30.8516C205.072 31.2296 205.032 31.6126 204.91 31.9732C204.788 32.3337 204.589 32.663 204.326 32.9376C204.062 33.2122 203.741 33.4253 203.386 33.5619C203.031 33.6982 202.65 33.7549 202.27 33.7272C199.328 33.627 198.773 30.8215 198.773 30.8215C198.773 30.8215 198.773 30.8549 198.773 30.875C197.491 34.0712 193.763 34.1581 191.091 32.7387C190.144 32.2525 189.312 31.5692 188.65 30.7347C187.892 27.4581 190.594 24.2918 193.71 23.8376C193.777 21.7534 195.297 19.5223 197.347 19.352C198.062 19.2909 198.779 19.4226 199.426 19.7334C200.072 20.0441 200.623 20.5226 201.021 21.1188C201.078 21.209 201.142 21.3059 201.192 21.4061C202.03 20.1903 203.403 18.8576 204.866 18.7341C205.882 18.6607 206.896 18.9022 207.771 19.4257C208.645 19.9492 209.337 20.7293 209.752 21.6599C209.752 21.5163 211.038 20.9284 211.168 20.875C212.369 20.4184 213.688 20.3744 214.917 20.75C216.145 21.1255 217.215 21.8992 217.955 22.9491C218.03 23.2394 218.079 23.5355 218.102 23.8342C218.176 24.7275 218.038 25.6256 217.701 26.4561C218.176 26.5915 218.62 26.8184 219.007 27.1241C218.946 27.583 218.826 28.032 218.65 28.4601C219.391 28.6771 220.057 29.0957 220.574 29.6692C220.59 29.7728 220.6 29.8763 220.607 29.9798C220.674 30.7624 220.506 31.5472 220.126 32.2343C220.623 32.3761 221.099 32.5828 221.542 32.8489C221.47 33.3372 221.312 33.8087 221.075 34.2416C222.337 34.597 223.444 35.3662 224.218 36.4259C224.299 36.7549 224.354 37.0903 224.381 37.4279C224.499 38.8618 224.091 40.2896 223.232 41.4436C222.373 42.5976 221.123 43.3989 219.715 43.6971Z" fill="#D65C5C"/>
<path d="M193.76 37.0039C193.76 37.0039 197.995 37.064 198.967 40.6378" stroke="#333333" stroke-width="2" stroke-miterlimit="10"/>
<path d="M192.668 47.7127C191.704 47.9505 190.704 47.9993 189.722 47.8563C189.537 47.8246 189.363 47.7488 189.214 47.6352C189.066 47.5213 188.947 47.3733 188.867 47.2037C188.789 47.034 188.751 46.8476 188.76 46.6606C188.769 46.4735 188.823 46.2912 188.917 46.1295C189.799 44.6365 190.707 43.1603 191.696 41.7408C191.851 41.5601 191.947 41.3363 191.97 41.0995C191.97 41.0995 191.562 36.6807 192.454 33.2905" stroke="#333333" stroke-width="2" stroke-miterlimit="10"/>
<path d="M196.001 40.7647C196.09 40.0526 195.672 39.4137 195.066 39.3375C194.46 39.2614 193.896 39.7767 193.807 40.4885C193.717 41.2006 194.136 41.8395 194.742 41.9157C195.347 41.9918 195.911 41.4765 196.001 40.7647Z" fill="#333333"/>
<path d="M216.011 50.832C216.101 51.7171 220.073 57.846 223.663 64.6129C223.661 64.6239 223.661 64.6353 223.663 64.6463C223.73 64.7899 223.797 64.9435 223.874 65.0972" stroke="#333333" stroke-width="2" stroke-linecap="round" stroke-linejoin="round"/>
<path d="M201.686 57.311L202.935 66.2021" stroke="#333333" stroke-width="2" stroke-miterlimit="10"/>
<path d="M191.138 47.936C191.138 47.936 192.948 56.7403 197.401 58.0729C201.853 59.4056 205.717 53.8512 205.717 53.8512" stroke="#333333" stroke-width="2" stroke-linecap="round" stroke-linejoin="round"/>
<path d="M192.354 51.9072C192.945 52.2529 193.614 52.4456 194.298 52.4677C194.983 52.4897 195.663 52.3408 196.275 52.0341" stroke="#333333" stroke-width="2" stroke-linecap="round" stroke-linejoin="round"/>
<path d="M200.714 21.0055C200.661 20.3225 200.431 19.6652 200.046 19.0984C199.557 18.3473 198.83 17.7819 197.981 17.4927C197.132 17.2034 196.212 17.207 195.365 17.5028C194.519 17.7986 193.796 18.3695 193.313 19.1244C192.829 19.8793 192.613 20.7744 192.698 21.6668" stroke="#333333" stroke-width="2" stroke-miterlimit="10" stroke-linecap="round"/>
<path d="M198.991 27.0849C198.906 26.12 198.589 25.1902 198.065 24.3756C197.541 23.5609 196.828 22.8859 195.985 22.4089C191.739 20.0341 186.299 24.6467 187.818 29.2158C188.353 30.8056 189.625 31.9613 191.075 32.7295C193.747 34.149 197.488 34.0655 198.757 30.8657L198.777 30.8156C198.777 30.8156 199.331 33.6179 202.274 33.7215C202.654 33.7482 203.035 33.6911 203.39 33.5545C203.746 33.4175 204.067 33.2041 204.331 32.9295C204.595 32.6548 204.795 32.3254 204.917 31.9648C205.04 31.6041 205.081 31.2209 205.039 30.8424C207.571 33.4476 208.232 37.342 207.043 40.7188C207.26 40.1109 208.713 40.2211 209.134 40.3614C210.944 40.9927 211.91 43.1336 211.509 44.9506C211.131 46.6506 209.819 48.0868 208.389 49.1289C208.267 49.2134 208.168 49.3263 208.099 49.4576C208.03 49.5892 207.994 49.7354 207.994 49.8837C207.994 50.032 208.03 50.1783 208.099 50.3096C208.168 50.4412 208.267 50.5541 208.389 50.6386C209.75 51.5133 211.363 51.9128 212.975 51.7742C214.93 51.6132 216.741 50.6827 218.01 49.187C219.279 47.6914 219.902 45.7532 219.742 43.7983L219.722 43.7047C221.012 43.4345 222.175 42.7402 223.025 41.7321C223.875 40.7241 224.362 39.4606 224.41 38.1433C224.458 36.826 224.064 35.5301 223.29 34.463C222.516 33.3959 221.407 32.6186 220.139 32.2552C220.52 31.5681 220.687 30.7833 220.62 30.0007C220.529 28.939 220.021 27.9568 219.207 27.2685C218.393 26.5801 217.34 26.2416 216.278 26.3267" stroke="#333333" stroke-width="2" stroke-linecap="round" stroke-linejoin="round"/>
<path d="M200.544 18.9377C201.345 17.6017 202.23 16.8535 203.884 16.7166C204.909 16.6328 205.936 16.8717 206.819 17.3999C207.703 17.9281 208.399 18.7192 208.81 19.6625C208.753 19.5322 210.096 18.921 210.233 18.8676C210.768 18.6629 211.331 18.5391 211.903 18.5001C213.428 18.4181 214.926 18.9281 216.084 19.9238C217.242 20.9195 217.971 22.324 218.119 23.8441C218.192 24.7374 218.055 25.6355 217.718 26.466" stroke="#333333" stroke-width="2" stroke-linecap="square" stroke-linejoin="round"/>
<path d="M223.663 64.6162C223.663 64.6162 226.783 74.9903 208.947 75.5514" stroke="#333333" stroke-width="2" stroke-miterlimit="10"/>
<path d="M130.928 168.552C130.898 160.967 138.353 158.927 141.923 158.993C164.051 159.414 167.387 123.629 167.387 123.629" stroke="#333333" stroke-width="2" stroke-linecap="round" stroke-linejoin="round"/>
<path d="M246.739 157.314C246.739 157.314 244.127 183.079 246.739 191.749C249.351 200.42 234.331 193.616 234.331 193.616" stroke="#333333" stroke-width="2" stroke-miterlimit="10"/>
<path d="M97.0971 176.733H79.7325" stroke="#333333" stroke-width="2" stroke-linecap="round" stroke-linejoin="round"/>
<path d="M159.315 176.733H126.088" stroke="#333333" stroke-width="2" stroke-linecap="round" stroke-linejoin="round"/>
<path d="M121.322 176.733H101.706" stroke="#333333" stroke-width="2" stroke-linecap="round" stroke-linejoin="round"/>
<path d="M120.818 168.553H101.422" stroke="#333333" stroke-width="2" stroke-linecap="round" stroke-linejoin="round"/>
<path d="M136.272 168.553H125.801" stroke="#333333" stroke-width="2" stroke-linecap="round" stroke-linejoin="round"/>
<path d="M162.888 168.553H142.665" stroke="#333333" stroke-width="2" stroke-linecap="round" stroke-linejoin="round"/>
<path d="M96.5761 168.553H93.1459" stroke="#333333" stroke-width="2" stroke-linecap="round" stroke-linejoin="round"/>
<path d="M120.177 167.818H124.662C124.662 167.818 129.802 172.671 124.662 178.226V182.107H120.177" stroke="#333333" stroke-width="2" stroke-linecap="round" stroke-linejoin="round"/>
<path d="M100.424 167.818C100.424 167.818 105.564 172.671 100.424 178.226V182.107" stroke="#333333" stroke-width="2" stroke-linecap="round" stroke-linejoin="round"/>
<path d="M100.424 182.107H95.9382V178.226C101.082 172.671 95.9382 167.818 95.9382 167.818H100.424" stroke="#333333" stroke-width="2" stroke-linecap="round" stroke-linejoin="round"/>
<path d="M120.177 167.818C120.177 167.818 125.32 172.671 120.177 178.226V182.107" stroke="#333333" stroke-width="2" stroke-linecap="round" stroke-linejoin="round"/>
<path d="M95.9382 178.226H100.424" stroke="#333333" stroke-width="2" stroke-linecap="round" stroke-linejoin="round"/>
<path d="M120.177 178.226H124.662" stroke="#333333" stroke-width="2" stroke-linecap="round" stroke-linejoin="round"/>
<path d="M137.468 166.075C136.895 166.806 136.487 167.651 136.272 168.553C135.989 169.886 135.882 171.251 135.955 172.612C135.975 173.948 136.142 175.317 137.411 176.018C139.318 177.084 141.609 175.561 141.71 173.376C141.819 171.734 142.14 170.113 142.665 168.553C142.685 168.477 142.708 168.41 142.728 168.346" stroke="#333333" stroke-width="2" stroke-linecap="round" stroke-linejoin="round"/>
<path d="M142.728 168.336C144.318 168.002 146.686 167.131 147.892 164.883" stroke="#333333" stroke-width="2" stroke-linecap="round" stroke-linejoin="round"/>
<path d="M131.88 176.733C131.88 176.733 133.129 180.027 136.272 180.427C139.415 180.828 137.428 176.733 137.428 176.733C137.428 176.733 138.73 179.619 140.307 179.716C141.883 179.813 143.246 178.38 142.702 176.733C142.702 176.733 143.183 179.382 145.514 179.091C147.845 178.801 146.883 176.733 146.883 176.733" stroke="#333333" stroke-width="2" stroke-linecap="round" stroke-linejoin="round"/>
<g opacity="0.54">
<path opacity="0.54" d="M96.0283 223.643L93.7738 256.201C92.5514 258.412 91.1753 260.37 89.9495 261.579C89.7859 261.519 89.6155 261.458 89.4586 261.385C89.158 261.281 88.8607 261.161 88.5768 261.051C84.0077 259.047 80.5608 255.316 79.5254 251.104C78.6169 247.4 79.4386 243.399 77.675 239.919C75.5241 235.634 69.659 232.945 68.9543 228.105C68.2863 223.579 72.3578 219.421 71.6998 214.992C70.9383 209.982 64.786 207.003 63.637 202.103C62.9189 199.057 63.5602 195.564 63.303 192.417C62.9991 188.912 62.4056 185.438 61.5295 182.03C70.6109 181.362 79.8561 186.372 82.7986 193.543C85.2034 199.411 83.7538 206.268 87.518 211.616C89.5621 214.511 92.9689 216.676 94.7291 219.708C95.2718 220.653 95.6649 221.676 95.8947 222.741C95.9114 222.815 95.9114 222.891 95.9248 222.948C95.9415 223.068 95.9549 223.159 95.9682 223.249C95.9983 223.509 96.0283 223.643 96.0283 223.643Z" fill="#D65C5C"/>
<path opacity="0.54" d="M96.045 223.63H96.0283C96.0283 223.63 95.9983 223.497 95.9682 223.243C95.9966 223.346 96.0166 223.45 96.0283 223.557C96.045 223.583 96.045 223.613 96.045 223.63Z" fill="#D65C5C"/>
</g>
<path d="M126.048 210.935C124.853 215.16 118.433 217.729 117.655 222.061C116.967 225.899 121.209 229.482 120.507 233.38C119.762 237.565 113.667 239.88 111.429 243.584C109.605 246.59 110.457 250.033 109.515 253.23C108.426 256.86 104.839 260.1 100.046 261.817C99.7491 261.924 99.4652 262.027 99.1646 262.118C99.001 262.161 98.8306 262.221 98.657 262.264C97.0738 260.965 95.2669 258.681 93.7872 256.216L96.0417 223.657H96.0584C97.8053 222.178 99.8059 220.818 101.195 219.175C102.705 217.398 103.406 215.458 103.867 213.427H103.874V213.203C104.542 209.99 104.592 206.63 106.102 203.584C109.161 197.385 118.764 193.07 128.219 193.638C127.328 196.564 126.717 199.569 126.396 202.612C126.122 205.304 126.796 208.32 126.048 210.935Z" fill="#D65C5C"/>
<path d="M103.874 213.176V213.399H103.831C103.854 213.322 103.874 213.249 103.874 213.176Z" fill="#D65C5C"/>
<path d="M103.874 213.175C103.874 213.249 103.844 213.322 103.831 213.399C103.383 215.43 102.682 217.37 101.159 219.147C99.7691 220.79 97.7685 222.153 96.0216 223.629C96.0216 223.629 96.0217 223.583 96.005 223.569C95.9933 223.463 95.9732 223.358 95.9448 223.255C95.9448 223.165 95.9181 223.075 95.9014 222.955C95.9014 222.898 95.9014 222.821 95.8714 222.748C95.6416 221.683 95.2484 220.66 94.7057 219.715C92.9455 216.682 89.5387 214.518 87.4946 211.622C87.4946 211.622 88.4198 196.358 96.2287 191.712C103.647 187.32 103.874 210.633 103.874 213.175Z" fill="#D65C5C"/>
<path d="M103.874 213.176V213.399H103.831C103.854 213.322 103.874 213.249 103.874 213.176Z" fill="#D65C5C"/>
<path d="M96.0284 223.57V223.643C96.0284 223.643 95.9983 223.51 95.9683 223.256C95.9967 223.359 96.0167 223.464 96.0284 223.57Z" fill="#D65C5C"/>
<path d="M95.3336 223.647C97.0738 222.164 99.0911 220.788 100.487 219.148C104.402 214.525 102.895 208.62 105.407 203.553C108.463 197.361 118.099 193.046 127.531 193.614C126.631 196.539 126.019 199.544 125.701 202.588C125.42 205.297 126.092 208.316 125.367 210.938C124.165 215.16 117.748 217.722 116.967 222.057C116.275 225.891 120.527 229.475 119.822 233.373C119.074 237.558 112.986 239.869 110.741 243.573C108.914 246.579 109.772 250.023 108.824 253.226C107.675 257.087 103.69 260.5 98.4699 262.107C98.3029 262.164 98.1359 262.221 97.9555 262.264C96.3724 260.965 94.5654 258.683 93.0825 256.215" stroke="#333333" stroke-width="2" stroke-miterlimit="10"/>
<path d="M121.76 198.469C107.668 213.636 101.052 245.617 98.4632 262.113C98.2528 263.506 98.0624 264.785 97.8987 265.927" stroke="#333333" stroke-width="2" stroke-miterlimit="10"/>
<path d="M123.059 275.216L116.566 313.473C116.413 314.521 115.892 315.482 115.097 316.183C114.302 316.884 113.284 317.28 112.224 317.3H78.3698C77.3013 317.277 76.2763 316.872 75.48 316.159C74.6838 315.446 74.1687 314.472 74.0278 313.413L68.0492 275.216H123.059Z" stroke="#333333" stroke-width="2" stroke-miterlimit="10"/>
<path d="M129.218 270.955C129.034 273.366 127.124 275.223 124.833 275.223H66.3825C64.1147 275.223 62.2209 273.406 62.0038 271.021C61.7533 268.296 63.7874 265.935 66.3825 265.935H124.833C127.404 265.935 129.428 268.249 129.218 270.955Z" stroke="#333333" stroke-width="2" stroke-miterlimit="10"/>
<path d="M89.2548 261.585C91.7632 259.094 94.8326 253.549 96.1954 249.017C97.3143 245.279 95.3403 241.435 94.8894 237.604C94.1813 231.592 97.164 225.149 94.021 219.712C92.2709 216.679 88.8641 214.521 86.82 211.615C83.0525 206.271 84.4987 199.424 82.0905 193.556C79.158 186.372 69.9129 181.378 60.8348 182.03C61.7025 185.442 62.29 188.919 62.5916 192.427C62.8622 195.563 62.2142 199.057 62.9256 202.113C64.0779 207.013 70.2369 209.979 70.9917 214.999C71.6597 219.438 67.5782 223.589 68.2496 228.108C68.971 232.955 74.8127 235.633 76.9737 239.925C78.7272 243.412 77.9055 247.407 78.8173 251.108C79.9596 255.73 84.001 259.792 89.2548 261.585Z" stroke="#333333" stroke-width="2" stroke-miterlimit="10"/>
<path d="M66.3759 187.661C79.9029 205.23 86.2689 242.27 88.7539 261.392C88.9676 263.062 89.158 264.568 89.3083 265.927" stroke="#333333" stroke-width="2" stroke-miterlimit="10"/>
<path d="M86.8199 211.616C86.8199 211.616 87.7485 196.353 95.554 191.71C103.36 187.067 103.206 213.093 103.206 213.093" stroke="#333333" stroke-width="2" stroke-miterlimit="10"/>
<path d="M95.3336 223.647C95.3336 223.647 93.7371 214.912 96.5327 206.329" stroke="#333333" stroke-width="2" stroke-miterlimit="10"/>
<path d="M274.992 176.733H245.771" stroke="#333333" stroke-width="2" stroke-linecap="round" stroke-linejoin="round"/>
<path d="M275.467 168.553H246.706" stroke="#333333" stroke-width="2" stroke-linecap="round" stroke-linejoin="round"/>
<path d="M70.4172 317.3H256.515" stroke="#333333" stroke-width="2" stroke-miterlimit="10"/>
</svg>
