<svg width="337" height="337" viewBox="0 0 337 337" fill="none" xmlns="http://www.w3.org/2000/svg">
<path d="M59.7197 154.16C70.8104 138.658 87.4312 131.632 87.4312 131.632C87.9738 131.406 85.662 110.168 85.6148 108.662C84.9138 83.8522 89.0286 58.038 107.678 40.1231C130.992 17.7428 173.292 13.1057 200.036 31.9608C199.699 31.7114 208.835 24.5097 209.607 24.0481C214.599 21.0356 220.231 19.2447 226.046 18.8212C249.447 17.1362 270.908 35.523 279.686 57.765C288.465 80.007 286.45 130.685 270.345 145.301" stroke="#E08585" stroke-width="2" stroke-miterlimit="10"/>
<path d="M49.7209 181.053C50.2976 174.948 51.8673 168.977 54.3682 163.378C54.6064 162.845 54.8558 162.324 55.1163 161.814" stroke="#E08585" stroke-width="2" stroke-miterlimit="10"/>
<path d="M78.6423 245.568C75.9463 243.118 73.4491 240.624 71.1609 238.117" stroke="#E08585" stroke-width="2" stroke-miterlimit="10"/>
<path d="M303.3 172.706C303.32 174.391 303.3 176.109 303.219 177.831C302.741 188.484 300.459 199.494 294.757 208.465C293.719 210.12 292.561 211.697 291.293 213.183C279.161 211.582 277.351 199.207 263.322 192.211C246.516 183.81 218.996 186.819 218.996 186.819L232.554 174.313C231.829 136.65 204.178 138.962 204.178 138.962L202.773 142.403C203.84 139.286 204.92 136.38 206.012 133.684L206.072 133.543C218.878 101.737 232.146 97.794 242.468 93.2007C244.934 92.615 247.459 92.314 249.993 92.3043C276.384 92.1627 291.872 119.038 298.646 140.674C300.331 146.066 302.923 157.598 303.27 170.566C303.276 171.26 303.3 171.985 303.3 172.706Z" fill="#666666"/>
<path d="M318.128 313.868C316.079 316.689 312.699 318.226 309.214 318.226H269.179C267.64 318.248 266.114 317.948 264.699 317.345C263.283 316.741 262.009 315.849 260.959 314.724C260.817 314.58 260.684 314.427 260.562 314.266C259.307 312.712 258.522 310.832 258.3 308.847C258.098 307.024 259.453 305.403 261.286 305.477C261.981 305.504 262.642 305.782 263.148 306.259C263.653 306.736 263.969 307.38 264.036 308.072C264.036 308.217 264.066 308.359 264.087 308.5C264.235 309.322 264.597 310.092 265.135 310.731C265.611 311.294 266.209 311.741 266.883 312.039C267.557 312.337 268.29 312.479 269.027 312.453H309.386C310.109 312.465 310.825 312.321 311.487 312.03C312.148 311.739 312.739 311.309 313.218 310.768C313.758 310.143 314.127 309.388 314.288 308.577C314.448 307.767 314.395 306.928 314.135 306.144L296.108 252.545C295.961 252.133 295.787 251.732 295.586 251.345C294.528 249.11 292.851 247.225 290.754 245.914C288.656 244.604 286.227 243.922 283.754 243.951C276.165 244.042 266.53 244.062 265.623 244.062C245.427 243.988 236.237 243.988 231.182 244.123C231.529 242.881 232.156 241.735 233.015 240.773C233.015 240.773 233.036 240.753 233.036 240.743C234.268 239.429 235.956 238.635 237.754 238.522C245.242 237.909 252.656 236.79 259.857 234.835C272.566 231.391 284.687 225.484 293.109 215.983C297.208 211.385 300.307 205.984 302.208 200.124C303.684 195.471 304.613 190.663 304.978 185.795C305.109 184.258 305.19 182.71 305.221 181.151V181.08C305.221 180.723 305.241 180.356 305.241 179.999C305.287 177.778 305.186 175.557 304.938 173.35C307.138 173.367 309.246 174.239 310.815 175.783C310.953 176.146 311.054 176.522 311.118 176.905C311.179 177.268 311.21 177.635 311.209 178.004V221.595C311.213 224.572 310.625 227.52 309.481 230.269C308.335 233.017 306.657 235.511 304.54 237.605C301.035 241.076 300.038 246.344 301.699 250.978L319.614 304.284C320.155 305.883 320.303 307.589 320.044 309.258C319.786 310.926 319.128 312.508 318.128 313.868Z" fill="#D65C5C"/>
<path d="M71.1643 312.523V190.316H78.6423V312.573L71.1643 312.523Z" fill="#666666"/>
<path d="M218.999 186.802C224.354 186.233 230.548 185.559 236.496 185.694" stroke="#333333" stroke-width="2" stroke-miterlimit="10"/>
<path d="M189.829 192.2C180.345 194.593 171.118 198.047 163.246 203.79C150.036 213.414 143.997 231.37 149.395 246.926C149.395 246.946 170.626 308.189 170.626 308.189H165.039C163.835 308.189 162.643 308.426 161.531 308.889C160.419 309.352 159.41 310.03 158.562 310.885C156.9 312.536 156.081 315.289 156.081 317.817H206.372L187.261 255.303C186.784 253.763 186.677 252.131 186.948 250.541C187.219 248.951 187.86 247.447 188.82 246.151C189.78 244.855 191.032 243.803 192.474 243.08C193.916 242.358 195.508 241.985 197.121 241.992C208.01 242.299 218.123 242.716 229.136 242.238" stroke="#333333" stroke-width="2" stroke-miterlimit="10"/>
<path d="M303.377 178.34V178.272C302.889 165.129 302.228 152.162 298.633 140.663C291.859 119.028 276.37 92.152 249.98 92.2935C247.446 92.3033 244.92 92.6042 242.455 93.1899C225.059 97.3249 212.977 115.149 206.059 133.532L205.998 133.674C205.337 135.437 204.726 137.196 204.165 138.951C203.784 140.132 203.314 141.282 202.759 142.392C200.64 146.663 197.28 150.195 193.121 152.525C188.961 154.855 184.195 155.874 179.446 155.451C147.498 152.546 105.393 150.888 92.1324 173.335" stroke="#333333" stroke-width="2" stroke-miterlimit="10"/>
<path d="M251.099 153.894C246.448 159.508 241.551 164.931 236.49 170.175C226.127 180.918 217.186 192.329 201.105 193.091C188.275 193.707 176.062 188.784 163.93 185.37C150.952 181.72 144.384 178.802 132.289 175.115C128.806 174.057 125.192 173.49 121.553 173.43L109.377 173.524" stroke="#333333" stroke-width="2" stroke-miterlimit="10"/>
<path d="M203.609 308.979C204.768 308.459 206.025 308.192 207.295 308.197H212.896C212.896 308.197 201.189 285.439 191.827 270.291" stroke="#333333" stroke-width="2" stroke-miterlimit="10"/>
<path d="M211.299 242.29L250.458 318.226H206.163H198.129" stroke="#333333" stroke-width="2" stroke-miterlimit="10"/>
<path d="M318.128 313.869C316.079 316.689 312.699 318.226 309.214 318.226H269.179C265.859 318.226 262.621 316.851 260.551 314.256C259.297 312.702 258.512 310.822 258.29 308.837C258.088 307.014 259.443 305.393 261.276 305.467C261.971 305.494 262.632 305.772 263.138 306.249C263.643 306.726 263.959 307.37 264.026 308.062C264.108 309.041 264.492 309.97 265.125 310.721C265.608 311.275 266.207 311.717 266.879 312.014C267.552 312.312 268.282 312.458 269.017 312.443H309.386C310.109 312.455 310.825 312.311 311.487 312.02C312.148 311.729 312.739 311.299 313.218 310.758C313.758 310.133 314.127 309.378 314.287 308.567C314.448 307.757 314.395 306.918 314.134 306.135L296.108 252.545C295.195 250.007 293.516 247.817 291.302 246.277C289.088 244.737 286.45 243.924 283.754 243.951C276.165 244.042 266.53 244.063 265.623 244.063C243.135 243.992 234.282 243.992 229.591 244.164C229.518 244.163 229.446 244.148 229.379 244.12C229.311 244.092 229.25 244.05 229.199 243.998C229.148 243.946 229.107 243.885 229.08 243.817C229.052 243.749 229.038 243.677 229.039 243.604C229.032 241.524 229.795 239.514 231.182 237.963C231.187 237.959 231.192 237.954 231.195 237.948C231.199 237.942 231.201 237.936 231.202 237.929C232.437 236.618 234.123 235.826 235.92 235.712C243.408 235.098 250.822 233.979 258.024 232.025C270.732 228.581 282.854 222.673 291.276 213.173C295.375 208.574 298.474 203.174 300.375 197.314C301.846 192.663 302.772 187.856 303.135 182.991C303.267 181.45 303.348 179.902 303.377 178.348V178.273C303.377 177.92 303.398 177.552 303.398 177.195C303.443 174.974 303.342 172.753 303.094 170.546C306.761 170.526 310.458 173.191 311.098 176.912C311.159 177.275 311.189 177.642 311.189 178.011V221.595C311.192 224.572 310.605 227.521 309.46 230.269C308.315 233.017 306.636 235.511 304.52 237.606C301.015 241.077 300.018 246.344 301.679 250.978L319.594 304.284C320.138 305.882 320.289 307.587 320.034 309.256C319.779 310.924 319.125 312.507 318.128 313.869Z" stroke="#333333" stroke-width="2" stroke-miterlimit="10"/>
<path d="M125.782 181.057H21.477C18.9215 181.057 16.85 183.129 16.85 185.684V185.688C16.85 188.243 18.9215 190.315 21.477 190.315H125.782C128.337 190.315 130.409 188.243 130.409 185.688V185.684C130.409 183.129 128.337 181.057 125.782 181.057Z" stroke="#333333" stroke-width="2" stroke-miterlimit="10"/>
<path d="M96.2438 313.103H54.0682C52.637 313.103 51.4767 314.263 51.4767 315.695C51.4767 317.126 52.637 318.286 54.0682 318.286H96.2438C97.675 318.286 98.8353 317.126 98.8353 315.695C98.8353 314.263 97.675 313.103 96.2438 313.103Z" stroke="#333333" stroke-width="2" stroke-miterlimit="10"/>
<path d="M65.3308 176.902V177.367C65.3982 180.565 68.4076 181.054 71.0025 181.074L121.168 181.04C123.366 181.04 125.179 179.355 125.182 177.286V177.198C125.142 175.176 123.376 173.528 121.205 173.525C121.205 173.525 93.1401 173.424 71.4036 173.36C71.0126 174.499 70.0219 175.382 68.7851 176.103C67.7212 176.661 66.5315 176.936 65.3308 176.902Z" stroke="#333333" stroke-width="2" stroke-miterlimit="10"/>
<path d="M37.744 131.844C37.7544 132.377 37.9068 132.897 38.1855 133.351L61.4385 172.406C61.7394 172.875 62.1344 173.277 62.5981 173.587C63.0621 173.897 63.5852 174.107 64.1345 174.205C65.0636 174.388 66.0264 174.284 66.8945 173.905C68.32 173.272 69.1423 171.995 69.1153 170.7C69.1103 170.538 69.0934 170.375 69.0648 170.215C68.9933 169.858 68.8609 169.516 68.6739 169.204L45.4209 130.149C44.4099 128.441 41.9363 127.77 39.948 128.65C38.5292 129.27 37.7069 130.547 37.744 131.844Z" stroke="#333333" stroke-width="2" stroke-miterlimit="10"/>
<path d="M100.621 173.525C100.621 173.525 103.422 170.859 109.862 166.626" stroke="#333333" stroke-width="2" stroke-miterlimit="10"/>
<path d="M123.457 129.714L113.249 141.034C112.538 141.823 111.551 142.308 110.493 142.391C109.434 142.473 108.384 142.145 107.56 141.476C107.105 141.106 106.734 140.644 106.47 140.121C106.207 139.597 106.057 139.023 106.032 138.438C106.006 137.852 106.105 137.267 106.322 136.723C106.539 136.178 106.869 135.686 107.291 135.278L109.158 133.472C109.228 133.371 109.309 133.28 109.39 133.185L110.738 131.699L122.331 119.102C123.738 117.556 125.51 116.387 127.485 115.702C129.46 115.016 131.575 114.837 133.637 115.18L133.809 115.21" stroke="#333333" stroke-width="2" stroke-miterlimit="10"/>
<path d="M137.833 132.778H127.622C126.46 132.778 125.346 132.316 124.524 131.494C123.703 130.673 123.241 129.559 123.241 128.397C123.241 127.235 123.703 126.121 124.524 125.299C125.346 124.477 126.46 124.016 127.622 124.016H142.113" stroke="#333333" stroke-width="2" stroke-miterlimit="10"/>
<path d="M130.005 132.778C129.863 134.567 129.179 135.892 128.171 136.822C125.576 139.181 120.818 138.921 117.509 137.3" stroke="#333333" stroke-width="2" stroke-miterlimit="10"/>
<path d="M110.755 131.693C107.82 128.158 108.423 123.352 110.705 119.635C120.124 104.254 138.079 113.727 149.884 120.356C156.912 124.321 163.629 128.811 169.979 133.789C175.601 138.17 180.804 143.414 187.557 146.049C191.601 147.63 196.377 148.007 200.4 146.184" stroke="#333333" stroke-width="2" stroke-miterlimit="10"/>
<path d="M128.171 136.795C135.294 142.053 142.096 147.733 148.539 153.804" stroke="#333333" stroke-width="2" stroke-miterlimit="10"/>
<path d="M214.841 54.1147C216.546 55.6716 219.165 55.7559 221.331 55.5469C224.102 55.2942 226.845 54.6235 229.558 54.0574L231.206 53.9731H231.229C231.545 53.9765 231.857 54.0415 232.148 54.1655C232.439 54.2892 232.702 54.4692 232.924 54.6946C233.145 54.9204 233.32 55.1873 233.437 55.4805C233.556 55.7737 233.615 56.0871 233.612 56.4029C233.649 59.9596 233.295 63.5095 232.554 66.9881L235.711 68.6967C236.119 67.5576 235.661 65.9164 236.628 65.7917C237.248 64.6358 238.171 63.8843 239.62 64.7436C242.458 66.4286 243.577 71.3792 240.844 73.6472L242.596 76.9228C243.207 78.0713 244.198 78.9718 245.398 79.4709C246.599 79.97 247.937 80.0367 249.181 79.6593L247.392 75.7029C251.591 76.4476 254.529 71.2073 253.249 68.0092C252.376 65.8119 252.42 64.1033 253.586 61.9668C253.663 61.8219 252.871 61.6298 252.939 61.4815C252.979 59.9144 252.544 58.2362 251.79 57.4375C250.462 56.0086 247.789 55.7525 248.335 53.5822C248.578 52.6379 248.668 51.6606 248.601 50.6874C248.459 49.4152 248.046 48.1882 247.389 47.0892C246.733 45.9899 245.849 45.044 244.797 44.3147C242.586 42.8622 240.112 44.1799 237.75 44.1428C234.882 44.1125 232.827 41.6794 229.82 41.6423C228.324 41.6187 227.124 42.2017 225.844 42.9263C224.772 43.543 223.717 44.1866 222.693 44.8842C221.668 45.5818 220.759 46.1851 219.535 46.1884C217.941 46.2086 216.401 45.1976 214.797 45.6694C213.986 45.8878 213.273 46.3751 212.775 47.0511C212.266 49.5382 213.186 52.615 214.841 54.1147Z" fill="#D65C5C"/>
<path d="M235.725 68.3268C235.93 67.4489 236.233 66.5966 236.628 65.7858C237.248 64.6299 238.175 63.8784 239.62 64.7378C242.458 66.4228 243.577 71.3733 240.844 73.6413L242.596 76.9169C243.207 78.0651 244.198 78.9659 245.398 79.465C246.599 79.9641 247.937 80.0305 249.181 79.6534" stroke="#333333" stroke-width="2" stroke-linecap="round" stroke-linejoin="round"/>
<path d="M247.392 75.6973L249.174 79.6604C249.623 80.6074 250.907 83.519 252.251 86.5453C253.208 88.7122 254.206 90.9431 254.947 92.5843" stroke="#333333" stroke-width="2" stroke-linecap="round" stroke-linejoin="round"/>
<path d="M218.514 61.4656C218.514 61.4656 223.768 60.1581 226.063 64.1414" stroke="#333333" stroke-width="2" stroke-miterlimit="10"/>
<path d="M220.061 73.3585C218.646 73.7461 216.742 74.0932 215.65 72.8598L218.029 67.852C218.606 66.6239 218.749 65.2358 218.433 63.9158C217.914 61.695 216.617 58.3216 218.009 55.3931" stroke="#333333" stroke-width="2" stroke-miterlimit="10"/>
<path d="M223.596 66.6466C223.995 65.9851 223.688 65.0688 222.91 64.6C222.132 64.1313 221.178 64.2873 220.78 64.9488C220.38 65.6104 220.688 66.5267 221.466 66.9954C222.244 67.4645 223.197 67.3082 223.596 66.6466Z" fill="#333333"/>
<path d="M231.263 98.1751L230.016 84.3379" stroke="#333333" stroke-width="2" stroke-miterlimit="10"/>
<path d="M235.711 68.6899C235.711 68.5686 235.711 68.4439 235.711 68.3226C235.718 68.1925 235.718 68.0621 235.711 67.9316" stroke="#333333" stroke-width="2" stroke-linecap="round" stroke-linejoin="round"/>
<path d="M235.715 68.6944L234.629 68.1114L232.554 66.9824" stroke="#333333" stroke-width="2" stroke-linecap="round" stroke-linejoin="round"/>
<path d="M227.027 73.7144C227.027 73.7144 226.922 77.2192 222.915 78.6615" stroke="#333333" stroke-width="2" stroke-miterlimit="10"/>
<path d="M247.392 75.6969C251.591 76.4417 254.529 71.2014 253.249 68.0032C252.376 65.806 252.42 64.0974 253.586 61.9608C253.663 61.8159 253.727 61.6744 253.795 61.5328C254.661 59.622 254.354 57.7281 252.993 56.1037C251.702 54.567 249.757 54.0278 250.317 51.7868C250.568 50.8139 250.662 49.8069 250.593 48.8043C250.448 47.4958 250.024 46.2337 249.349 45.1031C248.675 43.9724 247.766 42.9995 246.684 42.2497C244.413 40.7433 241.855 42.1081 239.408 42.0711C236.463 42.0273 234.336 39.52 231.246 39.4829C229.699 39.4829 228.452 40.0592 227.138 40.8073C226.033 41.4442 224.937 42.1149 223.893 42.8293C222.848 43.5438 221.871 44.1773 220.631 44.1773C218.986 44.1773 217.399 43.1663 215.754 43.6381C214.11 44.1099 213.132 45.4714 212.809 47.0486C212.283 49.5221 213.203 52.6124 214.858 54.1256C216.563 55.6825 219.181 55.7668 221.348 55.5578C224.118 55.3051 226.862 54.6344 229.574 54.0683L231.222 53.984H231.246C231.562 53.9871 231.874 54.0524 232.165 54.1761C232.456 54.3001 232.719 54.4797 232.94 54.7055C233.162 54.931 233.336 55.1982 233.455 55.4911C233.573 55.7843 233.632 56.0977 233.629 56.4138C233.666 59.9705 233.311 63.5201 232.57 66.999" stroke="#333333" stroke-width="2" stroke-miterlimit="10"/>
<path d="M236.348 79.5321C236.348 79.5321 230.087 87.8492 224.523 85.9856C218.959 84.122 218.676 73.8267 218.676 73.8267" stroke="#333333" stroke-width="2" stroke-linecap="round" stroke-linejoin="round"/>
<path d="M71.1643 312.523V190.316H78.6423V312.573" stroke="#333333" stroke-width="2" stroke-miterlimit="10"/>
<path d="M78.0458 119.207C84.7127 119.207 90.1172 113.802 90.1172 107.135C90.1172 100.468 84.7127 95.064 78.0458 95.064C71.379 95.064 65.9745 100.468 65.9745 107.135C65.9745 113.802 71.379 119.207 78.0458 119.207Z" fill="#D65C5C"/>
<path d="M73.3244 110.25C72.9713 110.008 72.6579 109.714 72.3943 109.377C71.9283 108.8 71.69 108.072 71.724 107.332C71.7581 106.591 72.0627 105.888 72.5797 105.356C72.917 105.009 73.3302 104.745 73.7868 104.584C74.2434 104.423 74.7311 104.37 75.2116 104.43C75.1051 103.761 75.2191 103.076 75.5365 102.478C75.8536 101.881 76.3571 101.402 76.9701 101.116C77.5834 100.829 78.2733 100.75 78.9352 100.89C79.5974 101.03 80.1962 101.382 80.6407 101.892C81.5809 102.957 82.0224 104.541 82.1875 105.936C82.2728 106.664 82.2843 107.4 82.2212 108.13C82.1909 108.497 82.0595 110.617 81.7157 110.752C79.4444 111.621 75.5722 111.81 73.3244 110.25Z" fill="white"/>
<path d="M163.216 116.359C166.789 116.359 169.686 113.462 169.686 109.888C169.686 106.315 166.789 103.418 163.216 103.418C159.642 103.418 156.745 106.315 156.745 109.888C156.745 113.462 159.642 116.359 163.216 116.359Z" fill="#D65C5C"/>
<path d="M162.771 106.89C162.968 106.771 163.183 106.686 163.408 106.637C163.794 106.544 164.202 106.596 164.553 106.782C164.904 106.968 165.175 107.276 165.315 107.648C165.407 107.891 165.44 108.152 165.414 108.411C165.388 108.669 165.302 108.918 165.164 109.138C165.504 109.246 165.802 109.46 166.013 109.749C166.224 110.037 166.338 110.385 166.338 110.743C166.338 111.101 166.224 111.449 166.013 111.738C165.802 112.027 165.504 112.241 165.164 112.349C164.392 112.518 163.588 112.459 162.849 112.181C162.476 112.055 162.117 111.893 161.777 111.695C161.605 111.598 160.604 111.052 160.621 110.853C160.719 109.545 161.511 107.624 162.771 106.89Z" fill="white"/>
<path d="M113.047 102.508C113.772 103.113 114.581 103.609 115.449 103.981C117.048 104.648 118.793 104.889 120.513 104.679C122.232 104.469 123.868 103.817 125.26 102.784C126.338 101.962 127.282 100.826 128.397 100.001C129.175 99.3911 130.11 99.0126 131.093 98.9088C131.42 98.9183 131.744 98.8499 132.04 98.71C132.788 98.245 131.905 97.4732 131.828 96.9273C131.724 96.0541 131.943 95.1732 132.444 94.4503C133.724 92.5416 134.305 90.2486 134.087 87.9604C133.869 85.6725 132.867 83.5302 131.249 81.8971C129.632 80.264 127.5 79.2405 125.214 79.0002C122.928 78.7603 120.629 79.3184 118.708 80.5794C116.811 81.8229 115.402 83.6663 113.973 85.4288C112.713 86.9824 111.395 88.5124 110.472 90.2884C108.302 94.4638 109.569 99.6064 113.047 102.508Z" fill="#D65C5C"/>
<path d="M125.917 88.7456C127.11 88.7456 128.077 87.7784 128.077 86.5855C128.077 85.3921 127.11 84.4253 125.917 84.4253C124.724 84.4253 123.756 85.3921 123.756 86.5855C123.756 87.7784 124.724 88.7456 125.917 88.7456Z" fill="white"/>
<path d="M121.738 93.8545C122.931 93.8545 123.898 92.8873 123.898 91.6944C123.898 90.5014 122.931 89.5342 121.738 89.5342C120.545 89.5342 119.578 90.5014 119.578 91.6944C119.578 92.8873 120.545 93.8545 121.738 93.8545Z" fill="white"/>
<path d="M117.818 98.6499C119.011 98.6499 119.979 97.6827 119.979 96.4898C119.979 95.2968 119.011 94.3296 117.818 94.3296C116.626 94.3296 115.658 95.2968 115.658 96.4898C115.658 97.6827 116.626 98.6499 117.818 98.6499Z" fill="white"/>
<g opacity="0.46">
<path opacity="0.46" d="M180.295 76.2598C180.126 77.106 179.771 77.9033 179.254 78.5945C178.737 79.2854 178.073 79.8522 177.309 80.2532L159.293 89.824C158.614 90.1866 157.869 90.4114 157.103 90.4859C156.336 90.56 155.563 90.4822 154.826 90.2567C154.09 90.0313 153.405 89.6629 152.812 89.1723C152.218 88.6816 151.727 88.0784 151.367 87.3976L137.007 60.3601C136.28 58.9889 136.126 57.3851 136.581 55.9006C137.035 54.4164 138.06 53.1729 139.43 52.444L157.46 42.8766C160.173 41.4342 163.917 42.5395 165.373 45.2996L179.736 72.327C180.382 73.5304 180.58 74.9239 180.295 76.2598Z" fill="#D65C5C"/>
</g>
<path d="M174.947 74.2109L157.379 67.5148C157.155 67.4278 156.97 67.264 156.855 67.0531C156.741 66.8418 156.706 66.5968 156.756 66.3622L160.83 47.6216C160.876 47.4221 160.982 47.2415 161.133 47.1037C161.284 46.9655 161.473 46.8765 161.676 46.8486C161.878 46.8203 162.085 46.8543 162.268 46.946C162.451 47.0376 162.602 47.1829 162.7 47.3622L176.194 72.7922C176.289 72.9731 176.327 73.179 176.303 73.3823C176.279 73.5855 176.194 73.7769 176.059 73.9306C175.923 74.0842 175.745 74.1934 175.546 74.2436C175.348 74.2935 175.139 74.282 174.947 74.2109Z" fill="white"/>
<g opacity="0.46">
<path opacity="0.46" d="M201.189 95.0737C201.558 95.338 201.862 95.6817 202.08 96.0797C202.298 96.4774 202.425 96.9192 202.449 97.3721L203.123 108.085C203.149 108.49 203.094 108.895 202.963 109.278C202.832 109.662 202.626 110.015 202.358 110.319C202.089 110.623 201.764 110.87 201.4 111.048C201.035 111.225 200.64 111.33 200.235 111.354L184.157 112.345C183.342 112.394 182.541 112.118 181.93 111.577C181.318 111.036 180.946 110.275 180.895 109.46L180.238 98.7403C180.209 97.9308 180.491 97.1412 181.028 96.5343C181.564 95.9274 182.312 95.5493 183.119 95.4781L199.194 94.4671C199.91 94.427 200.617 94.642 201.189 95.0737Z" fill="#D65C5C"/>
</g>
<path d="M199.052 97.1904L192.016 104.156C191.927 104.241 191.81 104.292 191.687 104.3C191.565 104.309 191.442 104.275 191.342 104.203L183.254 98.1711C183.168 98.1061 183.103 98.0161 183.07 97.9133C183.036 97.8105 183.035 97.6996 183.066 97.5962C183.097 97.4927 183.16 97.4014 183.244 97.334C183.329 97.2669 183.432 97.2275 183.54 97.2208L198.665 96.2873C198.771 96.2846 198.875 96.3136 198.964 96.3709C199.053 96.4278 199.123 96.5104 199.165 96.6078C199.206 96.7048 199.218 96.8123 199.198 96.9165C199.178 97.0203 199.127 97.1156 199.052 97.1904Z" fill="white"/>
<g opacity="0.46">
<path opacity="0.46" d="M92.001 153.945C90.9459 154.118 89.8789 154.209 88.8096 154.214C78.5716 154.214 78.9153 144.721 78.9153 144.721L87.3976 146.554C87.0771 145.769 86.9544 144.917 87.0404 144.073C87.126 143.229 87.4178 142.42 87.8896 141.715C89.8307 138.877 94.3398 140.337 94.3398 140.337L97.1436 138.53L96.537 141.9L100.295 141.267L98.3636 143.501C100.958 145.995 104.264 153.587 96.291 157.534C88.3176 161.48 84.8768 156.752 84.8768 156.752L88.8096 154.218L92.001 153.945Z" fill="#D65C5C"/>
</g>
<path d="M91.8325 144.66C92.5099 144.66 93.0592 144.111 93.0592 143.434C93.0592 142.756 92.5099 142.207 91.8325 142.207C91.1551 142.207 90.6058 142.756 90.6058 143.434C90.6058 144.111 91.1551 144.66 91.8325 144.66Z" fill="white"/>
<path d="M113.215 318.225H253.498" stroke="#333333" stroke-width="2" stroke-miterlimit="10"/>
</svg>
