<svg width="16" height="16" viewBox="0 0 16 16" fill="none" xmlns="http://www.w3.org/2000/svg">
<path d="M3.52671 10.5264C3.58868 10.5889 3.66242 10.6385 3.74366 10.6724C3.8249 10.7062 3.91203 10.7236 4.00004 10.7236C4.08805 10.7236 4.17519 10.7062 4.25643 10.6724C4.33767 10.6385 4.4114 10.5889 4.47337 10.5264L7.52671 7.4731C7.58868 7.41062 7.66242 7.36102 7.74366 7.32717C7.8249 7.29333 7.91203 7.2759 8.00004 7.2759C8.08805 7.2759 8.17519 7.29333 8.25643 7.32717C8.33767 7.36102 8.4114 7.41062 8.47337 7.4731L11.5267 10.5264C11.5887 10.5889 11.6624 10.6385 11.7437 10.6724C11.8249 10.7062 11.912 10.7236 12 10.7236C12.088 10.7236 12.1752 10.7062 12.2564 10.6724C12.3377 10.6385 12.4114 10.5889 12.4734 10.5264C12.5975 10.4015 12.6672 10.2326 12.6672 10.0564C12.6672 9.88031 12.5975 9.71134 12.4734 9.58643L9.41337 6.52643C9.03837 6.1519 8.53004 5.94153 8.00004 5.94153C7.47004 5.94153 6.96171 6.1519 6.58671 6.52643L3.52671 9.58643C3.40254 9.71134 3.33285 9.88031 3.33285 10.0564C3.33285 10.2326 3.40254 10.4015 3.52671 10.5264Z" fill="#666666"/>
</svg>
