<svg width="56" height="56" viewBox="0 0 56 56" fill="none" xmlns="http://www.w3.org/2000/svg">
<rect width="56" height="56" rx="8" fill="#E6E6E6"/>
<g clip-path="url(#clip0_2212_3813)">
<path d="M33 30C33 30.2652 32.8946 30.5196 32.7071 30.7071C32.5196 30.8947 32.2652 31 32 31H24C23.7348 31 23.4804 30.8947 23.2929 30.7071C23.1054 30.5196 23 30.2652 23 30C23 29.7348 23.1054 29.4805 23.2929 29.2929C23.4804 29.1054 23.7348 29 24 29H32C32.2652 29 32.5196 29.1054 32.7071 29.2929C32.8946 29.4805 33 29.7348 33 30ZM29 33H24C23.7348 33 23.4804 33.1054 23.2929 33.2929C23.1054 33.4805 23 33.7348 23 34C23 34.2652 23.1054 34.5196 23.2929 34.7071C23.4804 34.8947 23.7348 35 24 35H29C29.2652 35 29.5196 34.8947 29.7071 34.7071C29.8946 34.5196 30 34.2652 30 34C30 33.7348 29.8946 33.4805 29.7071 33.2929C29.5196 33.1054 29.2652 33 29 33ZM38 26.485V35C37.9984 36.3256 37.4711 37.5965 36.5338 38.5338C35.5964 39.4711 34.3256 39.9984 33 40H23C21.6744 39.9984 20.4036 39.4711 19.4662 38.5338C18.5289 37.5965 18.0016 36.3256 18 35V21C18.0016 19.6744 18.5289 18.4036 19.4662 17.4662C20.4036 16.5289 21.6744 16.0016 23 16H27.515C28.4346 15.9977 29.3456 16.1776 30.1952 16.5295C31.0449 16.8814 31.8163 17.3982 32.465 18.05L35.949 21.536C36.6012 22.1843 37.1184 22.9555 37.4704 23.805C37.8225 24.6545 38.0025 25.5654 38 26.485ZM31.051 19.464C30.7363 19.1592 30.3829 18.8969 30 18.684V23C30 23.2652 30.1054 23.5196 30.2929 23.7071C30.4804 23.8947 30.7348 24 31 24H35.316C35.103 23.6172 34.8404 23.2642 34.535 22.95L31.051 19.464ZM36 26.485C36 26.32 35.968 26.162 35.953 26H31C30.2044 26 29.4413 25.684 28.8787 25.1213C28.3161 24.5587 28 23.7957 28 23V18.047C27.838 18.032 27.679 18 27.515 18H23C22.2044 18 21.4413 18.3161 20.8787 18.8787C20.3161 19.4413 20 20.2044 20 21V35C20 35.7957 20.3161 36.5587 20.8787 37.1213C21.4413 37.684 22.2044 38 23 38H33C33.7956 38 34.5587 37.684 35.1213 37.1213C35.6839 36.5587 36 35.7957 36 35V26.485Z" fill="#808080"/>
</g>
<defs>
<clipPath id="clip0_2212_3813">
<rect width="24" height="24" fill="white" transform="translate(16 16)"/>
</clipPath>
</defs>
</svg>
