<svg width="24" height="24" viewBox="0 0 24 24" fill="none" xmlns="http://www.w3.org/2000/svg">
<g clip-path="url(#clip0_2090_8661)">
<path d="M23.493 11.016C23.2564 10.6952 22.9474 10.4347 22.5912 10.2557C22.235 10.0767 21.8416 9.98433 21.443 9.986H21V7.999C21 5.242 18.757 2.999 16 2.999H10.944C10.79 2.999 10.634 2.962 10.497 2.894L7.342 1.316C6.92508 1.10843 6.46574 1.00027 6 1H4C2.93955 1.00079 1.92275 1.42234 1.1728 2.1721C0.422859 2.92185 0.00105936 3.93855 0 4.999L0 17.999C0 20.756 2.243 22.999 5 22.999H17.558C19.784 22.999 21.708 21.567 22.36 19.392L23.892 13.276C24.0081 12.8945 24.0325 12.4911 23.9634 12.0984C23.8942 11.7057 23.7324 11.3349 23.493 11.016ZM2 17.999V4.999C2 3.896 2.897 2.999 4 2.999H6C6.154 2.999 6.31 3.036 6.447 3.104L9.602 4.682C10.016 4.889 10.48 4.998 10.944 4.998H16C17.654 4.998 19 6.344 19 7.998V9.985H8.615C7.77884 9.98738 6.96429 10.2508 6.28503 10.7384C5.60577 11.226 5.09569 11.9135 4.826 12.705L2.636 19.843C2.22341 19.3166 1.99945 18.6679 2 17.999ZM21.964 12.746L20.432 18.861C20.2492 19.4806 19.8701 20.024 19.3518 20.4096C18.8335 20.7952 18.204 21.002 17.558 20.999H5C4.792 20.999 4.589 20.978 4.393 20.937L6.727 13.328C6.86373 12.936 7.11902 12.5962 7.45748 12.3557C7.79595 12.1153 8.20082 11.9861 8.616 11.986H21.444C21.686 11.986 21.827 12.126 21.889 12.21C21.951 12.294 22.045 12.469 21.964 12.746Z" fill="#E6E6E6"/>
</g>
<defs>
<clipPath id="clip0_2090_8661">
<rect width="24" height="24" fill="white"/>
</clipPath>
</defs>
</svg>
