<svg width="24" height="24" viewBox="0 0 24 24" fill="none" xmlns="http://www.w3.org/2000/svg">
<g clip-path="url(#clip0_1908_8455)">
<path d="M18.813 10C18.9655 10.0001 19.1159 9.96524 19.2529 9.89821C19.3898 9.83119 19.5096 9.73374 19.6031 9.61331C19.6966 9.49289 19.7613 9.35268 19.7923 9.2034C19.8233 9.05412 19.8198 8.89973 19.782 8.75203C19.4706 7.53469 18.8375 6.42353 17.949 5.53503L14.464 2.05003C13.8155 1.39799 13.044 0.881062 12.1944 0.529178C11.3447 0.177294 10.4337 -0.00256016 9.514 2.7531e-05H4.999C3.6735 0.00161589 2.40275 0.528942 1.46557 1.46631C0.528395 2.40368 0.00132323 3.67452 0 5.00003L0 19C0 21.757 2.243 24 5 24H8C8.26522 24 8.51957 23.8947 8.70711 23.7071C8.89464 23.5196 9 23.2652 9 23C9 22.7348 8.89464 22.4805 8.70711 22.2929C8.51957 22.1054 8.26522 22 8 22H5C3.346 22 2 20.654 2 19V5.00003C2 3.34603 3.346 2.00003 5 2.00003H9.515C9.678 2.00003 9.84 2.00803 10 2.02303V7.00003C10 8.65403 11.346 10 13 10H18.813ZM12 7.00003V2.65903C12.379 2.87703 12.732 3.14703 13.05 3.46503L16.535 6.95003C16.849 7.26403 17.118 7.61803 17.338 8.00003H13C12.449 8.00003 12 7.55103 12 7.00003ZM23.122 11.879C21.988 10.745 20.012 10.745 18.879 11.879L12.172 18.586C11.7994 18.9567 11.5039 19.3976 11.3027 19.8832C11.1016 20.3688 10.9987 20.8894 11 21.415V23.001C11 23.2662 11.1054 23.5206 11.2929 23.7081C11.4804 23.8957 11.7348 24.001 12 24.001H13.586C14.1115 24.0024 14.632 23.8995 15.1174 23.6983C15.6028 23.4972 16.0435 23.2017 16.414 22.829L23.121 16.122C23.688 15.555 24 14.802 24 14C24 13.198 23.688 12.445 23.122 11.879ZM21.707 14.707L14.999 21.414C14.8139 21.6005 14.5936 21.7484 14.3508 21.849C14.1081 21.9496 13.8478 22.0009 13.585 22H12.999V21.414C12.999 20.88 13.207 20.378 13.585 20L20.293 13.293C20.4834 13.111 20.7366 13.0094 21 13.0094C21.2634 13.0094 21.5166 13.111 21.707 13.293C21.896 13.481 22 13.732 22 14C22 14.268 21.896 14.518 21.707 14.707Z" fill="#FFFFFF"/>
</g>
<defs>
<clipPath id="clip0_1908_8455">
<rect width="24" height="24" fill="white"/>
</clipPath>
</defs>
</svg>
