<svg width="24" height="24" viewBox="0 0 24 24" fill="none" xmlns="http://www.w3.org/2000/svg">
<g clip-path="url(#clip0_2090_8610)">
<path d="M23.892 14.29L22.36 20.406C22.0515 21.441 21.4182 22.3493 20.5536 22.9966C19.689 23.6438 18.639 23.9956 17.559 24H5C2.243 24 0 21.77 0 19.013V8.013C0 6.595 0.762 5.271 1.988 4.556C2.21715 4.42246 2.48996 4.38542 2.74641 4.45303C3.00287 4.52064 3.22196 4.68735 3.3555 4.9165C3.48904 5.14565 3.52608 5.41846 3.45847 5.67491C3.39086 5.93137 3.22415 6.15046 2.995 6.284C2.69281 6.46045 2.44201 6.71283 2.26747 7.01613C2.09294 7.31942 2.00073 7.66307 2 8.013V19.013C2 19.708 2.238 20.349 2.636 20.858L4.826 13.72C4.874 13.581 4.938 13.453 5 13.322V6C5 3.794 6.794 2 9 2H9.556C10.25 0.81 11.526 0 13 0H18C20.206 0 22 1.794 22 4V11.064C22.593 11.194 23.12 11.528 23.494 12.03C23.845 12.501 24 13.029 24 13.628C24 13.849 23.957 14.071 23.892 14.289V14.29ZM11 4V11H20V4C20 2.897 19.103 2 18 2H13C11.897 2 11 2.897 11 4ZM7 6V11.353C7.50747 11.1229 8.05781 11.0026 8.615 11H9V4C7.897 4 7 4.897 7 6ZM21.889 13.224C21.8378 13.154 21.7706 13.0971 21.693 13.0582C21.6155 13.0192 21.5298 12.9993 21.443 13H8.615C7.765 13 7.006 13.539 6.726 14.342L4.392 21.951C4.588 21.991 4.791 22.013 4.999 22.013H17.557C18.2013 22.0103 18.8278 21.8013 19.3448 21.4168C19.8618 21.0322 20.2421 20.4923 20.43 19.876L21.962 13.76C22.044 13.484 21.951 13.308 21.889 13.224Z" fill="#666666"/>
</g>
<defs>
<clipPath id="clip0_2090_8610">
<rect width="24" height="24" fill="white"/>
</clipPath>
</defs>
</svg>
