<svg width="24" height="24" viewBox="0 0 24 24" fill="none" xmlns="http://www.w3.org/2000/svg">
<path d="M18.6667 18.6667C18.6667 20.5076 17.1743 22 15.3333 22H6C3.79086 22 2 20.2091 2 18V8.66667C2 6.82572 3.49238 5.33333 5.33333 5.33333M16.1667 2H9.33333C7.12419 2 5.33333 3.79086 5.33333 6V14.6667C5.33333 16.8758 7.12419 18.6667 9.33333 18.6667H18C20.2091 18.6667 22 16.8758 22 14.6667V7.83333M16.1667 2V5.83333C16.1667 6.9379 17.0621 7.83333 18.1667 7.83333H22M16.1667 2H17.0049C17.5353 2 18.044 2.21071 18.4191 2.58579L19.9167 4.08333L21.4142 5.58088C21.7893 5.95595 22 6.46466 22 6.99509V7.83333" stroke="#4D4D4D" stroke-width="2" stroke-linecap="round"/>
</svg>
