<svg width="24" height="24" viewBox="0 0 24 24" fill="none" xmlns="http://www.w3.org/2000/svg">
<g clip-path="url(#clip0_1979_8509)">
<path d="M22.853 1.14795C22.1732 0.469151 21.2517 0.0878906 20.291 0.0878906C19.3303 0.0878906 18.4089 0.469151 17.729 1.14795L1.46502 17.412C0.999266 17.8751 0.629977 18.426 0.378513 19.0327C0.127049 19.6395 -0.00159798 20.2901 1.49812e-05 20.947V23C1.49812e-05 23.2652 0.105372 23.5195 0.292908 23.7071C0.480445 23.8946 0.734799 24 1.00002 24H3.05301C3.70978 24.0018 4.36038 23.8734 4.96717 23.6221C5.57396 23.3708 6.12487 23.0016 6.58801 22.536L22.853 6.27095C23.5315 5.59115 23.9126 4.66992 23.9126 3.70945C23.9126 2.74899 23.5315 1.82776 22.853 1.14795ZM5.17401 21.122C4.61002 21.6822 3.84798 21.9977 3.05301 22H2.00002V20.947C1.999 20.5529 2.07617 20.1625 2.22705 19.7984C2.37793 19.4343 2.59953 19.1038 2.87901 18.826L15.222 6.48295L17.522 8.78295L5.17401 21.122ZM21.438 4.85695L18.932 7.36395L16.632 5.06895L19.139 2.56195C19.444 2.25762 19.8574 2.08691 20.2883 2.08738C20.7191 2.08784 21.1322 2.25945 21.4365 2.56445C21.7409 2.86945 21.9116 3.28286 21.9111 3.71372C21.9106 4.14459 21.739 4.55762 21.434 4.86195L21.438 4.85695Z" fill="#4D4D4D"/>
</g>
<defs>
<clipPath id="clip0_1979_8509">
<rect width="24" height="24" fill="white"/>
</clipPath>
</defs>
</svg>
