<svg width="24" height="24" viewBox="0 0 24 24" fill="none" xmlns="http://www.w3.org/2000/svg">
<path d="M18.66 20.9C18.5621 20.8121 18.4477 20.7446 18.3234 20.7014C18.1991 20.6583 18.0674 20.6404 17.9361 20.6488C17.8048 20.6572 17.6765 20.6917 17.5587 20.7503C17.4408 20.8088 17.3359 20.8904 17.25 20.99C16.68 21.64 15.86 22.01 15 22.01H5C3.35 22.01 2 20.66 2 19.01V5.00002C2 3.35002 3.35 2.00002 5 2.00002H9.51C9.67 2.00002 9.84 2.00002 10 2.02002V7.00002C10 8.65002 11.35 10 13 10H18.81C19.12 10 19.41 9.86002 19.6 9.61002C19.79 9.36002 19.85 9.05002 19.78 8.75002C19.4712 7.53143 18.8389 6.41889 17.95 5.53002L14.47 2.05002C13.8213 1.39825 13.0498 0.8815 12.2002 0.529635C11.3505 0.177769 10.4396 -0.00223569 9.52 2.09578e-05H5C2.24 2.09578e-05 0 2.24002 0 5.00002V19C0 21.76 2.24 24 5 24H15C16.43 24 17.8 23.38 18.75 22.31C18.8379 22.2121 18.9054 22.0977 18.9486 21.9734C18.9917 21.8491 19.0096 21.7174 19.0012 21.5861C18.9929 21.4548 18.9584 21.3265 18.8998 21.2087C18.8412 21.0909 18.7597 20.9859 18.66 20.9ZM12 2.66002C12.38 2.88002 12.73 3.15002 13.05 3.47002L16.53 6.95002C16.84 7.26002 17.11 7.62002 17.33 8.00002H12.99C12.44 8.00002 11.99 7.55002 11.99 7.00002V2.66002H12ZM13.8423 13.908L15.4523 12.298C15.6523 12.098 15.9023 12.008 16.1623 12.008C16.4223 12.008 16.6723 12.108 16.8723 12.298C16.965 12.3905 17.0386 12.5004 17.0888 12.6214C17.139 12.7423 17.1648 12.872 17.1648 13.003C17.1648 13.134 17.139 13.2637 17.0888 13.3846C17.0386 13.5056 16.965 13.6155 16.8723 13.708L15.5823 14.998H22.9823C23.5323 14.998 23.9823 15.448 23.9823 15.998C23.9823 16.548 23.5323 16.998 22.9823 16.998L15.5823 16.998L16.8723 18.288C16.9649 18.3806 17.0384 18.4905 17.0885 18.6115C17.1386 18.7324 17.1644 18.8621 17.1644 18.993C17.1644 19.1239 17.1386 19.2536 17.0885 19.3745C17.0384 19.4955 16.9649 19.6054 16.8723 19.698C16.7798 19.7906 16.6698 19.864 16.5489 19.9141C16.4279 19.9642 16.2983 19.99 16.1673 19.99C16.0364 19.99 15.9068 19.9642 15.7858 19.9141C15.6648 19.864 15.5549 19.7906 15.4623 19.698L13.8523 18.088C13.2999 17.5307 12.99 16.7777 12.99 15.993C12.99 15.2083 13.2999 14.4553 13.8523 13.898L13.8423 13.908Z" fill="#666666"/>
</svg>
