<svg width="24" height="24" viewBox="0 0 24 24" fill="none" xmlns="http://www.w3.org/2000/svg">
<path d="M12 24C14.3734 24 16.6934 23.2962 18.6668 21.9776C20.6402 20.6591 22.1783 18.7849 23.0865 16.5922C23.9948 14.3995 24.2324 11.9867 23.7694 9.65891C23.3064 7.33114 22.1635 5.19295 20.4853 3.51472C18.807 1.83649 16.6688 0.693598 14.3411 0.230576C12.0133 -0.232449 9.60051 0.0051918 7.40779 0.913445C5.21508 1.8217 3.34094 3.35976 2.02236 5.33315C0.703783 7.30655 -5.72205e-06 9.62662 -5.72205e-06 12C0.00343513 15.1815 1.26882 18.2318 3.51851 20.4815C5.7682 22.7312 8.81845 23.9966 12 24ZM12 2C13.9778 2 15.9112 2.58649 17.5557 3.6853C19.2002 4.78412 20.4819 6.3459 21.2388 8.17316C21.9957 10.0004 22.1937 12.0111 21.8078 13.9509C21.422 15.8907 20.4696 17.6725 19.0711 19.0711C17.6725 20.4696 15.8907 21.422 13.9509 21.8079C12.0111 22.1937 10.0004 21.9957 8.17316 21.2388C6.3459 20.4819 4.78411 19.2002 3.6853 17.5557C2.58648 15.9112 1.99999 13.9778 1.99999 12C2.00291 9.34873 3.05741 6.80688 4.93214 4.93215C6.80688 3.05741 9.34872 2.00291 12 2Z" fill="#33A84F"/>
<path d="M12 2C13.9778 2 15.9112 2.58649 17.5557 3.6853C19.2002 4.78412 20.4819 6.3459 21.2388 8.17316C21.9957 10.0004 22.1937 12.0111 21.8078 13.9509C21.422 15.8907 20.4696 17.6725 19.0711 19.0711C17.6725 20.4696 15.8907 21.422 13.9509 21.8079C12.0111 22.1937 10.0004 21.9957 8.17316 21.2388C6.3459 20.4819 4.78411 19.2002 3.6853 17.5557C2.58648 15.9112 1.99999 13.9778 1.99999 12C2.00291 9.34873 3.05741 6.80688 4.93214 4.93215C6.80688 3.05741 9.34872 2.00291 12 2Z" fill="#33A84F"/>
<path d="M17.1447 8.14352L10.2358 14.8822C10.1893 14.9277 10.1341 14.9638 10.0733 14.9884C10.0126 15.0131 9.94738 15.0257 9.88156 15.0257C9.81574 15.0257 9.75056 15.0131 9.68978 14.9884C9.62899 14.9638 9.57379 14.9277 9.52734 14.8822L6.85557 12.2736C6.80912 12.2282 6.75392 12.1921 6.69313 12.1674C6.63235 12.1428 6.56717 12.1301 6.50135 12.1301C6.43553 12.1301 6.37036 12.1428 6.30957 12.1674C6.24878 12.1921 6.19358 12.2282 6.14713 12.2736C6.1005 12.319 6.06349 12.3728 6.03825 12.4321C6.013 12.4914 6 12.555 6 12.6192C6 12.6834 6.013 12.7469 6.03825 12.8062C6.06349 12.8655 6.1005 12.9194 6.14713 12.9647L8.8199 15.5713C9.10185 15.8458 9.48394 16 9.88231 16C10.2807 16 10.6628 15.8458 10.9447 15.5713L17.8531 8.83407C17.8997 8.78877 17.9366 8.73495 17.9618 8.6757C17.987 8.61645 18 8.55294 18 8.48879C18 8.42465 17.987 8.36113 17.9618 8.30188C17.9366 8.24263 17.8997 8.18882 17.8531 8.14352C17.8067 8.09803 17.7515 8.06193 17.6907 8.03731C17.6299 8.01268 17.5647 8 17.4989 8C17.4331 8 17.3679 8.01268 17.3071 8.03731C17.2463 8.06193 17.1911 8.09803 17.1447 8.14352Z" fill="#E6E6E6" stroke="#E6E6E6" stroke-width="0.8"/>
</svg>
