<svg width="24" height="24" viewBox="0 0 24 24" fill="none" xmlns="http://www.w3.org/2000/svg">
<g clip-path="url(#clip0_2213_3818)">
<path d="M23.2711 9.41903C21.7201 6.89303 18.1921 2.65503 12.0001 2.65503C5.80805 2.65503 2.28005 6.89303 0.729051 9.41903C0.249579 10.1945 -0.00439453 11.0883 -0.00439453 12C-0.00439453 12.9118 0.249579 13.8055 0.729051 14.581C2.28005 17.107 5.80805 21.345 12.0001 21.345C18.1921 21.345 21.7201 17.107 23.2711 14.581C23.7505 13.8055 24.0045 12.9118 24.0045 12C24.0045 11.0883 23.7505 10.1945 23.2711 9.41903ZM21.5661 13.534C20.2341 15.7 17.2191 19.345 12.0001 19.345C6.78105 19.345 3.76605 15.7 2.43405 13.534C2.14919 13.0731 1.9983 12.5419 1.9983 12C1.9983 11.4582 2.14919 10.927 2.43405 10.466C3.76605 8.30003 6.78105 4.65503 12.0001 4.65503C17.2191 4.65503 20.2341 8.29603 21.5661 10.466C21.8509 10.927 22.0018 11.4582 22.0018 12C22.0018 12.5419 21.8509 13.0731 21.5661 13.534Z" fill="#808080"/>
<path d="M12.0001 7.00003C11.0111 7.00003 10.0444 7.29327 9.2222 7.84268C8.39995 8.39209 7.75909 9.17298 7.38065 10.0866C7.00222 11.0002 6.9032 12.0056 7.09613 12.9755C7.28905 13.9454 7.76526 14.8363 8.46452 15.5356C9.16378 16.2348 10.0547 16.711 11.0246 16.904C11.9945 17.0969 12.9998 16.9979 13.9135 16.6194C14.8271 16.241 15.608 15.6001 16.1574 14.7779C16.7068 13.9556 17.0001 12.9889 17.0001 12C16.9985 10.6744 16.4712 9.40359 15.5338 8.46625C14.5965 7.52891 13.3256 7.00162 12.0001 7.00003ZM12.0001 15C11.4067 15 10.8267 14.8241 10.3333 14.4944C9.83999 14.1648 9.45548 13.6963 9.22841 13.1481C9.00135 12.5999 8.94194 11.9967 9.0577 11.4148C9.17345 10.8328 9.45917 10.2983 9.87873 9.87871C10.2983 9.45915 10.8328 9.17343 11.4148 9.05767C11.9967 8.94192 12.5999 9.00133 13.1481 9.22839C13.6963 9.45545 14.1648 9.83997 14.4945 10.3333C14.8241 10.8267 15.0001 11.4067 15.0001 12C15.0001 12.7957 14.684 13.5587 14.1214 14.1214C13.5588 14.684 12.7957 15 12.0001 15Z" fill="#808080"/>
</g>
<defs>
<clipPath id="clip0_2213_3818">
<rect width="24" height="24" fill="white"/>
</clipPath>
</defs>
</svg>
