<svg width="24" height="24" viewBox="0 0 24 24" fill="none" xmlns="http://www.w3.org/2000/svg">
<path d="M12 22C10.3934 20.8183 8.53351 20.0652 6.58324 19.8117C5.20004 19.5181 3.79081 19.3794 2.37946 19.398C2.19887 19.3996 2.01976 19.3638 1.85246 19.2928C1.68517 19.2217 1.533 19.1167 1.40475 18.9838C1.27649 18.851 1.17469 18.6929 1.10523 18.5187C1.03576 18.3445 0.999993 18.1577 1 17.9689L1.02497 4.43309C1.02421 4.0699 1.15582 3.72003 1.39306 3.4546C1.63029 3.18916 1.95535 3.02808 2.30216 3.00407C3.73887 2.97423 5.17441 3.1084 6.58324 3.4042C8.5314 3.66683 10.3898 4.41803 12 5.59369M12 22V5.59369M12 22C13.6066 20.8183 15.4665 20.0652 17.4168 19.8117C18.8 19.5181 20.2092 19.3794 21.6205 19.398C21.8011 19.3996 21.9802 19.3638 22.1475 19.2928C22.3148 19.2217 22.467 19.1167 22.5953 18.9838C22.7235 18.851 22.8253 18.6929 22.8948 18.5187C22.9642 18.3445 23 18.1577 23 17.9689L22.9738 4.43309C22.9746 4.0701 22.8432 3.7204 22.6062 3.455C22.3692 3.1896 22.0444 3.02838 21.6978 3.00407C20.2611 2.97423 18.8256 3.1084 17.4168 3.4042C15.4686 3.66683 13.6102 4.41803 12 5.59369M15.5 14.9854C16.5 14 18 13.5 19.5 13.4854M15.5 10.0149C16.5 9.02952 18 8.52952 19.5 8.51493M8.5 14.9854C7.5 13.9105 6 13.3652 4.5 13.3492M8.5 10C7.5 8.92513 6 8.37974 4.5 8.36383" stroke="#4D4D4D" stroke-width="2" stroke-linecap="round" stroke-linejoin="round"/>
</svg>
