<svg width="56" height="56" viewBox="0 0 56 56" fill="none" xmlns="http://www.w3.org/2000/svg">
<rect width="56" height="56" rx="8" fill="#E08585"/>
<path d="M35.9297 10.5264C32.8145 7.44648 28.6327 5.68422 24.2525 5.60312C22.1115 5.56084 19.9829 5.94468 17.9922 6.73379C16.0007 7.5233 14.1856 8.70238 12.6547 10.201L0 22.6054V27.5647C0.258588 27.2752 0.5262 26.9933 0.802546 26.7193L15.1033 12.7016C16.3021 11.5281 17.7234 10.6058 19.2828 9.9877C20.842 9.36965 22.5114 9.06836 24.1883 9.10176C27.6717 9.16625 31.0019 10.575 33.4783 13.0256C35.9399 15.4404 37.3574 18.7231 37.4268 22.1707C37.4585 23.8295 37.1528 25.4775 36.5285 27.0147C35.905 28.5497 34.9767 29.9421 33.7996 31.108L19.507 45.1244C18.9917 45.6307 18.3807 46.0296 17.7092 46.2961C17.0376 46.5626 16.3124 46.6913 15.59 46.6762C14.0907 46.6504 12.6276 46.0317 11.5459 44.9617C10.5448 43.9809 9.94104 42.6689 9.84376 41.2771L9.83145 40.9969C9.81166 39.5451 10.3723 38.1754 11.3832 37.1729L25.6772 23.1578C26.3673 22.4812 26.3784 21.3733 25.7018 20.6832C25.0251 19.9931 23.9173 19.982 23.2272 20.6586L8.92637 34.6791C7.22531 36.3617 6.29565 38.6687 6.33282 41.0707C6.38308 43.4776 7.37258 45.7705 9.09044 47.4568C10.8072 49.1553 13.1266 50.1331 15.5299 50.1762C16.7167 50.2002 17.8964 49.9865 18.9998 49.5486C20.1049 49.1101 21.1115 48.4554 21.9598 47.6223L36.2565 33.6018C37.7731 32.1013 38.9687 30.3079 39.7715 28.3313C40.5743 26.3545 40.9678 24.2341 40.9268 22.101L40.8898 21.2848C40.609 17.2223 38.8501 13.3913 35.9297 10.5264Z" fill="white"/>
<path d="M44.3721 41.5574L30.0781 55.5793C29.9325 55.7219 29.7848 55.8621 29.635 56H34.6472L46.8234 44.0566C47.5134 43.3798 47.5235 42.272 46.8467 41.582C46.1699 40.8923 45.062 40.8808 44.3721 41.5574Z" fill="white"/>
</svg>
