<svg width="24" height="24" viewBox="0 0 24 24" fill="none" xmlns="http://www.w3.org/2000/svg">
<g clip-path="url(#clip0_1979_8497)">
<path d="M12 2.00003C13.3265 2.00438 14.6389 2.27177 15.8614 2.78672C17.0839 3.30167 18.1921 4.05395 19.122 5.00003H16C15.7347 5.00003 15.4804 5.10539 15.2929 5.29293C15.1053 5.48046 15 5.73482 15 6.00003C15 6.26525 15.1053 6.5196 15.2929 6.70714C15.4804 6.89468 15.7347 7.00003 16 7.00003H20.143C20.6354 6.99977 21.1076 6.80404 21.4558 6.45584C21.804 6.10764 21.9997 5.63546 22 5.14303V1.00003C22 0.734815 21.8946 0.480461 21.7071 0.292925C21.5195 0.105389 21.2652 3.18236e-05 21 3.18236e-05C20.7347 3.18236e-05 20.4804 0.105389 20.2929 0.292925C20.1053 0.480461 20 0.734815 20 1.00003V3.07803C18.3471 1.58948 16.3125 0.590442 14.1241 0.192781C11.9356 -0.20488 9.67959 0.0145438 7.60874 0.826479C5.5379 1.63842 3.73397 3.0108 2.39897 4.78996C1.06397 6.56911 0.2506 8.68478 0.0499584 10.9C0.0370417 11.0393 0.0532741 11.1797 0.0976213 11.3123C0.141968 11.445 0.213458 11.5669 0.307535 11.6704C0.401612 11.7739 0.516213 11.8567 0.644037 11.9134C0.77186 11.9702 0.910104 11.9997 1.04996 12C1.29455 12.0032 1.53149 11.9149 1.71442 11.7525C1.89734 11.5901 2.01307 11.3653 2.03896 11.122C2.26157 8.63278 3.40693 6.31673 5.25004 4.62887C7.09315 2.94101 9.50078 2.00332 12 2.00003ZM22.951 12C22.7064 11.9969 22.4694 12.0852 22.2865 12.2476C22.1036 12.41 21.9878 12.6348 21.962 12.878C21.7967 14.7813 21.0889 16.5971 19.9226 18.1102C18.7563 19.6233 17.1805 20.7701 15.3821 21.4146C13.5837 22.059 11.6382 22.1741 9.77631 21.7461C7.91446 21.3182 6.21445 20.3651 4.87796 19H7.99996C8.26518 19 8.51953 18.8947 8.70707 18.7071C8.8946 18.5196 8.99996 18.2653 8.99996 18C8.99996 17.7348 8.8946 17.4805 8.70707 17.2929C8.51953 17.1054 8.26518 17 7.99996 17H3.85696C3.61306 16.9999 3.37152 17.0478 3.14616 17.1411C2.9208 17.2344 2.71603 17.3712 2.54357 17.5436C2.3711 17.7161 2.23432 17.9209 2.14105 18.1462C2.04777 18.3716 1.99983 18.6131 1.99996 18.857V23C1.99996 23.2653 2.10532 23.5196 2.29285 23.7071C2.48039 23.8947 2.73474 24 2.99996 24C3.26518 24 3.51953 23.8947 3.70707 23.7071C3.8946 23.5196 3.99996 23.2653 3.99996 23V20.922C5.65279 22.4106 7.68737 23.4096 9.87586 23.8073C12.0644 24.2049 14.3203 23.9855 16.3912 23.1736C18.462 22.3617 20.2659 20.9893 21.6009 19.2101C22.936 17.431 23.7493 15.3153 23.95 13.1C23.9629 12.9608 23.9466 12.8204 23.9023 12.6877C23.8579 12.5551 23.7865 12.4331 23.6924 12.3296C23.5983 12.2262 23.4837 12.1434 23.3559 12.0867C23.2281 12.0299 23.0908 12.0004 22.951 12Z" fill="#4D4D4D"/>
</g>
<defs>
<clipPath id="clip0_1979_8497">
<rect width="24" height="24" fill="white"/>
</clipPath>
</defs>
</svg>
