<svg width="20" height="20" viewBox="0 0 20 20" fill="none" xmlns="http://www.w3.org/2000/svg">
<g clip-path="url(#clip0_1732_3367)">
<path d="M10.0002 2.7124C14.8992 2.71249 17.707 6.06039 18.966 8.11084L18.967 8.11182C19.3177 8.67896 19.504 9.33273 19.5041 9.99951C19.5041 10.6664 19.3177 11.3209 18.967 11.8882L18.966 11.8892C17.707 13.9396 14.8991 17.2875 10.0002 17.2876C5.10107 17.2876 2.29243 13.9396 1.03342 11.8892L1.03244 11.8882L0.909393 11.6714C0.638777 11.157 0.496307 10.5832 0.496307 9.99951C0.49638 9.33274 0.681803 8.67895 1.03244 8.11182L1.03342 8.11084C2.29243 6.06037 5.10107 2.7124 10.0002 2.7124ZM10.0002 3.37939C5.38792 3.37939 2.7438 6.60339 1.60275 8.4585C1.31662 8.9215 1.16533 9.45524 1.16525 9.99951C1.16525 10.5437 1.31676 11.0775 1.60275 11.5405C2.74361 13.3955 5.38745 16.6206 10.0002 16.6206C14.6132 16.6205 17.256 13.3945 18.3967 11.5396C18.6825 11.0767 18.8352 10.5435 18.8352 9.99951C18.8351 9.45524 18.6828 8.9215 18.3967 8.4585C17.2551 6.59936 14.6117 3.37949 10.0002 3.37939Z" fill="#B3B3B3" stroke="#B3B3B3"/>
<path d="M6.66666 10H13.3333" stroke="#B3B3B3" stroke-width="2" stroke-linecap="round"/>
</g>
<defs>
<clipPath id="clip0_1732_3367">
<rect width="20" height="20" fill="white"/>
</clipPath>
</defs>
</svg>
