<svg width="20" height="20" viewBox="0 0 20 20" fill="none" xmlns="http://www.w3.org/2000/svg">
<g clip-path="url(#clip0_1732_3377)">
<path d="M19.3925 7.84907C18.1 5.74407 15.16 2.2124 10 2.2124C4.84 2.2124 1.9 5.74407 0.607497 7.84907C0.207937 8.49532 -0.00370789 9.2401 -0.00370789 9.9999C-0.00370789 10.7597 0.207937 11.5045 0.607497 12.1507C1.9 14.2557 4.84 17.7874 10 17.7874C15.16 17.7874 18.1 14.2557 19.3925 12.1507C19.7921 11.5045 20.0037 10.7597 20.0037 9.9999C20.0037 9.2401 19.7921 8.49532 19.3925 7.84907ZM17.9717 11.2782C16.8617 13.0832 14.3492 16.1207 10 16.1207C5.65083 16.1207 3.13833 13.0832 2.02833 11.2782C1.79094 10.8941 1.66521 10.4515 1.66521 9.9999C1.66521 9.54834 1.79094 9.1057 2.02833 8.72157C3.13833 6.91657 5.65083 3.87907 10 3.87907C14.3492 3.87907 16.8617 6.91324 17.9717 8.72157C18.2091 9.1057 18.3348 9.54834 18.3348 9.9999C18.3348 10.4515 18.2091 10.8941 17.9717 11.2782Z" fill="#F5D6D6"/>
<path d="M10 5.83324C9.17591 5.83324 8.37033 6.07761 7.68512 6.53545C6.99992 6.99328 6.46586 7.64403 6.1505 8.40539C5.83513 9.16675 5.75262 10.0045 5.91339 10.8128C6.07416 11.621 6.471 12.3635 7.05372 12.9462C7.63644 13.5289 8.37887 13.9257 9.18712 14.0865C9.99537 14.2473 10.8332 14.1648 11.5945 13.8494C12.3559 13.534 13.0066 13 13.4645 12.3148C13.9223 11.6296 14.1667 10.824 14.1667 9.9999C14.1653 8.89524 13.7259 7.8362 12.9448 7.05509C12.1637 6.27397 11.1047 5.83456 10 5.83324ZM10 12.4999C9.50554 12.4999 9.02219 12.3533 8.61107 12.0786C8.19995 11.8039 7.87952 11.4134 7.6903 10.9566C7.50108 10.4998 7.45157 9.99713 7.54803 9.51218C7.6445 9.02723 7.8826 8.58177 8.23223 8.23214C8.58186 7.8825 9.02732 7.6444 9.51227 7.54794C9.99722 7.45148 10.4999 7.50098 10.9567 7.6902C11.4135 7.87942 11.804 8.19985 12.0787 8.61098C12.3534 9.0221 12.5 9.50545 12.5 9.9999C12.5 10.6629 12.2366 11.2988 11.7678 11.7677C11.2989 12.2365 10.663 12.4999 10 12.4999Z" fill="#F5D6D6"/>
</g>
<defs>
<clipPath id="clip0_1732_3377">
<rect width="20" height="20" fill="white"/>
</clipPath>
</defs>
</svg>
