<svg width="20" height="20" viewBox="0 0 20 20" fill="none" xmlns="http://www.w3.org/2000/svg">
<path d="M16.3086 2.65039C16.5848 2.65044 16.8496 2.75982 17.0449 2.95508C17.2402 3.15041 17.3496 3.41522 17.3496 3.69141C17.3496 3.96757 17.2401 4.23238 17.0449 4.42773L11.4727 10L17.0449 15.5723C17.2401 15.7676 17.3496 16.0324 17.3496 16.3086C17.3496 16.5848 17.2402 16.8496 17.0449 17.0449C16.8496 17.2402 16.5848 17.3496 16.3086 17.3496C16.0324 17.3496 15.7676 17.2401 15.5723 17.0449L10 11.4727L4.42773 17.0449C4.23238 17.2401 3.96757 17.3496 3.69141 17.3496C3.41522 17.3496 3.15041 17.2402 2.95508 17.0449C2.75982 16.8496 2.65044 16.5848 2.65039 16.3086C2.65039 16.0324 2.75989 15.7676 2.95508 15.5723L8.52734 10L2.95508 4.42773C2.75989 4.23238 2.65039 3.96757 2.65039 3.69141C2.65044 3.41522 2.75982 3.15041 2.95508 2.95508C3.15041 2.75982 3.41522 2.65044 3.69141 2.65039C3.96757 2.65039 4.23238 2.75989 4.42773 2.95508L10 8.52734L15.5723 2.95508C15.7676 2.75989 16.0324 2.65039 16.3086 2.65039Z" fill="#CCCCCC" stroke="#CCCCCC" stroke-width="0.3"/>
</svg>
