<svg width="24" height="24" viewBox="0 0 24 24" fill="none" xmlns="http://www.w3.org/2000/svg">
<path d="M19.875 15.5254C20.1547 15.5247 20.3839 15.6174 20.5713 15.8047C20.7586 15.992 20.8509 16.2204 20.8496 16.499V18.75C20.8496 19.3287 20.6457 19.8203 20.2334 20.2334C19.8211 20.6464 19.3293 20.8503 18.75 20.8496H5.25C4.67131 20.8496 4.17989 20.6457 3.76758 20.2334C3.35535 19.8211 3.15114 19.3294 3.15039 18.75V16.5C3.15039 16.2193 3.24353 15.9913 3.42969 15.8057C3.61627 15.6197 3.84484 15.5261 4.125 15.5254C4.40473 15.5247 4.63393 15.6174 4.82129 15.8047C5.00859 15.992 5.10087 16.2204 5.09961 16.499V18.9004H18.9004V16.5C18.9004 16.2193 18.9935 15.9913 19.1797 15.8057C19.3663 15.6197 19.5948 15.5261 19.875 15.5254ZM12 3.15039C12.2797 3.14973 12.5089 3.24236 12.6963 3.42969C12.8836 3.61698 12.9759 3.84536 12.9746 4.12402V12.5312L15.3408 10.165C15.5374 9.96863 15.7652 9.87798 16.0322 9.88574C16.3 9.89355 16.5288 9.99261 16.7256 10.1885H16.7266C16.909 10.3875 17.0032 10.6164 17.0117 10.8799C17.019 11.1035 16.9506 11.3019 16.8008 11.4805L16.7314 11.5566L12.6816 15.6064C12.5826 15.7055 12.4788 15.7718 12.3711 15.8105C12.2576 15.8514 12.1346 15.8727 12.001 15.8721C11.8664 15.8714 11.7422 15.8503 11.6279 15.8105H11.6289C11.5212 15.7718 11.4174 15.7055 11.3184 15.6064L7.26855 11.5566C7.07092 11.359 6.9807 11.1357 6.98828 10.8799C6.99519 10.6495 7.06733 10.4453 7.20801 10.2646L7.27246 10.1895C7.47024 9.99342 7.7003 9.89457 7.96875 9.88672C8.23597 9.87895 8.46344 9.96948 8.65918 10.165L11.0254 12.5312V4.125C11.0254 3.84426 11.1185 3.61632 11.3047 3.43066C11.4913 3.24473 11.7198 3.15113 12 3.15039Z" fill="#CCCCCC" stroke="white" stroke-width="0.3"/>
</svg>
