<svg width="24" height="24" viewBox="0 0 24 24" fill="none" xmlns="http://www.w3.org/2000/svg">
<path d="M11.5781 15.9521C11.4469 15.9049 11.325 15.825 11.2125 15.7125L7.1625 11.6625C6.9375 11.4375 6.8295 11.175 6.8385 10.875C6.8475 10.575 6.9555 10.3125 7.1625 10.0875C7.3875 9.8625 7.65487 9.7455 7.96462 9.7365C8.27437 9.7275 8.54137 9.83513 8.76562 10.0594L10.875 12.1688V4.125C10.875 3.80625 10.983 3.53925 11.199 3.324C11.415 3.10875 11.682 3.00075 12 3C12.318 2.99925 12.5854 3.10725 12.8021 3.324C13.0189 3.54075 13.1265 3.80775 13.125 4.125V12.1688L15.2344 10.0594C15.4594 9.83438 15.7267 9.72638 16.0365 9.73538C16.3462 9.74438 16.6132 9.86175 16.8375 10.0875C17.0437 10.3125 17.1517 10.575 17.1615 10.875C17.1712 11.175 17.0632 11.4375 16.8375 11.6625L12.7875 15.7125C12.675 15.825 12.5531 15.9049 12.4219 15.9521C12.2906 15.9994 12.15 16.0226 12 16.0219C11.85 16.0211 11.7094 15.9979 11.5781 15.9521ZM5.25 21C4.63125 21 4.10175 20.7799 3.6615 20.3396C3.22125 19.8994 3.00075 19.3695 3 18.75V16.5C3 16.1813 3.108 15.9143 3.324 15.699C3.54 15.4838 3.807 15.3758 4.125 15.375C4.443 15.3743 4.71037 15.4823 4.92712 15.699C5.14387 15.9158 5.2515 16.1828 5.25 16.5V18.75H18.75V16.5C18.75 16.1813 18.858 15.9143 19.074 15.699C19.29 15.4838 19.557 15.3758 19.875 15.375C20.193 15.3743 20.4604 15.4823 20.6771 15.699C20.8939 15.9158 21.0015 16.1828 21 16.5V18.75C21 19.3687 20.7799 19.8986 20.3396 20.3396C19.8994 20.7806 19.3695 21.0007 18.75 21H5.25Z" fill="#E6E6E6"/>
</svg>
