<svg width="56" height="56" viewBox="0 0 56 56" fill="none" xmlns="http://www.w3.org/2000/svg">
<rect width="56" height="56" rx="8" fill="#E38282"/>
<path d="M35.9297 10.5265C32.8145 7.4466 28.6327 5.68434 24.2525 5.60325C22.1115 5.56096 19.9829 5.9448 17.9922 6.73391C16.0007 7.52342 14.1856 8.7025 12.6547 10.2011L0 22.6055V27.5648C0.258588 27.2754 0.5262 26.9934 0.802546 26.7195L15.1033 12.7017C16.3021 11.5283 17.7234 10.606 19.2828 9.98782C20.842 9.36977 22.5114 9.06848 24.1883 9.10188C27.6717 9.16637 31.0019 10.5751 33.4783 13.0257C35.9399 15.4405 37.3574 18.7233 37.4268 22.1708C37.4585 23.8296 37.1528 25.4776 36.5285 27.0148C35.905 28.5498 34.9767 29.9422 33.7996 31.1081L19.507 45.1245C18.9917 45.6308 18.3807 46.0297 17.7092 46.2962C17.0376 46.5627 16.3124 46.6914 15.59 46.6763C14.0907 46.6505 12.6276 46.0318 11.5459 44.9618C10.5448 43.981 9.94104 42.669 9.84376 41.2773L9.83145 40.997C9.81166 39.5452 10.3723 38.1756 11.3832 37.173L25.6772 23.1579C26.3673 22.4813 26.3784 21.3735 25.7018 20.6833C25.0251 19.9932 23.9173 19.9821 23.2272 20.6587L8.92637 34.6792C7.22531 36.3618 6.29565 38.6688 6.33282 41.0708C6.38308 43.4778 7.37258 45.7706 9.09044 47.457C10.8072 49.1554 13.1266 50.1332 15.5299 50.1763C16.7167 50.2003 17.8964 49.9866 18.9998 49.5488C20.1049 49.1102 21.1115 48.4555 21.9598 47.6224L36.2565 33.6019C37.7731 32.1014 38.9687 30.308 39.7715 28.3314C40.5743 26.3547 40.9678 24.2342 40.9268 22.1011L40.8898 21.2849C40.609 17.2224 38.8501 13.3914 35.9297 10.5265Z" fill="#E6E6E6"/>
<path d="M44.3721 41.5575L30.0781 55.5794C29.9325 55.722 29.7848 55.8623 29.635 56.0001H34.6472L46.8234 44.0568C47.5134 43.38 47.5235 42.2721 46.8467 41.5822C46.1699 40.8925 45.062 40.8809 44.3721 41.5575Z" fill="#E6E6E6"/>
</svg>
