<svg width="24" height="24" viewBox="0 0 24 24" fill="none" xmlns="http://www.w3.org/2000/svg">
<path d="M13 8.92198L7.92198 3.84498C7.65519 3.57316 7.33719 3.3569 6.98635 3.20869C6.6355 3.06048 6.25877 2.98325 5.8779 2.98148C5.49704 2.9797 5.1196 3.0534 4.76739 3.19833C4.41518 3.34326 4.09517 3.55654 3.82586 3.82586C3.55654 4.09517 3.34326 4.41518 3.19833 4.76739C3.0534 5.1196 2.9797 5.49704 2.98148 5.8779C2.98325 6.25877 3.06048 6.6355 3.20869 6.98635C3.3569 7.33719 3.57316 7.65519 3.84498 7.92198L16.078 20.156C16.6218 20.6816 17.3505 20.9726 18.1068 20.9661C18.8632 20.9597 19.5867 20.6564 20.1215 20.1215C20.6564 19.5867 20.9597 18.8632 20.9661 18.1068C20.9726 17.3505 20.6816 16.6218 20.156 16.078L17.078 13M5.99998 9.99998L9.99998 5.99998" stroke="#D65A5A" stroke-width="1.5" stroke-linecap="round"/>
<path d="M16.1 2.30704C16.1354 2.21644 16.1972 2.13861 16.2775 2.08374C16.3578 2.02887 16.4528 1.99951 16.55 1.99951C16.6473 1.99951 16.7423 2.02887 16.8226 2.08374C16.9028 2.13861 16.9647 2.21644 17 2.30704L17.43 3.40204C17.4539 3.46406 17.4905 3.52043 17.5373 3.5676C17.5841 3.61476 17.6402 3.65169 17.702 3.67604L18.793 4.10804C18.8834 4.14403 18.9609 4.2063 19.0154 4.28679C19.07 4.36728 19.0992 4.46229 19.0992 4.55954C19.0992 4.6568 19.07 4.75181 19.0154 4.8323C18.9609 4.91279 18.8834 4.97506 18.793 5.01104L17.703 5.44304C17.6417 5.46818 17.586 5.50526 17.5391 5.55213C17.4923 5.599 17.4552 5.65472 17.43 5.71604L17 6.81004C16.9647 6.90065 16.9028 6.97848 16.8226 7.03335C16.7423 7.08822 16.6473 7.11758 16.55 7.11758C16.4528 7.11758 16.3578 7.08822 16.2775 7.03335C16.1972 6.97848 16.1354 6.90065 16.1 6.81004L15.67 5.71504C15.6449 5.65372 15.6078 5.598 15.5609 5.55113C15.5141 5.50426 15.4584 5.46718 15.397 5.44204L14.307 5.01004C14.2167 4.97406 14.1392 4.91179 14.0846 4.8313C14.0301 4.75081 14.0009 4.65579 14.0009 4.55854C14.0009 4.46129 14.0301 4.36628 14.0846 4.28579C14.1392 4.2053 14.2167 4.14303 14.307 4.10704L15.397 3.67504C15.4585 3.64979 15.5142 3.61256 15.5611 3.56551C15.608 3.51847 15.645 3.46256 15.67 3.40104L16.1 2.30704ZM19.967 9.13004C20.0024 9.03944 20.0642 8.96161 20.1445 8.90674C20.2248 8.85187 20.3198 8.82251 20.417 8.82251C20.5143 8.82251 20.6093 8.85187 20.6896 8.90674C20.7698 8.96161 20.8317 9.03944 20.867 9.13004L21.023 9.52904C21.073 9.65404 21.171 9.75304 21.296 9.80204L21.694 9.96004C21.7841 9.9962 21.8612 10.0585 21.9156 10.1388C21.9699 10.2192 21.9989 10.314 21.9989 10.411C21.9989 10.5081 21.9699 10.6029 21.9156 10.6832C21.8612 10.7636 21.7841 10.8259 21.694 10.862L21.296 11.02C21.2347 11.0452 21.179 11.0823 21.1321 11.1291C21.0853 11.176 21.0482 11.2317 21.023 11.293L20.867 11.693C20.8317 11.7836 20.7698 11.8615 20.6896 11.9163C20.6093 11.9712 20.5143 12.0006 20.417 12.0006C20.3198 12.0006 20.2248 11.9712 20.1445 11.9163C20.0642 11.8615 20.0024 11.7836 19.967 11.693L19.81 11.293C19.785 11.2318 19.7481 11.1761 19.7014 11.1293C19.6547 11.0824 19.5992 11.0453 19.538 11.02L19.14 10.862C19.05 10.8259 18.9728 10.7636 18.9185 10.6832C18.8642 10.6029 18.8351 10.5081 18.8351 10.411C18.8351 10.314 18.8642 10.2192 18.9185 10.1388C18.9728 10.0585 19.05 9.9962 19.14 9.96004L19.538 9.80204C19.5992 9.77679 19.6547 9.73966 19.7014 9.6928C19.7481 9.64594 19.785 9.59028 19.81 9.52904L19.967 9.13004ZM5.13303 15.307C5.16836 15.2164 5.23022 15.1386 5.31051 15.0837C5.3908 15.0289 5.48579 14.9995 5.58303 14.9995C5.68028 14.9995 5.77527 15.0289 5.85556 15.0837C5.93585 15.1386 5.9977 15.2164 6.03303 15.307L6.19003 15.707C6.21405 15.7689 6.25062 15.8251 6.29743 15.872C6.34425 15.919 6.40029 15.9558 6.46203 15.98L6.86003 16.137C6.95038 16.173 7.02785 16.2353 7.08243 16.3158C7.13701 16.3963 7.16619 16.4913 7.16619 16.5885C7.16619 16.6858 7.13701 16.7808 7.08243 16.8613C7.02785 16.9418 6.95038 17.0041 6.86003 17.04L6.46203 17.198C6.40029 17.2223 6.34425 17.2591 6.29743 17.306C6.25062 17.353 6.21405 17.4092 6.19003 17.471L6.03303 17.871C5.9977 17.9616 5.93585 18.0395 5.85556 18.0943C5.77527 18.1492 5.68028 18.1786 5.58303 18.1786C5.48579 18.1786 5.3908 18.1492 5.31051 18.0943C5.23022 18.0395 5.16836 17.9616 5.13303 17.871L4.97603 17.471C4.95202 17.4092 4.91545 17.353 4.86863 17.306C4.82182 17.2591 4.76577 17.2223 4.70403 17.198L4.30603 17.04C4.21569 17.0041 4.13821 16.9418 4.08363 16.8613C4.02905 16.7808 3.99988 16.6858 3.99988 16.5885C3.99988 16.4913 4.02905 16.3963 4.08363 16.3158C4.13821 16.2353 4.21569 16.173 4.30603 16.137L4.70403 15.98C4.76587 15.9557 4.82198 15.9188 4.8688 15.8716C4.91562 15.8244 4.95213 15.7681 4.97603 15.706L5.13303 15.307Z" stroke="#D65A5A"/>
</svg>
