<svg width="24" height="24" viewBox="0 0 24 24" fill="none" xmlns="http://www.w3.org/2000/svg">
<g clip-path="url(#clip0_1979_8612)">
<path d="M19 0H5C2.243 0 0 2.6916 0 6V18C0 21.3084 2.243 24 5 24H19C21.757 24 24 21.3084 24 18V6C24 2.6916 21.757 0 19 0ZM2 7.2H11V13.2H2V7.2ZM13 7.2H22V13.2H13V7.2ZM5 2.4H19C20.304 2.4 21.415 3.4032 21.828 4.8H2.172C2.37927 4.09859 2.76238 3.49135 3.26872 3.06164C3.77506 2.63193 4.37983 2.40081 5 2.4ZM2 18V15.6H11V21.6H5C3.346 21.6 2 19.9848 2 18ZM19 21.6H13V15.6H22V18C22 19.9848 20.654 21.6 19 21.6Z" fill="#B3B3B3"/>
</g>
<defs>
<clipPath id="clip0_1979_8612">
<rect width="24" height="24" fill="white"/>
</clipPath>
</defs>
</svg>
