<svg width="20" height="20" viewBox="0 0 20 20" fill="none" xmlns="http://www.w3.org/2000/svg">
<path d="M2.59265 5.37045H17.4075M8.14821 9.07416V14.6297M11.8519 9.07416V14.6297M3.51858 5.37045L4.4445 16.4816C4.4445 16.9727 4.63961 17.4437 4.9869 17.791C5.33419 18.1383 5.80521 18.3334 6.29636 18.3334H13.7038C14.1949 18.3334 14.6659 18.1383 15.0132 17.791C15.3605 17.4437 15.5556 16.9727 15.5556 16.4816L16.4815 5.37045M7.22228 5.37045V2.59267C7.22228 2.3471 7.31983 2.11159 7.49348 1.93795C7.66712 1.7643 7.90264 1.66675 8.14821 1.66675H11.8519C12.0975 1.66675 12.333 1.7643 12.5066 1.93795C12.6803 2.11159 12.7778 2.3471 12.7778 2.59267V5.37045" stroke="#C43A3A" stroke-width="2" stroke-linecap="round" stroke-linejoin="round"/>
</svg>
