<svg width="20" height="20" viewBox="0 0 20 20" fill="none" xmlns="http://www.w3.org/2000/svg">
<g clip-path="url(#clip0_1732_3249)">
<path d="M10.0002 2.7124C14.8992 2.71249 17.707 6.06039 18.966 8.11084L18.967 8.11182C19.3176 8.67896 19.504 9.33273 19.5041 9.99951C19.5041 10.6664 19.3177 11.3209 18.967 11.8882L18.966 11.8892C17.707 13.9396 14.8991 17.2875 10.0002 17.2876C5.10106 17.2876 2.29242 13.9396 1.0334 11.8892L1.03242 11.8882L0.909378 11.6714C0.638762 11.157 0.496292 10.5832 0.496292 9.99951C0.496365 9.33274 0.681787 8.67895 1.03242 8.11182L1.0334 8.11084C2.29242 6.06037 5.10106 2.7124 10.0002 2.7124ZM10.0002 3.37939C5.38791 3.37939 2.74378 6.60339 1.60274 8.4585C1.31661 8.9215 1.16531 9.45524 1.16524 9.99951C1.16524 10.5437 1.31675 11.0775 1.60274 11.5405C2.74359 13.3955 5.38744 16.6206 10.0002 16.6206C14.6132 16.6205 17.256 13.3945 18.3967 11.5396C18.6825 11.0767 18.8352 10.5435 18.8352 9.99951C18.8351 9.45524 18.6828 8.9215 18.3967 8.4585C17.2551 6.59936 14.6117 3.37949 10.0002 3.37939Z" fill="#333333" stroke="#333333"/>
<path d="M6.66667 10H13.3333" stroke="#333333" stroke-width="2" stroke-linecap="round"/>
</g>
<defs>
<clipPath id="clip0_1732_3249">
<rect width="20" height="20" fill="white"/>
</clipPath>
</defs>
</svg>
