<svg width="170" height="43" viewBox="0 0 170 43" fill="none" xmlns="http://www.w3.org/2000/svg">
<rect width="40" height="40" rx="8" fill="#C43A3A"/>
<path d="M25.6641 7.51885C23.4389 5.31893 20.4519 4.06018 17.3232 4.00225C15.794 3.97205 14.2735 4.24622 12.8516 4.80987C11.4291 5.3738 10.1326 6.216 9.03907 7.28643L0 16.1467V19.6891C0.184705 19.4823 0.375857 19.281 0.573247 19.0853L10.7881 9.07256C11.6443 8.2344 12.6596 7.57561 13.7734 7.13409C14.8872 6.69262 16.0796 6.47742 17.2773 6.50127C19.7655 6.54734 22.1442 7.5536 23.9131 9.30401C25.6713 11.0289 26.6838 13.3737 26.7334 15.8362C26.7561 17.0211 26.5377 18.1982 26.0918 19.2962C25.6465 20.3927 24.9834 21.3872 24.1426 22.22L13.9336 32.2317C13.5655 32.5934 13.1291 32.8783 12.6494 33.0687C12.1697 33.259 11.6517 33.351 11.1357 33.3401C10.0648 33.3217 9.01969 32.8798 8.24708 32.1155C7.53201 31.4149 7.10074 30.4778 7.03125 29.4837L7.02247 29.2835C7.00833 28.2465 7.4088 27.2682 8.13086 26.5521L18.3408 16.5413C18.8338 16.058 18.8417 15.2667 18.3584 14.7737C17.8751 14.2808 17.0838 14.2729 16.5908 14.7562L6.37598 24.7708C5.16094 25.9727 4.49689 27.6205 4.52344 29.3362C4.55934 31.0555 5.26613 32.6932 6.49317 33.8978C7.71942 35.1109 9.37616 35.8094 11.0928 35.8401C11.9405 35.8573 12.7831 35.7047 13.5713 35.3919C14.3607 35.0786 15.0797 34.611 15.6856 34.0159L25.8975 24.0013C26.9808 22.9295 27.8348 21.6485 28.4082 20.2366C28.9816 18.8247 29.2627 17.3101 29.2334 15.7864L29.207 15.2034C29.0064 12.3016 27.75 9.56522 25.6641 7.51885Z" fill="#E6E6E6"/>
<path d="M31.6943 29.6839L21.4844 39.6995C21.3804 39.8014 21.2748 39.9015 21.1679 40H24.748L33.4453 31.469C33.9381 30.9856 33.9454 30.1943 33.4619 29.7015C32.9785 29.2088 32.1871 29.2006 31.6943 29.6839Z" fill="#E6E6E6"/>
<path d="M61.64 10.64C61.64 12.2667 61.3333 13.6267 60.72 14.72C60.1067 15.8133 59.2267 16.6333 58.08 17.18C56.9333 17.7267 55.5667 18 53.98 18H49.68V3.72H54.38C55.8867 3.72 57.18 3.98667 58.26 4.52C59.3533 5.05333 60.1867 5.83333 60.76 6.86C61.3467 7.87333 61.64 9.13333 61.64 10.64ZM58.12 10.76C58.12 9.78667 57.98 8.98667 57.7 8.36C57.4333 7.73333 57.0267 7.26667 56.48 6.96C55.9467 6.65333 55.28 6.5 54.48 6.5H53.08V15.2H54.18C55.5267 15.2 56.52 14.8333 57.16 14.1C57.8 13.3533 58.12 12.24 58.12 10.76ZM74.4061 12.48C74.4061 13.4 74.2794 14.2133 74.0261 14.92C73.7861 15.6267 73.4261 16.2267 72.9461 16.72C72.4794 17.2133 71.9128 17.5867 71.2461 17.84C70.5928 18.08 69.8394 18.2 68.9861 18.2C68.2128 18.2 67.4928 18.08 66.8261 17.84C66.1728 17.5867 65.6061 17.22 65.1261 16.74C64.6594 16.2467 64.2928 15.6467 64.0261 14.94C63.7594 14.22 63.6261 13.4 63.6261 12.48C63.6261 11.2667 63.8394 10.24 64.2661 9.4C64.7061 8.56 65.3328 7.92 66.1461 7.48C66.9594 7.04 67.9261 6.82 69.0461 6.82C70.0994 6.82 71.0261 7.04 71.8261 7.48C72.6261 7.92 73.2528 8.56 73.7061 9.4C74.1728 10.24 74.4061 11.2667 74.4061 12.48ZM67.0461 12.48C67.0461 13.16 67.1128 13.7333 67.2461 14.2C67.3794 14.6667 67.5928 15.02 67.8861 15.26C68.1794 15.4867 68.5594 15.6 69.0261 15.6C69.5061 15.6 69.8861 15.4867 70.1661 15.26C70.4461 15.02 70.6528 14.6667 70.7861 14.2C70.9194 13.7333 70.9861 13.16 70.9861 12.48C70.9861 11.8 70.9194 11.2333 70.7861 10.78C70.6528 10.3267 70.4394 9.98667 70.1461 9.76C69.8661 9.53333 69.4861 9.42 69.0061 9.42C68.3261 9.42 67.8261 9.68 67.5061 10.2C67.1994 10.7067 67.0461 11.4667 67.0461 12.48ZM81.4452 18.2C80.3518 18.2 79.4052 18.0067 78.6052 17.62C77.8185 17.22 77.2118 16.6067 76.7852 15.78C76.3718 14.94 76.1652 13.8667 76.1652 12.56C76.1652 11.2267 76.3985 10.14 76.8652 9.3C77.3452 8.44667 78.0052 7.82 78.8452 7.42C79.6852 7.02 80.6452 6.82 81.7252 6.82C82.4452 6.82 83.0918 6.89333 83.6652 7.04C84.2518 7.18667 84.7718 7.37333 85.2252 7.6L84.2452 10.14C83.7785 9.95333 83.3452 9.8 82.9452 9.68C82.5452 9.56 82.1385 9.5 81.7252 9.5C81.2718 9.5 80.8852 9.61333 80.5652 9.84C80.2452 10.0533 79.9985 10.3867 79.8252 10.84C79.6652 11.2933 79.5852 11.86 79.5852 12.54C79.5852 13.22 79.6718 13.78 79.8452 14.22C80.0185 14.6467 80.2652 14.9667 80.5852 15.18C80.9052 15.3933 81.2918 15.5 81.7452 15.5C82.3318 15.5 82.8785 15.4133 83.3852 15.24C83.9052 15.0667 84.3985 14.8333 84.8652 14.54V17.3C84.4118 17.5933 83.9185 17.82 83.3852 17.98C82.8518 18.1267 82.2052 18.2 81.4452 18.2ZM97.6325 7.02V18H95.0725L94.6325 16.6H94.4325C94.2058 16.9733 93.9125 17.28 93.5525 17.52C93.2058 17.7467 92.8192 17.9133 92.3925 18.02C91.9792 18.14 91.5458 18.2 91.0925 18.2C90.3458 18.2 89.6792 18.06 89.0925 17.78C88.5058 17.5 88.0458 17.0667 87.7125 16.48C87.3792 15.88 87.2125 15.1133 87.2125 14.18V7.02H90.5925V13.24C90.5925 13.9867 90.7125 14.5533 90.9525 14.94C91.2058 15.3267 91.6058 15.52 92.1525 15.52C92.6992 15.52 93.1258 15.3867 93.4325 15.12C93.7392 14.8533 93.9525 14.46 94.0725 13.94C94.1925 13.4067 94.2525 12.7667 94.2525 12.02V7.02H97.6325ZM113.654 6.82C114.908 6.82 115.854 7.14 116.494 7.78C117.148 8.40667 117.474 9.42667 117.474 10.84V18H114.114V11.78C114.114 10.98 113.988 10.4 113.734 10.04C113.494 9.66667 113.121 9.48 112.614 9.48C111.908 9.48 111.408 9.76 111.114 10.32C110.821 10.8667 110.674 11.6533 110.674 12.68V18H107.314V11.78C107.314 11.26 107.261 10.8333 107.154 10.5C107.048 10.1533 106.888 9.9 106.674 9.74C106.461 9.56667 106.181 9.48 105.834 9.48C105.341 9.48 104.948 9.62 104.654 9.9C104.374 10.1667 104.174 10.56 104.054 11.08C103.948 11.6 103.894 12.24 103.894 13V18H100.514V7.02H103.074L103.554 8.4H103.694C103.908 8.05333 104.174 7.76667 104.494 7.54C104.814 7.3 105.181 7.12 105.594 7C106.008 6.88 106.454 6.82 106.934 6.82C107.734 6.82 108.408 6.95333 108.954 7.22C109.501 7.48667 109.928 7.87333 110.234 8.38H110.434C110.781 7.86 111.241 7.47333 111.814 7.22C112.388 6.95333 113.001 6.82 113.654 6.82ZM125.059 6.82C126.099 6.82 126.992 7.01333 127.739 7.4C128.499 7.77333 129.079 8.33333 129.479 9.08C129.892 9.81333 130.099 10.7267 130.099 11.82V13.38H123.159C123.186 14.1 123.419 14.6733 123.859 15.1C124.299 15.5267 124.926 15.74 125.739 15.74C126.446 15.74 127.086 15.6733 127.659 15.54C128.232 15.4067 128.826 15.1933 129.439 14.9V17.4C128.906 17.68 128.332 17.88 127.719 18C127.106 18.1333 126.352 18.2 125.459 18.2C124.352 18.2 123.366 18 122.499 17.6C121.646 17.2 120.972 16.5867 120.479 15.76C119.999 14.92 119.759 13.86 119.759 12.58C119.759 11.2733 119.979 10.2 120.419 9.36C120.859 8.50667 121.479 7.87333 122.279 7.46C123.079 7.03333 124.006 6.82 125.059 6.82ZM125.119 9.16C124.599 9.16 124.166 9.32667 123.819 9.66C123.486 9.98 123.286 10.4933 123.219 11.2H126.999C126.999 10.8133 126.926 10.4667 126.779 10.16C126.646 9.85333 126.439 9.61333 126.159 9.44C125.879 9.25333 125.532 9.16 125.119 9.16ZM138.91 6.82C140.07 6.82 141.003 7.14 141.71 7.78C142.43 8.40667 142.79 9.42667 142.79 10.84V18H139.43V11.78C139.43 11.02 139.303 10.4467 139.05 10.06C138.796 9.67333 138.396 9.48 137.85 9.48C137.036 9.48 136.483 9.78667 136.19 10.4C135.896 11 135.75 11.8667 135.75 13V18H132.37V7.02H134.93L135.39 8.44H135.55C135.79 8.08 136.076 7.78 136.41 7.54C136.743 7.3 137.123 7.12 137.55 7C137.976 6.88 138.43 6.82 138.91 6.82ZM150.611 15.52C150.958 15.52 151.278 15.4867 151.571 15.42C151.865 15.3533 152.165 15.2667 152.471 15.16V17.64C152.111 17.8 151.698 17.9333 151.231 18.04C150.765 18.1467 150.211 18.2 149.571 18.2C148.891 18.2 148.285 18.0933 147.751 17.88C147.231 17.6533 146.818 17.2733 146.511 16.74C146.218 16.1933 146.071 15.44 146.071 14.48V9.54H144.671V8.14L146.351 7.06L147.271 4.74H149.431V7.02H152.351V9.54H149.431V14.36C149.431 14.7467 149.538 15.04 149.751 15.24C149.965 15.4267 150.251 15.52 150.611 15.52ZM162.457 14.68C162.457 15.4 162.291 16.0267 161.957 16.56C161.637 17.08 161.131 17.4867 160.437 17.78C159.744 18.06 158.864 18.2 157.797 18.2C157.024 18.2 156.344 18.1533 155.757 18.06C155.184 17.9667 154.604 17.8 154.017 17.56V14.84C154.657 15.12 155.324 15.34 156.017 15.5C156.724 15.66 157.311 15.74 157.777 15.74C158.284 15.74 158.651 15.6733 158.877 15.54C159.104 15.4067 159.217 15.22 159.217 14.98C159.217 14.8067 159.157 14.6533 159.037 14.52C158.931 14.3867 158.704 14.2333 158.357 14.06C158.024 13.8867 157.524 13.6667 156.857 13.4C156.204 13.12 155.664 12.8333 155.237 12.54C154.824 12.2467 154.511 11.8933 154.297 11.48C154.097 11.0667 153.997 10.56 153.997 9.96C153.997 8.92 154.397 8.14 155.197 7.62C156.011 7.08667 157.084 6.82 158.417 6.82C159.124 6.82 159.791 6.89333 160.417 7.04C161.044 7.18667 161.691 7.41333 162.357 7.72L161.397 10C161.037 9.84 160.677 9.7 160.317 9.58C159.971 9.46 159.637 9.36667 159.317 9.3C158.997 9.23333 158.697 9.2 158.417 9.2C158.044 9.2 157.757 9.25333 157.557 9.36C157.357 9.45333 157.257 9.6 157.257 9.8C157.257 9.94667 157.311 10.0867 157.417 10.22C157.537 10.34 157.757 10.4733 158.077 10.62C158.411 10.7667 158.891 10.9733 159.517 11.24C160.144 11.4933 160.677 11.76 161.117 12.04C161.557 12.32 161.891 12.6667 162.117 13.08C162.344 13.4933 162.457 14.0267 162.457 14.68Z" fill="#C43A3A"/>
<path d="M58.02 38H49.68V23.72H58.02V26.48H53.08V29.22H57.66V31.98H53.08V35.2H58.02V38ZM62.8338 32.4L59.3738 27.02H63.1938L65.1138 30.32L67.0538 27.02H70.8738L67.3738 32.4L71.0338 38H67.2138L65.1138 34.44L63.0138 38H59.1938L62.8338 32.4ZM78.965 26.82C80.1917 26.82 81.1717 27.3067 81.905 28.28C82.6383 29.24 83.005 30.64 83.005 32.48C83.005 33.7333 82.825 34.7867 82.465 35.64C82.105 36.4933 81.6117 37.1333 80.985 37.56C80.3717 37.9867 79.665 38.2 78.865 38.2C78.345 38.2 77.8983 38.1333 77.525 38C77.165 37.8667 76.8517 37.7 76.585 37.5C76.3317 37.2867 76.1183 37.0733 75.945 36.86H75.805C75.845 37.1133 75.8783 37.38 75.905 37.66C75.9317 37.94 75.945 38.24 75.945 38.56V42.8H72.565V27.02H75.305L75.785 28.42H75.945C76.1317 28.1267 76.3583 27.86 76.625 27.62C76.905 27.38 77.2383 27.1867 77.625 27.04C78.0117 26.8933 78.4583 26.82 78.965 26.82ZM77.785 29.48C77.3317 29.48 76.9717 29.58 76.705 29.78C76.4517 29.98 76.265 30.28 76.145 30.68C76.025 31.0667 75.9583 31.56 75.945 32.16V32.46C75.945 33.1133 75.9983 33.6667 76.105 34.12C76.225 34.56 76.4183 34.9 76.685 35.14C76.965 35.3667 77.345 35.48 77.825 35.48C78.2117 35.48 78.5317 35.3733 78.785 35.16C79.0517 34.9333 79.245 34.5933 79.365 34.14C79.4983 33.6867 79.565 33.12 79.565 32.44C79.565 31.4133 79.4183 30.6667 79.125 30.2C78.8317 29.72 78.385 29.48 77.785 29.48Z" fill="#E6E6E6"/>
</svg>
