<svg width="40" height="40" viewBox="0 0 40 40" fill="none" xmlns="http://www.w3.org/2000/svg">
<rect width="40" height="40" rx="8" fill="#CC3333"/>
<path d="M25.6641 7.51885C23.4389 5.31893 20.4519 4.06018 17.3232 4.00225C15.794 3.97205 14.2735 4.24622 12.8516 4.80987C11.4291 5.3738 10.1326 6.216 9.03907 7.28643L0 16.1467V19.6891C0.184705 19.4823 0.375857 19.281 0.573247 19.0853L10.7881 9.07256C11.6443 8.2344 12.6596 7.57561 13.7734 7.13409C14.8872 6.69262 16.0796 6.47742 17.2773 6.50127C19.7655 6.54734 22.1442 7.5536 23.9131 9.30401C25.6713 11.0289 26.6838 13.3737 26.7334 15.8362C26.7561 17.0211 26.5377 18.1982 26.0918 19.2962C25.6465 20.3927 24.9834 21.3872 24.1426 22.22L13.9336 32.2317C13.5655 32.5934 13.1291 32.8783 12.6494 33.0687C12.1697 33.259 11.6517 33.351 11.1357 33.3401C10.0648 33.3217 9.01969 32.8798 8.24708 32.1155C7.53201 31.4149 7.10074 30.4778 7.03125 29.4837L7.02247 29.2835C7.00833 28.2465 7.4088 27.2682 8.13086 26.5521L18.3408 16.5413C18.8338 16.058 18.8417 15.2667 18.3584 14.7737C17.8751 14.2808 17.0838 14.2729 16.5908 14.7562L6.37598 24.7708C5.16094 25.9727 4.49689 27.6205 4.52344 29.3362C4.55934 31.0555 5.26613 32.6932 6.49317 33.8978C7.71942 35.1109 9.37616 35.8094 11.0928 35.8401C11.9405 35.8573 12.7831 35.7047 13.5713 35.3919C14.3607 35.0786 15.0797 34.611 15.6856 34.0159L25.8975 24.0013C26.9808 22.9295 27.8348 21.6485 28.4082 20.2366C28.9816 18.8247 29.2627 17.3101 29.2334 15.7864L29.207 15.2034C29.0064 12.3016 27.75 9.56522 25.6641 7.51885Z" fill="white"/>
<path d="M31.6943 29.6839L21.4844 39.6995C21.3804 39.8014 21.2748 39.9015 21.1679 40H24.748L33.4453 31.469C33.9381 30.9856 33.9454 30.1943 33.4619 29.7015C32.9785 29.2088 32.1871 29.2006 31.6943 29.6839Z" fill="white"/>
</svg>
