<svg width="337" height="337" viewBox="0 0 337 337" fill="none" xmlns="http://www.w3.org/2000/svg">
<path d="M70.7262 129.071C69.7826 130.648 67.8078 131.315 66.1093 131.656C63.939 132.1 61.6946 132.218 59.4974 132.414L58.2201 132.727C57.9785 132.802 57.7537 132.923 57.5593 133.085C57.3645 133.246 57.2037 133.445 57.0861 133.669C56.9682 133.893 56.8961 134.138 56.8731 134.39C56.8502 134.641 56.8775 134.895 56.953 135.137C57.7433 137.856 58.8304 140.48 60.1949 142.962L58.1729 144.984C57.6 144.209 57.5731 142.851 56.8047 142.982C56.0667 142.244 55.1905 141.883 54.284 142.871C52.5113 144.809 52.7978 148.836 55.4028 149.948L54.8198 152.849C54.6186 153.864 54.0723 154.777 53.2736 155.434C52.4746 156.091 51.473 156.451 50.4388 156.452L50.887 153.018C47.854 154.551 44.4132 151.235 44.6525 148.502C44.8075 146.628 44.3829 145.334 42.9978 143.976C42.9068 143.885 43.4629 143.548 43.3786 143.457C42.9877 142.274 42.9338 140.893 43.3214 140.111C43.9954 138.716 45.9803 137.9 45.067 136.377C44.6663 135.713 44.3738 134.989 44.2009 134.234C44.0176 133.231 44.051 132.201 44.2993 131.213C44.5477 130.225 45.0047 129.301 45.6399 128.505C46.9879 126.887 49.1784 127.322 50.9679 126.749C53.1483 126.075 54.1559 123.739 56.4374 123.018C57.5731 122.658 58.6245 122.823 59.7602 123.082C60.7207 123.305 61.671 123.554 62.6146 123.851C63.5582 124.147 64.3872 124.393 65.3106 124.117C66.5305 123.78 67.4708 122.641 68.8019 122.631C69.4662 122.615 70.1162 122.823 70.6487 123.22C71.6327 124.99 71.6395 127.558 70.7262 129.071Z" fill="#852222"/>
<path d="M29.0191 174.701C29.0191 174.701 -7.67008 134.234 46.3611 114.041C49.4942 112.892 52.7597 112.142 56.0802 111.81C64.704 110.893 83.7681 107.634 85.9653 96.6279" stroke="#D65A5A" stroke-width="2" stroke-miterlimit="10"/>
<path d="M183.035 118.053V118.041" stroke="#D65A5A" stroke-width="2" stroke-miterlimit="10"/>
<path d="M86.7674 190.915V190.904" stroke="#CCCCCC" stroke-width="2" stroke-miterlimit="10"/>
<path d="M58.082 144.715C57.7227 144.094 57.2954 143.515 56.8081 142.989C56.0701 142.251 55.1939 141.891 54.2873 142.878C52.5147 144.816 52.8012 148.843 55.4062 149.955L54.8232 152.857C54.622 153.871 54.0757 154.784 53.277 155.441C52.478 156.098 51.4764 156.458 50.4422 156.459" stroke="#CCCCCC" stroke-width="2" stroke-linecap="round" stroke-linejoin="round"/>
<path d="M48.8111 169.299C48.9593 168.173 49.3267 165.217 49.6805 162.4C50.0175 159.788 50.3175 157.274 50.4354 156.445L50.887 153.018" stroke="#CCCCCC" stroke-width="2" stroke-linecap="round" stroke-linejoin="round"/>
<path d="M69.6174 135.528C69.6174 135.528 65.314 135.74 64.4816 139.302" stroke="#CCCCCC" stroke-width="2" stroke-miterlimit="10"/>
<path d="M71.1812 144.941C72.3539 144.91 73.8772 144.738 74.4298 143.549L71.4642 140.276C70.7407 139.475 70.3127 138.45 70.251 137.372C70.1331 135.562 70.3454 132.691 68.6132 130.78" stroke="#CCCCCC" stroke-width="2" stroke-miterlimit="10"/>
<path d="M68.6452 140.411C69.1308 139.874 69.1548 139.104 68.6991 138.693C68.2435 138.281 67.4805 138.382 66.9953 138.919C66.5097 139.456 66.4854 140.226 66.941 140.637C67.3966 141.049 68.1596 140.948 68.6452 140.411Z" fill="#CCCCCC"/>
<path d="M68.3537 166.434L66.1194 155.603" stroke="#CCCCCC" stroke-width="2" stroke-miterlimit="10"/>
<path d="M124.993 215.181L110.593 226.956C127.918 253.377 114.806 258.226 114.806 258.226C112.262 258.713 109.694 259.058 107.112 259.261C94.5892 260.164 81.7427 256.932 71.4204 249.693C50.5264 235.034 32.3284 205.694 42.034 180.15C42.8506 177.989 43.8484 175.901 45.0165 173.909C46.0231 172.176 47.3047 170.619 48.8111 169.298C51.4478 166.99 54.6948 165.492 58.1622 164.985C61.6292 164.477 65.1694 164.982 68.3571 166.437C69.5774 166.994 70.7316 167.686 71.7979 168.5C77.2539 172.675 82.2145 178.61 86.4911 184.838C90.288 190.469 93.7052 196.349 96.719 202.436C97.5514 204.097 98.3063 205.667 98.9735 207.106C105.023 204.66 110.095 200.505 114.813 196.016C109.107 206.665 124.993 215.181 124.993 215.181Z" fill="#999999"/>
<path d="M114.917 223.794C114.641 224.007 114.354 224.229 114.068 224.441" stroke="#CCCCCC" stroke-width="2" stroke-miterlimit="10"/>
<path d="M72.3438 179.031C76.163 186.344 79.9826 193.671 83.8018 201.01C86.6832 206.551 91.5528 209.971 98.4108 207.346C105.872 204.488 111.891 199.025 117.458 193.458C123.025 187.891 128.667 182.566 136.704 181.131C147.094 179.274 156.924 184.935 164.001 192.09C164.546 192.636 164.89 193.349 164.979 194.115C165.067 194.88 164.895 195.654 164.49 196.309C164.23 196.728 163.882 197.087 163.471 197.36C163.06 197.633 162.595 197.814 162.108 197.891C161.62 197.968 161.122 197.939 160.647 197.807C160.172 197.674 159.731 197.44 159.354 197.121C156.001 194.26 150.545 190.122 146.75 190.068" stroke="#CCCCCC" stroke-width="2" stroke-miterlimit="10"/>
<path d="M136.397 199.885C137.563 200.663 139.181 201.526 140.529 201.526" stroke="#CCCCCC" stroke-width="2" stroke-miterlimit="10"/>
<path d="M151.34 191.487C153.827 192.717 154.734 196.317 152.978 198.467C150.752 201.229 147.962 203.485 144.795 205.085C141.331 206.814 139.107 205.759 135.696 203.65" stroke="#CCCCCC" stroke-width="2" stroke-miterlimit="10"/>
<path d="M145.584 194.712C145.584 194.712 150.511 195.932 150.379 200.714C150.371 200.918 150.334 201.12 150.272 201.314" stroke="#CCCCCC" stroke-width="2" stroke-miterlimit="10"/>
<path d="M142.103 197.725C142.103 197.725 148.711 201.994 145.567 204.68" stroke="#CCCCCC" stroke-width="2" stroke-miterlimit="10"/>
<path d="M269.762 214.46C261.977 235.856 240.183 236.459 237.69 236.459C238.734 234.259 239.017 230.393 236.729 223.619C238.262 221.381 239.069 218.725 239.041 216.012C239.012 213.299 238.15 210.661 236.571 208.454C236.601 208.428 236.618 208.39 236.645 208.363C237.735 208.297 238.816 208.134 239.877 207.875C243.638 206.978 251.052 205.01 256.936 202.24C260.926 200.356 265.58 203.376 265.239 207.78C265.239 207.838 265.239 207.892 265.219 207.956C265.998 207.955 266.766 208.143 267.457 208.503C268.148 208.863 268.741 209.384 269.188 210.023C269.633 210.661 269.919 211.398 270.019 212.171C270.119 212.943 270.031 213.729 269.762 214.46Z" fill="#852222"/>
<path d="M169.865 264.643C167.243 269.142 163.162 272.974 159.219 276.317C145.338 288.065 127.204 294.029 109.006 294.262C90.7474 294.029 72.546 288.044 58.6009 276.401C14.5381 239.607 22.5015 196.165 29.629 176.049C29.88 175.353 30.2199 174.693 30.64 174.084C31.1973 173.269 31.9208 172.581 32.763 172.065C33.6052 171.549 34.5469 171.218 35.5265 171.092C39.2672 171.607 42.6642 174.711 42.0643 179.517C42.0643 179.702 41.9902 179.958 41.9734 180.144C32.2745 205.688 50.4792 235.027 71.3598 249.687C80.8328 256.336 92.4324 259.605 103.958 259.393H104.089C105.078 259.372 106.065 259.327 107.051 259.254C113.525 258.783 119.817 257.232 126.048 255.355C133.361 253.168 140.593 250.516 147.899 248.659C150.467 248.005 153.042 247.375 155.63 246.785C157.124 246.479 158.651 246.374 160.173 246.472C169.147 247.079 175.452 255.059 169.865 264.643Z" fill="#5D1717"/>
<path d="M172.082 264.643C169.46 269.142 165.376 272.974 161.433 276.317C146.999 288.543 127.956 294.515 108.996 294.262C90.7372 294.029 72.5359 288.044 58.5908 276.401C14.5382 239.607 22.5015 196.165 29.6291 176.049C29.8801 175.353 30.2199 174.693 30.6401 174.084C31.1974 173.269 31.9209 172.581 32.7631 172.065C33.6053 171.549 34.5472 171.218 35.5265 171.092C39.2672 171.607 42.6642 174.711 42.0643 179.517C42.0643 179.702 41.9902 179.958 41.9733 180.144C32.2745 205.688 50.4792 235.027 71.3597 249.687C80.8328 256.336 92.4324 259.605 103.958 259.393H104.089C105.826 259.419 107.553 259.374 109.269 259.254C115.743 258.783 122.031 257.232 128.266 255.355C135.578 253.168 142.81 250.516 150.117 248.659C152.681 248.005 155.259 247.375 157.844 246.785C158.612 246.628 159.39 246.523 160.173 246.472C170.262 245.795 178.121 254.284 172.082 264.643Z" fill="#5D1717"/>
<path d="M112.039 294.2L116.474 300.475C116.474 300.475 143.309 301.52 157.996 313.848C160.712 316.129 159.088 320.561 155.542 320.561C154.653 320.564 153.792 320.251 153.113 319.678C149.645 316.766 136.397 307.613 106.431 307.337C77.2336 307.064 66.0351 316.099 62.9381 319.391C62.5849 319.763 62.1593 320.059 61.6875 320.26C61.2157 320.461 60.7078 320.563 60.1949 320.561H59.6187C55.9791 320.561 54.439 315.964 57.3136 313.733C69.5736 304.199 97.056 301.16 97.056 301.16L101.747 294.083" fill="#999999"/>
<path d="M230.801 259.406C230.801 259.406 239.021 267.214 236.456 291.421C236.269 293.149 235.668 294.807 234.704 296.253L233.811 297.601C232.346 299.795 230.138 301.384 227.593 302.077C222.225 303.543 212.485 306.94 206.47 313.376C203.929 316.103 205.819 320.544 209.547 320.544C210.241 320.546 210.926 320.376 211.54 320.049C212.153 319.722 212.676 319.249 213.061 318.671C215.511 314.984 222.929 307.155 240.82 307.32C261 307.506 269.128 315.53 271.733 318.987C272.093 319.47 272.56 319.861 273.098 320.131C273.636 320.402 274.229 320.543 274.83 320.544C275.584 320.543 276.322 320.321 276.952 319.907C277.582 319.493 278.078 318.903 278.378 318.211C278.678 317.519 278.769 316.755 278.642 316.012C278.514 315.268 278.172 314.578 277.658 314.027C269.789 305.477 260.164 302.289 254.853 301.106C252.184 300.531 249.827 298.979 248.244 296.755C247.032 295.04 246.343 293.01 246.259 290.912C245.963 283.407 245.808 265.189 250.893 259.413" fill="#999999"/>
<path d="M126.116 255.365C140.569 248.348 156.257 243.745 171.681 239.411C187.204 235.05 202.877 231.246 218.598 227.67C224.88 226.245 231.219 224.974 237.47 223.367" stroke="#CCCCCC" stroke-width="2" stroke-miterlimit="10"/>
<path d="M139.676 201.429H139.687H139.693" stroke="#CCCCCC" stroke-width="2" stroke-miterlimit="10"/>
<path d="M138.055 200.515C137.149 201.412 133.914 206.2 133.102 207.06C128.64 211.841 123.9 216.356 118.907 220.58C117.65 221.625 116.319 222.703 114.917 223.795C114.641 224.008 114.354 224.23 114.068 224.442C104.564 231.654 92.1628 238.596 80.7047 234.148C80.4014 234.037 80.1049 233.909 79.8117 233.777C62.2372 225.908 49.9535 206.2 48.8818 187.177C48.8448 186.557 48.8246 185.94 48.8178 185.33C48.7235 180.13 49.4918 174.93 54.4794 172.187" stroke="#CCCCCC" stroke-width="2" stroke-miterlimit="10"/>
<path d="M42.061 180.076L42.1317 179.523C43.2506 170.552 30.512 167.526 27.4891 176.049C20.3649 196.161 12.3983 239.594 56.4711 276.394C84.9173 300.156 130.972 300.321 159.31 276.317C163.253 272.977 167.334 269.138 169.959 264.64C176.601 253.262 166.458 244.14 155.017 246.94" stroke="#CCCCCC" stroke-width="2" stroke-miterlimit="10"/>
<path d="M112.039 294.2L116.474 300.475C116.474 300.475 143.309 301.52 157.996 313.848C160.712 316.129 159.088 320.561 155.542 320.561C154.653 320.564 153.792 320.251 153.113 319.678C149.645 316.766 136.397 307.613 106.431 307.337C77.2336 307.064 66.0351 316.099 62.9381 319.391C62.5849 319.763 62.1593 320.059 61.6875 320.26C61.2157 320.461 60.7078 320.563 60.1949 320.561H59.6187C55.9791 320.561 54.439 315.964 57.3136 313.733C69.5736 304.199 97.056 301.16 97.056 301.16L101.747 294.083" stroke="#CCCCCC" stroke-width="2" stroke-miterlimit="10"/>
<path d="M97.056 201.897C108.305 198.864 112.939 182.995 114.806 172.326" stroke="#CCCCCC" stroke-width="2" stroke-miterlimit="10"/>
<path d="M86.4809 184.848C89.6059 184.438 92.5739 183.235 95.1007 181.351C97.6279 179.468 99.6297 176.968 100.915 174.091C101.184 173.518 101.314 172.891 101.297 172.259C101.279 171.626 101.114 171.007 100.814 170.451C99.5869 168.18 97.7569 165.548 98.1917 162.825C98.5051 160.904 100.086 159.552 101.899 159.118C102.818 158.877 103.786 158.893 104.696 159.165C105.241 159.319 105.746 159.593 106.173 159.967C106.599 160.341 106.937 160.804 107.163 161.325C107.604 162.36 107.078 163.384 106.266 164.058C105.454 164.732 104.504 164.971 103.513 165.241C103.385 165.278 103.034 165.352 102.647 165.426" stroke="#CCCCCC" stroke-width="2" stroke-miterlimit="10"/>
<path d="M237.457 223.36C237.457 223.36 259.632 218.716 263.797 212.027C264.578 210.807 265.064 209.423 265.219 207.983" stroke="#CCCCCC" stroke-width="2" stroke-miterlimit="10"/>
<path d="M128.343 211.936C167.021 207.828 210.676 208.435 210.676 208.435H235.175C236.759 208.437 238.337 208.251 239.877 207.882C243.637 206.986 251.051 205.021 256.936 202.247C260.926 200.364 265.58 203.383 265.239 207.791C265.239 207.845 265.239 207.902 265.219 207.966C265.996 207.967 266.762 208.154 267.452 208.513C268.141 208.872 268.734 209.392 269.18 210.029C269.625 210.666 269.911 211.401 270.012 212.172C270.114 212.943 270.028 213.727 269.762 214.457C261.498 237.167 237.457 236.456 237.457 236.456C234.383 236.547 231.317 236.669 228.24 236.827C201.135 238.145 174.269 241.949 147.97 248.666C140.664 250.523 133.432 253.171 126.119 255.362C119.884 257.246 113.586 258.786 107.112 259.258C94.5892 260.164 81.7427 256.929 71.4204 249.69C48.8111 233.824 29.3527 200.744 45.0165 173.892C50.5466 164.416 63.0696 161.821 71.7979 168.5C84.1085 177.919 93.9421 196.269 98.987 207.093" stroke="#CCCCCC" stroke-width="2" stroke-miterlimit="10"/>
<path d="M269.25 259.406H215.424" stroke="#CCCCCC" stroke-width="2" stroke-miterlimit="10"/>
<path d="M204.559 248.534C204.567 245.652 205.715 242.892 207.752 240.854C209.789 238.816 212.55 237.667 215.431 237.659H269.263C272.145 237.666 274.906 238.815 276.944 240.853C278.982 242.89 280.13 245.652 280.138 248.534" stroke="#CCCCCC" stroke-width="2" stroke-miterlimit="10"/>
<path d="M281.196 252.389C281.199 253.312 281.019 254.226 280.667 255.078C280.315 255.931 279.798 256.706 279.146 257.358C278.493 258.01 277.719 258.526 276.866 258.878C276.013 259.229 275.099 259.409 274.176 259.406H210.483C208.889 259.255 207.418 258.484 206.386 257.26C205.353 256.035 204.843 254.455 204.964 252.858C205.085 251.261 205.827 249.775 207.032 248.72C208.237 247.665 209.808 247.125 211.407 247.216H275.1C276.23 247.215 277.345 247.487 278.347 248.01C279.35 248.533 280.21 249.291 280.856 250.219C281.081 250.92 281.196 251.653 281.196 252.389Z" fill="#5D1717"/>
<path d="M281.196 252.389C281.199 253.311 281.019 254.225 280.667 255.078C280.315 255.931 279.798 256.705 279.146 257.357C278.493 258.01 277.718 258.526 276.866 258.878C276.013 259.229 275.099 259.408 274.176 259.405H210.483C209.549 259.426 208.62 259.259 207.75 258.916C206.881 258.572 206.089 258.059 205.421 257.405C204.752 256.751 204.221 255.971 203.859 255.109C203.496 254.248 203.31 253.322 203.31 252.387C203.31 251.453 203.496 250.527 203.859 249.665C204.221 248.804 204.752 248.023 205.421 247.369C206.089 246.716 206.881 246.202 207.75 245.859C208.62 245.515 209.549 245.349 210.483 245.369H274.176C275.659 245.369 277.104 245.837 278.304 246.709C279.504 247.58 280.397 248.808 280.856 250.219C281.081 250.92 281.196 251.652 281.196 252.389Z" stroke="#CCCCCC" stroke-width="2" stroke-miterlimit="10"/>
<path d="M114.684 172.076L114.556 173.158C114.498 173.649 114.262 174.101 113.892 174.429C113.522 174.758 113.046 174.94 112.551 174.94H105.552C105.057 174.94 104.581 174.758 104.211 174.429C103.841 174.101 103.605 173.649 103.547 173.158L102.643 165.407C103.031 165.333 103.381 165.258 103.51 165.221C104.5 164.952 105.461 164.723 106.263 164.038C107.065 163.354 107.611 162.353 107.159 161.305C106.934 160.785 106.596 160.321 106.169 159.948C105.742 159.574 105.238 159.3 104.692 159.145C103.782 158.874 102.814 158.857 101.895 159.098L101.683 157.251C101.652 156.969 101.68 156.683 101.767 156.413C101.853 156.143 101.996 155.893 102.185 155.682C102.374 155.47 102.606 155.3 102.865 155.184C103.124 155.068 103.404 155.008 103.688 155.007H114.428C114.712 155.008 114.992 155.069 115.251 155.185C115.509 155.302 115.741 155.471 115.929 155.683C116.118 155.894 116.26 156.144 116.347 156.414C116.433 156.684 116.461 156.969 116.43 157.251L116.181 159.358" stroke="#CCCCCC" stroke-width="2" stroke-miterlimit="10"/>
<path d="M115.618 164.173L115.608 164.247" stroke="#CCCCCC" stroke-width="2" stroke-miterlimit="10"/>
<path d="M115.092 168.625V168.595" stroke="#CCCCCC" stroke-width="2" stroke-miterlimit="10"/>
<path d="M115.193 168.624C115.163 168.619 115.132 168.619 115.102 168.624C115.06 168.619 115.017 168.619 114.974 168.624C114.538 168.626 114.117 168.791 113.797 169.088C113.476 169.384 113.279 169.791 113.243 170.226C113.208 170.661 113.338 171.094 113.607 171.438C113.875 171.783 114.264 172.013 114.695 172.085C114.88 172.122 115.072 172.122 115.257 172.085C116.099 171.951 116.867 171.526 117.428 170.885C118.175 169.655 118.695 168.3 118.961 166.885C118.966 166.871 118.966 166.855 118.961 166.841C119.167 165.798 119.245 164.735 119.194 163.673M119.194 163.673C119.194 163.218 119.136 162.767 119.082 162.325C118.98 161.587 118.642 160.901 118.12 160.369C117.597 159.837 116.917 159.486 116.181 159.37C116.144 159.37 116.1 159.37 116.063 159.35C114.647 159.174 112.662 159.71 112.295 161.308C111.958 162.75 113.522 163.987 114.806 164.098C114.806 164.098 115.143 164.142 115.618 164.172C116.568 164.236 118.149 164.226 119.194 163.673ZM119.194 163.673C119.347 163.594 119.492 163.498 119.625 163.387" stroke="#CCCCCC" stroke-width="2" stroke-miterlimit="10"/>
<path d="M116.669 164.251H116.437H114.641H113.849C113.313 164.253 112.799 164.459 112.411 164.829C112.023 165.198 111.791 165.701 111.763 166.236C111.736 166.756 111.904 167.266 112.233 167.67C112.561 168.073 113.028 168.34 113.542 168.42C115.867 168.794 118.523 168.871 118.978 166.789" stroke="#CCCCCC" stroke-width="2" stroke-miterlimit="10"/>
<path d="M230.801 259.406C230.801 259.406 239.021 267.214 236.456 291.421C236.269 293.149 235.668 294.807 234.704 296.253L233.811 297.601C232.346 299.795 230.138 301.384 227.593 302.077C222.225 303.543 212.485 306.94 206.47 313.376C203.929 316.103 205.819 320.544 209.547 320.544C210.241 320.546 210.926 320.376 211.54 320.049C212.153 319.722 212.676 319.249 213.061 318.671C215.511 314.984 222.929 307.155 240.82 307.32C261 307.506 269.128 315.53 271.733 318.987C272.093 319.47 272.56 319.861 273.098 320.131C273.636 320.402 274.229 320.543 274.83 320.544C275.584 320.543 276.322 320.321 276.952 319.907C277.582 319.493 278.078 318.903 278.378 318.211C278.678 317.519 278.769 316.755 278.642 316.012C278.514 315.268 278.172 314.578 277.658 314.027C269.789 305.477 260.164 302.289 254.853 301.106C252.184 300.531 249.827 298.979 248.244 296.755C247.032 295.04 246.343 293.01 246.259 290.912C245.963 283.407 245.808 265.189 250.893 259.413" stroke="#CCCCCC" stroke-width="2" stroke-miterlimit="10"/>
<path d="M213.715 202.826V203.372C213.715 207.11 210.703 207.753 208.101 207.817L157.75 208.99C155.542 209.044 153.685 207.116 153.638 204.703V204.602C153.638 202.243 155.377 200.272 157.554 200.221C157.554 200.221 185.724 199.426 207.535 198.826C207.953 200.147 208.964 201.165 210.231 201.964C211.28 202.591 212.494 202.892 213.715 202.826Z" stroke="#CCCCCC" stroke-width="2" stroke-miterlimit="10"/>
<path d="M240.48 149.547C240.482 150.162 240.342 150.768 240.069 151.319L217.55 197.482C217.286 198.017 216.908 198.489 216.442 198.864C215.977 199.238 215.435 199.506 214.854 199.649C213.925 199.887 212.94 199.786 212.077 199.365C211.386 199.025 210.804 198.497 210.398 197.841C209.992 197.186 209.779 196.43 209.782 195.658C209.784 195.469 209.798 195.28 209.823 195.092C209.883 194.674 210.008 194.269 210.194 193.889L232.709 147.72C233.115 146.892 233.791 146.225 234.624 145.83C235.458 145.434 236.401 145.333 237.301 145.542C238.2 145.751 239.001 146.258 239.575 146.981C240.149 147.704 240.46 148.6 240.46 149.523L240.48 149.547Z" stroke="#CCCCCC" stroke-width="2" stroke-miterlimit="10"/>
<path d="M58.1763 144.99C58.1493 144.896 58.1123 144.805 58.0819 144.714C58.0516 144.623 58.0078 144.519 57.9808 144.417" stroke="#CCCCCC" stroke-width="2" stroke-linecap="round" stroke-linejoin="round"/>
<path d="M58.1763 144.994L58.8672 144.3L60.1882 142.962" stroke="#CCCCCC" stroke-width="2" stroke-linecap="round" stroke-linejoin="round"/>
<path d="M65.9509 146.821C65.9509 146.821 66.8372 149.467 70.2241 149.645" stroke="#CCCCCC" stroke-width="2" stroke-miterlimit="10"/>
<path d="M50.887 153.018C47.854 154.551 44.4132 151.235 44.6525 148.502C44.8075 146.628 44.3829 145.335 42.9978 143.976C42.9068 143.885 42.8226 143.791 42.7417 143.7C42.2143 143.126 41.8716 142.407 41.7573 141.636C41.6431 140.866 41.7631 140.078 42.1014 139.376C42.7316 137.91 44.0897 137.051 43.1461 135.47C42.7319 134.787 42.4296 134.042 42.2497 133.263C42.0613 132.23 42.0967 131.17 42.3531 130.151C42.6096 129.134 43.0811 128.183 43.7359 127.362C45.1243 125.677 47.3856 126.142 49.2424 125.552C51.4767 124.841 52.5214 122.439 54.867 121.7C56.0397 121.333 57.1282 121.498 58.301 121.765C59.2884 121.997 60.2792 122.257 61.2396 122.56C62.2001 122.863 63.0763 123.123 64.0367 122.836C65.2937 122.469 66.2609 121.313 67.6292 121.303C68.9974 121.293 70.0488 122.098 70.6622 123.224C71.6327 124.99 71.6395 127.558 70.7262 129.081C69.7826 130.658 67.8078 131.325 66.1093 131.666C63.939 132.11 61.6946 132.228 59.4973 132.424L58.2201 132.737C57.7342 132.888 57.3281 133.225 57.0905 133.675C56.8529 134.125 56.8034 134.651 56.953 135.137C57.7433 137.856 58.8304 140.48 60.1949 142.962" stroke="#CCCCCC" stroke-width="2" stroke-miterlimit="10"/>
<path d="M60.1882 153.405C60.1882 153.405 66.8743 158.302 70.6857 155.602C74.4972 152.903 72.3438 144.99 72.3438 144.99" stroke="#CCCCCC" stroke-width="2" stroke-linecap="round" stroke-linejoin="round"/>
<path d="M107.432 151.627C107.432 151.627 104.591 149.706 106.398 147.744C108.204 145.783 105.798 143.195 105.798 143.195" stroke="#CCCCCC" stroke-width="2" stroke-miterlimit="10"/>
<path d="M110.054 151.96C110.054 151.96 111.935 150.689 110.728 149.388C109.522 148.088 111.129 146.355 111.129 146.355" stroke="#CCCCCC" stroke-width="2" stroke-miterlimit="10"/>
<path d="M123.012 133.655C143.47 133.655 160.055 117.07 160.055 96.6119C160.055 76.1536 143.47 59.5688 123.012 59.5688C102.553 59.5688 85.9687 76.1536 85.9687 96.6119C85.9687 117.07 102.553 133.655 123.012 133.655Z" stroke="#D65A5A" stroke-width="2" stroke-miterlimit="10"/>
<path d="M123.012 116.955C134.248 116.955 143.356 107.847 143.356 96.6108C143.356 85.3745 134.248 76.2661 123.012 76.2661C111.775 76.2661 102.667 85.3745 102.667 96.6108C102.667 107.847 111.775 116.955 123.012 116.955Z" stroke="#D65A5A" stroke-width="2" stroke-miterlimit="10"/>
<path d="M123.012 100.098C124.938 100.098 126.5 98.5368 126.5 96.6105C126.5 94.6842 124.938 93.1226 123.012 93.1226C121.085 93.1226 119.524 94.6842 119.524 96.6105C119.524 98.5368 121.085 100.098 123.012 100.098Z" stroke="#D65A5A" stroke-width="2" stroke-miterlimit="10"/>
<path d="M130.234 84.9648L124.848 93.646" stroke="#D65A5A" stroke-width="2" stroke-miterlimit="10"/>
<path d="M123.012 76.2661V79.8855" stroke="#D65A5A" stroke-width="2" stroke-miterlimit="10"/>
<path d="M143.356 96.6113H139.926" stroke="#D65A5A" stroke-width="2" stroke-miterlimit="10"/>
<path d="M123.012 116.96V113.441" stroke="#D65A5A" stroke-width="2" stroke-miterlimit="10"/>
<path d="M102.664 96.6113H105.757" stroke="#D65A5A" stroke-width="2" stroke-miterlimit="10"/>
<path d="M158.515 158.202C166.127 158.202 172.298 152.031 172.298 144.419C172.298 136.806 166.127 130.635 158.515 130.635C150.903 130.635 144.731 136.806 144.731 144.419C144.731 152.031 150.903 158.202 158.515 158.202Z" fill="#852222"/>
<path d="M163.047 139.815C162.853 139.366 162.591 138.951 162.272 138.581C161.726 137.935 160.963 137.51 160.126 137.386C159.289 137.262 158.436 137.448 157.726 137.907C157.263 138.209 156.876 138.614 156.595 139.091C156.315 139.567 156.148 140.102 156.109 140.654C155.383 140.388 154.591 140.365 153.851 140.589C153.112 140.812 152.465 141.27 152.008 141.894C151.552 142.517 151.31 143.272 151.32 144.045C151.331 144.817 151.592 145.566 152.065 146.177C153.052 147.465 154.73 148.31 156.25 148.802C157.047 149.058 157.868 149.231 158.7 149.321C159.121 149.369 161.524 149.692 161.733 149.321C163.233 146.976 164.298 142.679 163.047 139.815Z" fill="#262626"/>
<g opacity="0.72">
<path opacity="0.72" d="M192.868 138.713C197.06 138.713 200.458 135.315 200.458 131.123C200.458 126.932 197.06 123.534 192.868 123.534C188.677 123.534 185.279 126.932 185.279 131.123C185.279 135.315 188.677 138.713 192.868 138.713Z" fill="#852222"/>
<path opacity="0.72" d="M196.161 132.468C196.349 132.276 196.506 132.057 196.626 131.817C196.842 131.404 196.901 130.926 196.789 130.473C196.679 130.02 196.406 129.623 196.023 129.357C195.772 129.184 195.486 129.072 195.184 129.028C194.883 128.985 194.576 129.013 194.287 129.108C194.271 128.683 194.117 128.274 193.848 127.944C193.579 127.614 193.211 127.381 192.797 127.279C192.384 127.177 191.949 127.212 191.558 127.379C191.166 127.546 190.84 127.836 190.627 128.205C190.215 129.039 190.054 129.976 190.166 130.901C190.204 131.357 190.287 131.809 190.415 132.249C190.479 132.475 190.816 133.765 191.045 133.806C192.552 134.058 194.965 133.705 196.161 132.468Z" fill="#262626"/>
</g>
<path d="M181.993 166.962L178.386 174.59C177.077 177.356 178.259 180.659 181.025 181.967L188.654 185.575C191.42 186.883 194.723 185.701 196.031 182.935L199.638 175.306C200.946 172.54 199.765 169.237 196.998 167.929L189.37 164.322C186.604 163.014 183.301 164.195 181.993 166.962Z" fill="#852222"/>
<path d="M197.58 176.642L194.968 182.166C194.42 183.316 193.439 184.203 192.24 184.633C191.04 185.063 189.719 185.001 188.565 184.46L181.94 181.326C180.79 180.778 179.903 179.797 179.474 178.597C179.045 177.398 179.107 176.077 179.648 174.923L179.823 174.553C181.623 173.117 184.733 171.183 185.869 173.815C187.503 177.616 189.63 176.389 192.346 174.799C194.614 173.457 197.337 173.009 197.58 176.642Z" fill="#262626"/>
<path d="M187.318 170.772C188.444 170.772 189.357 169.859 189.357 168.733C189.357 167.606 188.444 166.694 187.318 166.694C186.192 166.694 185.279 167.606 185.279 168.733C185.279 169.859 186.192 170.772 187.318 170.772Z" fill="#262626"/>
<path d="M222.103 141.941C222.509 142.68 222.803 143.475 222.976 144.3C223.285 145.809 223.196 147.373 222.719 148.837C222.241 150.302 221.392 151.617 220.253 152.654C219.35 153.453 218.201 154.077 217.287 154.912C216.621 155.487 216.131 156.238 215.872 157.079C215.825 157.367 215.709 157.638 215.535 157.871C215.003 158.444 214.48 157.534 214.019 157.379C213.274 157.137 212.467 157.177 211.751 157.49C209.866 158.279 207.767 158.39 205.809 157.807C203.851 157.224 202.155 155.982 201.008 154.291C199.862 152.6 199.335 150.565 199.518 148.531C199.701 146.496 200.582 144.587 202.011 143.127C203.423 141.688 205.27 140.768 207.066 139.832C208.637 138.999 210.2 138.113 211.906 137.614C215.902 136.418 220.169 138.409 222.103 141.941Z" fill="#852222"/>
<path d="M206.008 152.351C207.069 152.351 207.929 151.491 207.929 150.43C207.929 149.369 207.069 148.509 206.008 148.509C204.947 148.509 204.087 149.369 204.087 150.43C204.087 151.491 204.947 152.351 206.008 152.351Z" fill="#262626"/>
<path d="M211.181 149.584C212.242 149.584 213.102 148.724 213.102 147.663C213.102 146.602 212.242 145.742 211.181 145.742C210.12 145.742 209.26 146.602 209.26 147.663C209.26 148.724 210.12 149.584 211.181 149.584Z" fill="#262626"/>
<path d="M216.034 146.989C217.095 146.989 217.955 146.129 217.955 145.068C217.955 144.007 217.095 143.147 216.034 143.147C214.973 143.147 214.113 144.007 214.113 145.068C214.113 146.129 214.973 146.989 216.034 146.989Z" fill="#262626"/>
<path d="M157.467 82.9932C157.467 82.9932 170.114 122.112 218.801 119.999C234.977 117.977 254.229 119.999 271.373 142.578C297.433 176.925 286.969 215.188 275.127 239.475" stroke="#D65A5A" stroke-width="2" stroke-miterlimit="10"/>
<g opacity="0.54">
<path opacity="0.54" d="M227.842 98.3567C227.794 98.9468 227.703 99.5325 227.569 100.109L226.053 106.687C225.588 108.709 225.065 110.826 223.623 112.302C220.927 115.052 216.445 114.422 212.698 113.589L203.497 111.547C201.384 111.078 199.238 110.597 197.344 109.548C195.45 108.5 193.805 106.785 193.367 104.665C193.03 103.102 193.391 101.484 193.735 99.9271L195.123 93.6118C195.585 91.5426 196.104 89.3588 197.597 87.8524C200.256 85.1733 204.674 85.7833 208.347 86.5819L217.769 88.6309C223.451 89.8576 228.294 92.4929 227.842 98.3567Z" fill="#852222"/>
<path opacity="0.54" d="M215.154 98.5321C215.548 98.8985 215.839 99.3622 215.997 99.8764C216.155 100.391 216.174 100.938 216.054 101.462C215.933 101.987 215.677 102.47 215.31 102.864C214.943 103.258 214.479 103.548 213.965 103.705L211.161 104.564L208.357 105.424C207.842 105.581 207.295 105.6 206.771 105.479C206.247 105.358 205.764 105.102 205.37 104.735C204.976 104.368 204.686 103.905 204.528 103.39C204.371 102.876 204.351 102.329 204.471 101.804L205.145 98.9466L205.803 96.0923C205.923 95.5675 206.179 95.0839 206.545 94.6897C206.912 94.2957 207.376 94.0049 207.89 93.8472C208.405 93.6891 208.952 93.6699 209.476 93.7905C210.001 93.9115 210.484 94.1683 210.878 94.5353L213.024 96.5337L215.154 98.5321Z" fill="#262626"/>
</g>
<path d="M29.1438 320.545H320.15" stroke="#CCCCCC" stroke-width="2" stroke-miterlimit="10"/>
</svg>
