<svg width="337" height="337" viewBox="0 0 337 337" fill="none" xmlns="http://www.w3.org/2000/svg">
<path d="M252.025 190.068C251.236 190.118 250.492 190.45 249.929 191.005C249.056 191.912 230.72 211.185 230.461 211.697C230.201 212.209 236.608 212.213 237.231 212.213C237.855 212.213 251.311 212.388 251.668 211.697C252.025 211.006 252.025 190.068 252.025 190.068Z" fill="#852222"/>
<path d="M264.42 104.073C264.42 104.073 264.083 102.186 260.713 102.904C257.343 103.621 244.638 106.914 244.254 106.991C243.87 107.069 239.324 106.611 241.979 109.539L274.234 145.109C274.234 145.109 283.029 152.5 277.584 161.478L266.301 173.893L259.011 181.502C259.011 181.502 257.266 180.538 257.586 185.816C257.906 191.093 257.306 209.608 257.306 209.608C257.306 209.608 256.969 211.229 259.022 209.537C261.074 207.845 288.678 178.048 288.678 178.048L301.666 163.729C301.666 163.729 305.743 159.563 303.91 152.207C302.077 144.85 293.096 136.823 293.096 136.823L264.42 104.073Z" fill="#852222"/>
<path d="M190.806 192.721C196.278 196.25 201.525 200.118 206.514 204.303C215.08 195.299 231.044 178.061 231.044 178.061L244.025 163.742C244.025 163.742 248.113 159.573 246.273 152.217C246.239 152.088 246.209 151.957 246.165 151.819C239.088 161.08 229.315 175.355 208.256 174.33L190.806 192.721Z" fill="#852222"/>
<path d="M184.339 109.525C186.125 111.503 200.208 127.028 209.159 136.899L216.573 145.088C217.813 146.21 218.88 147.508 219.741 148.94C226.434 146.426 233.15 143.956 239.799 141.348C238.436 139.756 236.979 138.246 235.438 136.825L208.886 106.495C208.596 106.461 208.32 106.441 208.03 106.407C204.061 106.016 200.117 105.406 196.215 104.581C195.079 104.335 193.937 104.079 192.804 103.809C188.76 106.013 194.355 110.525 186.6 106.977C186.472 106.997 185.926 106.977 185.296 107.007C184.046 107.122 182.56 107.56 184.339 109.525Z" fill="#852222"/>
<path d="M214.878 212.206H229.612H250.431H252.025" stroke="#D65A5A" stroke-width="2" stroke-miterlimit="10"/>
<path d="M279.016 102.556L308.881 136.677L316.379 145.247C318.858 148.08 320.202 151.73 320.151 155.494C320.101 159.258 318.66 162.87 316.106 165.636L277.54 207.319C276.111 208.859 274.381 210.088 272.457 210.929C270.532 211.77 268.455 212.204 266.355 212.206H257.593" stroke="#D65A5A" stroke-width="2" stroke-miterlimit="10"/>
<path d="M263.008 102.448L300.456 145.247C302.935 148.081 304.278 151.732 304.226 155.497C304.174 159.262 302.732 162.874 300.176 165.639L261.616 207.319C260.451 208.571 259.084 209.619 257.572 210.42" stroke="#D65A5A" stroke-width="2" stroke-miterlimit="10"/>
<path d="M257.586 182.991L275.487 164.321C277.771 161.986 279.072 158.863 279.119 155.597C279.167 152.33 277.959 149.171 275.743 146.77L240.358 107.752" stroke="#D65A5A" stroke-width="2" stroke-miterlimit="10"/>
<path d="M252.025 212.119C251.496 212.175 250.964 212.204 250.431 212.207H229.612L252.025 188.809" stroke="#D65A5A" stroke-width="2" stroke-miterlimit="10"/>
<path d="M208.461 174.287L208.418 174.341L190.806 192.721" stroke="#D65A5A" stroke-width="2" stroke-miterlimit="10"/>
<path d="M208.054 106.425L239.641 141.436" stroke="#D65A5A" stroke-width="2" stroke-miterlimit="10"/>
<path d="M246.303 151.626C246.91 154.075 246.899 156.637 246.27 159.081C245.642 161.525 244.415 163.774 242.701 165.625L206.749 204.495" stroke="#D65A5A" stroke-width="2" stroke-miterlimit="10"/>
<path d="M220.021 149.177C219.967 149.092 219.923 149.008 219.859 148.92C219.408 148.148 218.873 147.427 218.265 146.77L209.199 136.761L209.112 136.677" stroke="#D65A5A" stroke-width="2" stroke-miterlimit="10"/>
<path d="M308.881 136.678C308.881 136.678 305.824 107.443 279.016 102.557C271.487 101.188 263.733 102.001 256.366 103.871C250.324 105.401 244.348 107.474 238.08 107.848C231.408 108.245 224.641 107.602 217.978 107.207C214.972 107.025 211.936 106.813 208.91 106.513C208.62 106.479 208.343 106.459 208.054 106.425C204.085 106.034 200.14 105.424 196.238 104.599C195.103 104.353 193.96 104.097 192.828 103.827C192.258 103.709 191.692 103.571 191.126 103.443" stroke="#D65A5A" stroke-width="2" stroke-miterlimit="10"/>
<path d="M95.4518 297.999C80.206 284.765 70.9014 262.762 67.5853 242.906" stroke="#D65A5A" stroke-width="2" stroke-miterlimit="10"/>
<path d="M175.044 98.6942C168.904 97.0092 160.597 94.1919 149.497 89.5312C116.626 75.7142 104.928 88.9515 104.928 88.9515C103.005 90.6564 101.371 92.6616 100.089 94.8895C99.9306 95.1557 99.7789 95.432 99.6407 95.7016C88.4557 116.67 108.403 139.478 100.241 160.743C95.6102 172.848 84.1151 180.589 78.3727 192.117C75.3184 198.308 73.1134 204.883 71.818 211.663" stroke="#D65A5A" stroke-width="2" stroke-miterlimit="10"/>
<path d="M191.574 97.9897C191.608 97.9914 191.641 97.9981 191.672 98.0099" stroke="#D65A5A" stroke-width="2" stroke-miterlimit="10"/>
<path d="M118.745 174.384C121.687 214.79 162.586 214.824 163.273 214.376C163.273 214.376 160.624 217.153 176.736 204.316C192.848 191.48 199.463 172.423 199.463 172.423C206.244 175.577 218.713 173.949 218.713 173.949C226.767 171.523 233.511 166.434 238.663 161.261C231.556 152.536 232.934 145.864 233.47 144.172C226.71 146.929 218.979 149.847 215.821 150.187C209.698 150.845 210.251 142.15 210.251 142.15C204.765 108.736 185.384 107.041 185.384 107.041C164.389 104.615 152.219 113.667 142.086 136.36C131.952 159.054 118.745 174.384 118.745 174.384Z" fill="#999999"/>
<path d="M157.915 303.3H194.786C195.508 302.925 196.083 302.319 196.418 301.578C196.754 300.837 196.831 300.004 196.636 299.214C196.442 298.425 195.988 297.723 195.346 297.223C194.705 296.722 193.914 296.452 193.101 296.455H184.154C184.154 296.455 184.511 296.196 185.165 295.694H164.19C161.086 299.512 158.777 302.269 157.915 303.3Z" fill="#852222"/>
<path d="M24.5503 246.306L26.2859 265.704C26.3027 265.825 26.323 265.94 26.3398 266.071C26.8217 269.94 28.9313 269.984 28.9313 269.984L27.0374 274.099L27.1958 275.848V286.049C27.1955 286.787 26.9818 287.509 26.5798 288.128C26.1781 288.747 25.6058 289.236 24.9318 289.537C24.2578 289.838 23.5114 289.937 22.7821 289.823C22.0532 289.708 21.3728 289.386 20.8231 288.893C20.1188 288.268 19.674 287.403 19.5762 286.466C18.7708 278.951 16.9072 261.64 16.9072 261.64C16.1759 257.993 22.5991 248.503 24.5503 246.306Z" fill="#852222"/>
<path d="M154.791 219.252C173.75 235.091 197.381 238.232 195.008 248.767C192.568 259.551 174.273 283.242 164.18 295.687C161.099 299.516 158.788 302.265 157.911 303.28C157.689 303.57 157.574 303.708 157.574 303.708H193.101C193.695 303.711 194.281 303.564 194.803 303.28C195.516 302.9 196.082 302.293 196.411 301.554C196.74 300.816 196.812 299.989 196.616 299.205C196.42 298.421 195.968 297.724 195.331 297.227C194.694 296.729 193.909 296.459 193.101 296.459H184.15L185.161 295.687C191.996 290.437 231.33 258.978 227.357 234.245C225.605 223.293 216.613 212.856 206.517 204.303C201.528 200.118 196.282 196.249 190.809 192.72C190.115 192.272 189.441 191.834 188.787 191.416" stroke="#CCCCCC" stroke-width="2" stroke-miterlimit="10"/>
<path d="M252.029 146.997V304.079C252.029 304.816 252.322 305.523 252.843 306.045C253.365 306.566 254.072 306.859 254.809 306.859C255.546 306.859 256.253 306.566 256.775 306.045C257.296 305.523 257.589 304.816 257.589 304.079V146.997C257.588 146.447 257.424 145.91 257.118 145.454C256.812 144.998 256.378 144.642 255.87 144.432C255.362 144.221 254.804 144.167 254.264 144.273C253.726 144.38 253.23 144.644 252.841 145.032C252.582 145.289 252.376 145.595 252.237 145.932C252.097 146.27 252.027 146.632 252.029 146.997Z" stroke="#CCCCCC" stroke-width="2" stroke-miterlimit="10"/>
<path d="M238.37 303.711C238.368 306.845 239.263 309.914 240.947 312.557C242.632 315.2 245.037 317.306 247.878 318.628C250.72 319.949 253.88 320.431 256.987 320.017C260.093 319.602 263.017 318.309 265.412 316.288C267.808 314.268 269.577 311.605 270.509 308.613C271.442 305.621 271.501 302.424 270.677 299.401C269.854 296.377 268.184 293.651 265.863 291.544C263.543 289.438 260.668 288.039 257.579 287.511V304.078C257.579 304.815 257.286 305.523 256.765 306.044C256.243 306.566 255.536 306.858 254.799 306.858C254.061 306.858 253.354 306.566 252.833 306.044C252.311 305.523 252.019 304.815 252.019 304.078V287.511C248.198 288.167 244.733 290.153 242.235 293.118C239.737 296.082 238.368 299.835 238.37 303.711Z" stroke="#CCCCCC" stroke-width="2" stroke-miterlimit="10"/>
<path d="M115.955 320.154C106.874 320.154 99.5126 312.792 99.5126 303.711C99.5126 294.63 106.874 287.269 115.955 287.269C125.036 287.269 132.397 294.63 132.397 303.711C132.397 312.792 125.036 320.154 115.955 320.154Z" stroke="#CCCCCC" stroke-width="2" stroke-miterlimit="10"/>
<path d="M169.578 132.121C172.038 148.685 182.57 168.018 199.383 172.959C200.638 173.328 201.917 173.615 203.211 173.815C204.886 174.075 206.573 174.247 208.266 174.33C229.312 175.341 239.095 161.08 246.175 151.819C249.34 147.65 251.972 144.506 254.816 144.216" stroke="#CCCCCC" stroke-width="2" stroke-miterlimit="10"/>
<path d="M257.586 146.995V148.235C257.573 149.115 257.862 149.973 258.405 150.666C258.947 151.359 259.711 151.845 260.568 152.044C261.121 152.163 261.694 152.157 262.244 152.026C262.794 151.895 263.308 151.643 263.748 151.287C264.188 150.931 264.543 150.482 264.786 149.971C265.03 149.461 265.156 148.902 265.155 148.337V147.386C265.155 143.942 263.649 140.454 260.942 138.287C256.066 134.365 249.535 137.465 244.551 139.473C242.977 140.117 241.407 140.737 239.833 141.357C233.184 143.966 226.467 146.436 219.774 148.95L217.304 149.88C216.64 150.137 215.927 150.24 215.218 150.182C214.509 150.124 213.821 149.907 213.208 149.546C212.595 149.184 212.071 148.689 211.676 148.097C211.281 147.505 211.026 146.831 210.928 146.126C210.5 143.187 209.944 140.06 209.186 136.909C206.032 123.712 199.497 109.949 185.414 107.041L185.33 107.02C167.708 103.458 151.347 115.118 144.573 130.806C138.713 144.397 131.558 157.53 122.641 169.375C106.064 191.395 92.0886 200.622 68.6266 213.435C52.3091 222.352 36.0219 233.318 23.5663 247.31C21.6084 249.514 16.1523 257.993 16.9038 261.639C16.9038 261.639 18.7641 278.951 19.5661 286.469C19.6669 287.446 20.1394 288.347 20.8862 288.984C21.633 289.622 22.5965 289.947 23.5768 289.894C24.5571 289.84 25.4791 289.411 26.1518 288.696C26.8245 287.98 27.1958 287.034 27.1891 286.052V275.851C27.1871 275.145 27.2696 274.441 27.4351 273.754C29.1471 265.926 39.9041 258.505 45.5185 254.731C56.68 247.244 68.9559 241.571 81.8909 237.921C92.3042 234.969 102.731 234.359 113.316 232.704C114.033 232.597 114.749 232.484 115.466 232.367C128.993 230.008 142.51 225.661 154.787 219.268C168.045 212.37 179.874 203.092 188.77 191.432C193.102 185.773 196.669 179.567 199.379 172.975" stroke="#CCCCCC" stroke-width="2" stroke-miterlimit="10"/>
<path d="M238.367 303.711H167.068H132.316" stroke="#CCCCCC" stroke-width="2" stroke-miterlimit="10"/>
<path d="M115.874 306.852C114.34 306.852 113.097 305.608 113.097 304.075C113.097 302.541 114.34 301.298 115.874 301.298C117.408 301.298 118.651 302.541 118.651 304.075C118.651 305.608 117.408 306.852 115.874 306.852Z" stroke="#CCCCCC" stroke-width="2" stroke-miterlimit="10"/>
<path d="M99.5127 303.711H94.6734C94.6734 298.067 96.9151 292.655 100.905 288.665C104.896 284.674 110.308 282.433 115.952 282.433C121.595 282.433 127.007 284.674 130.998 288.665C134.988 292.655 137.23 298.067 137.23 303.711" stroke="#CCCCCC" stroke-width="2" stroke-miterlimit="10"/>
<path d="M276.091 303.711C276.093 298.548 274.217 293.561 270.812 289.68C267.408 285.799 262.708 283.289 257.589 282.618" stroke="#CCCCCC" stroke-width="2" stroke-miterlimit="10"/>
<path d="M252.029 282.618C246.912 283.291 242.215 285.802 238.813 289.684C235.412 293.565 233.538 298.55 233.541 303.711H238.37" stroke="#CCCCCC" stroke-width="2" stroke-miterlimit="10"/>
<path d="M205.26 72.1652C203.895 73.5839 201.671 73.803 199.814 73.7491C197.455 73.685 195.069 73.2705 192.737 72.9403L191.332 72.9605H191.312C191.042 72.9784 190.778 73.0488 190.535 73.1684C190.293 73.2881 190.076 73.4545 189.898 73.6581C189.72 73.8616 189.584 74.0982 189.497 74.3543C189.411 74.6104 189.376 74.8814 189.394 75.151C189.561 78.1793 190.062 81.1799 190.887 84.0984L188.295 85.7328C187.884 84.7825 188.184 83.3738 187.352 83.3131C186.759 82.3628 185.93 81.7731 184.747 82.5886C182.428 84.1826 181.754 88.4558 184.208 90.2317L182.9 93.1198C181.96 95.2092 178.064 96.2034 175.84 95.6878C176.608 93.6287 178.748 92.3515 178.748 92.3515C175.216 93.2209 172.423 88.9276 173.333 86.1305C173.949 84.2129 173.818 82.7605 172.699 81.0081C172.625 80.8901 173.289 80.6711 173.221 80.5565C173.1 79.2287 173.376 77.7729 173.973 77.0483C175.021 75.7576 177.282 75.3835 176.696 73.5738C176.437 72.7842 176.306 71.9583 176.308 71.1272C176.359 70.037 176.642 68.9704 177.14 67.9988C177.638 67.0276 178.338 66.174 179.193 65.4959C180.993 64.1479 183.173 65.1151 185.181 64.95C187.621 64.7647 189.225 62.591 191.79 62.3787C193.064 62.2742 194.122 62.7157 195.248 63.2482C196.195 63.7098 197.128 64.2019 198.041 64.7377C198.955 65.2735 199.76 65.7487 200.801 65.6712C202.149 65.6004 203.413 64.6602 204.805 64.9635C205.503 65.1064 206.132 65.4804 206.591 66.025C207.194 68.1111 206.581 70.7936 205.26 72.1652Z" fill="#852222"/>
<path d="M188.282 85.4369C188.225 85.2751 188.167 85.1201 188.1 84.9449V84.9246C187.912 84.3706 187.669 83.8365 187.375 83.3306C186.775 82.3803 185.953 81.7905 184.764 82.6027C182.442 84.2001 181.774 88.4732 184.221 90.256L182.917 93.1373C182.87 93.2445 182.815 93.3483 182.752 93.4474C182.027 94.7044 180.45 95.6042 178.661 95.6985H178.63C177.984 95.7299 177.337 95.6547 176.716 95.4761" stroke="#CCCCCC" stroke-width="2" stroke-linecap="round" stroke-linejoin="round"/>
<path d="M202.537 78.6255C202.537 78.6255 197.991 77.81 196.262 81.3215" stroke="#CCCCCC" stroke-width="2" stroke-miterlimit="10"/>
<path d="M201.903 88.8329C203.133 89.0823 204.775 89.2744 205.631 88.1589L203.326 84.0273C202.764 83.015 202.565 81.8419 202.759 80.7011C203.076 78.7836 203.993 75.8382 202.645 73.4253" stroke="#CCCCCC" stroke-width="2" stroke-miterlimit="10"/>
<path d="M198.507 83.3282C198.131 82.7877 198.341 81.9903 198.976 81.5478C199.611 81.1054 200.432 81.1849 200.808 81.7254C201.185 82.2663 200.975 83.0633 200.34 83.5058C199.704 83.9483 198.884 83.8688 198.507 83.3282Z" fill="#CCCCCC"/>
<path d="M191.305 109.064L191.574 97.8315" stroke="#CCCCCC" stroke-width="2" stroke-miterlimit="10"/>
<path d="M188.312 85.7432C188.312 85.6387 188.289 85.5342 188.282 85.4298C188.275 85.3253 188.252 85.2107 188.248 85.0928" stroke="#CCCCCC" stroke-width="2" stroke-linecap="round" stroke-linejoin="round"/>
<path d="M188.312 85.7424L189.202 85.1863L190.904 84.1079" stroke="#CCCCCC" stroke-width="2" stroke-linecap="round" stroke-linejoin="round"/>
<path d="M195.989 89.5317C195.989 89.5317 196.275 92.5074 199.767 93.5117" stroke="#CCCCCC" stroke-width="2" stroke-miterlimit="10"/>
<path d="M178.765 92.3617C175.233 93.2312 172.44 88.9378 173.349 86.1407C173.966 84.2232 173.835 82.7707 172.716 81.0183C172.642 80.9004 172.578 80.7824 172.514 80.6813C172.099 79.9541 171.912 79.1193 171.978 78.2846C172.043 77.4498 172.358 76.6542 172.881 76.0004C173.892 74.6187 175.516 74.0492 174.903 72.1754C174.633 71.3626 174.497 70.5113 174.499 69.6547C174.551 68.5308 174.844 67.4308 175.358 66.4296C175.872 65.4284 176.594 64.5491 177.478 63.8515C179.328 62.4395 181.582 63.4606 183.662 63.2921C186.166 63.0899 187.837 60.8354 190.466 60.6298C191.777 60.5287 192.875 60.9668 194.034 61.5262C195.012 62.0081 195.979 62.517 196.909 63.0663C197.839 63.6156 198.692 64.0975 199.763 64.0301C201.165 63.9493 202.459 62.9787 203.885 63.2989C205.31 63.619 206.22 64.7109 206.581 66.0353C207.167 68.1112 206.554 70.7937 205.233 72.1653C203.912 73.5369 201.644 73.8031 199.787 73.7492C197.428 73.6852 195.042 73.2707 192.71 72.9404L191.305 72.9606H191.285C190.744 73.0031 190.243 73.2569 189.889 73.667C189.535 74.0775 189.357 74.6106 189.394 75.1511C189.561 78.1794 190.062 81.1801 190.887 84.0985" stroke="#CCCCCC" stroke-width="2" stroke-miterlimit="10"/>
<path d="M188.383 95.0134C188.383 95.0134 194.179 101.753 198.81 99.8426C203.44 97.9318 203.103 89.1631 203.103 89.1631" stroke="#CCCCCC" stroke-width="2" stroke-linecap="round" stroke-linejoin="round"/>
<path d="M238.97 160.972L238.68 161.261C238.866 161.504 239.068 161.743 239.28 161.986L238.97 160.972Z" fill="#999999"/>
<path d="M233.497 144.172L233.74 144.074L233.642 143.737C233.583 143.879 233.535 144.024 233.497 144.172Z" fill="#999999"/>
<path d="M254.812 320.15H65.9643" stroke="#CCCCCC" stroke-width="2" stroke-miterlimit="10"/>
<path d="M178.297 92.4458L170.293 107.783" stroke="#CCCCCC" stroke-width="2" stroke-linecap="round" stroke-linejoin="round"/>
<path d="M82.3594 200.714C82.3594 200.714 50.8229 214.278 44.4839 222.669" stroke="#CCCCCC" stroke-width="2" stroke-miterlimit="10"/>
<path d="M88.058 303.283H74.514" stroke="#CCCCCC" stroke-width="2" stroke-miterlimit="10"/>
<path d="M81.2877 299.489H60.9699" stroke="#CCCCCC" stroke-width="2" stroke-miterlimit="10"/>
<path d="M120.134 128.465C107.708 128.465 97.6356 118.392 97.6356 105.966C97.6356 93.5409 107.708 83.4683 120.134 83.4683C132.559 83.4683 142.632 93.5409 142.632 105.966C142.632 118.392 132.559 128.465 120.134 128.465Z" stroke="#D65A5A" stroke-width="2" stroke-miterlimit="10"/>
<path d="M120.134 118.324C113.309 118.324 107.776 112.791 107.776 105.966C107.776 99.1409 113.309 93.6084 120.134 93.6084C126.959 93.6084 132.492 99.1409 132.492 105.966C132.492 112.791 126.959 118.324 120.134 118.324Z" stroke="#D65A5A" stroke-width="2" stroke-miterlimit="10"/>
<path d="M120.134 108.086C118.963 108.086 118.014 107.137 118.014 105.966C118.014 104.796 118.963 103.846 120.134 103.846C121.304 103.846 122.253 104.796 122.253 105.966C122.253 107.137 121.304 108.086 120.134 108.086Z" stroke="#D65A5A" stroke-width="2" stroke-miterlimit="10"/>
<path d="M115.749 98.8926L119.018 104.163" stroke="#D65A5A" stroke-width="2" stroke-miterlimit="10"/>
<path d="M120.134 93.6084V95.8056" stroke="#D65A5A" stroke-width="2" stroke-miterlimit="10"/>
<path d="M107.776 105.967H109.859" stroke="#D65A5A" stroke-width="2" stroke-miterlimit="10"/>
<path d="M120.134 118.324V116.188" stroke="#D65A5A" stroke-width="2" stroke-miterlimit="10"/>
<path d="M132.492 105.967H130.614" stroke="#D65A5A" stroke-width="2" stroke-miterlimit="10"/>
</svg>
