<svg width="337" height="337" viewBox="0 0 337 337" fill="none" xmlns="http://www.w3.org/2000/svg">
<path d="M89.214 183.945C89.214 183.945 84.0444 134.743 119.234 128.118C154.424 121.492 160.965 127.05 185.475 110.227C209.985 93.4035 287.424 143.06 271.747 212.907C269.898 221.191 267.551 229.355 264.72 237.356" stroke="#D65A5A" stroke-width="2" stroke-miterlimit="10"/>
<path d="M240.979 151.374H228.179V318.522H240.979V151.374Z" stroke="#D65A5A" stroke-width="2" stroke-miterlimit="10"/>
<path d="M126.469 280.017V151.374H228.179V318.526H211.043V267.19C211.038 265.132 210.218 263.161 208.761 261.707C207.304 260.254 205.329 259.438 203.272 259.439H152.115C150.058 259.439 148.084 260.255 146.627 261.708C145.17 263.161 144.349 265.133 144.344 267.19V318.526H127.666M126.469 299.175V290.464M138.672 238.384C138.565 238.383 138.458 238.361 138.359 238.32C138.261 238.278 138.171 238.217 138.095 238.141C138.02 238.065 137.96 237.974 137.92 237.875C137.88 237.775 137.859 237.668 137.86 237.561V230.983C137.86 230.767 137.946 230.561 138.098 230.409C138.25 230.256 138.457 230.171 138.672 230.171H151.936C152.044 230.17 152.15 230.19 152.25 230.231C152.349 230.271 152.44 230.331 152.516 230.406C152.593 230.482 152.654 230.571 152.695 230.67C152.736 230.769 152.758 230.876 152.759 230.983V237.561C152.759 237.669 152.738 237.776 152.697 237.876C152.656 237.976 152.595 238.067 152.519 238.144C152.442 238.22 152.352 238.28 152.252 238.322C152.152 238.363 152.045 238.384 151.936 238.384H138.672ZM161.989 249.06C161.987 249.276 161.9 249.484 161.746 249.637C161.592 249.789 161.384 249.875 161.167 249.875H147.903C147.686 249.875 147.478 249.789 147.324 249.637C147.17 249.484 147.082 249.276 147.08 249.06V242.475C147.083 242.258 147.171 242.052 147.325 241.9C147.479 241.748 147.686 241.663 147.903 241.663H161.167C161.383 241.663 161.591 241.748 161.745 241.9C161.899 242.052 161.986 242.258 161.989 242.475V249.06ZM155.357 237.561V230.983C155.357 230.876 155.379 230.769 155.421 230.67C155.462 230.571 155.523 230.482 155.599 230.406C155.676 230.331 155.766 230.271 155.866 230.231C155.965 230.19 156.072 230.17 156.179 230.171H169.444C169.66 230.171 169.868 230.256 170.022 230.408C170.176 230.56 170.263 230.767 170.266 230.983V237.561C170.265 237.779 170.178 237.988 170.024 238.142C169.87 238.296 169.661 238.383 169.444 238.384H156.176C156.068 238.384 155.961 238.362 155.862 238.321C155.762 238.279 155.672 238.219 155.596 238.142C155.519 238.066 155.459 237.975 155.418 237.876C155.378 237.776 155.357 237.669 155.357 237.561ZM179.426 249.06C179.426 249.167 179.405 249.272 179.365 249.371C179.324 249.471 179.264 249.56 179.189 249.636C179.113 249.712 179.024 249.772 178.925 249.813C178.826 249.854 178.72 249.875 178.613 249.875H165.336C165.229 249.875 165.123 249.854 165.024 249.813C164.925 249.772 164.835 249.712 164.76 249.636C164.684 249.56 164.625 249.471 164.584 249.371C164.544 249.272 164.523 249.167 164.523 249.06V242.475C164.523 242.259 164.609 242.053 164.761 241.901C164.914 241.748 165.12 241.663 165.336 241.663H178.61C178.825 241.663 179.032 241.748 179.184 241.901C179.337 242.053 179.422 242.259 179.422 242.475L179.426 249.06ZM187.756 237.561C187.757 237.669 187.736 237.776 187.694 237.876C187.653 237.976 187.593 238.067 187.516 238.144C187.44 238.22 187.349 238.28 187.249 238.322C187.149 238.363 187.042 238.384 186.934 238.384H173.67C173.562 238.383 173.456 238.361 173.357 238.32C173.257 238.278 173.167 238.217 173.092 238.141C173.016 238.065 172.956 237.974 172.915 237.875C172.874 237.775 172.854 237.669 172.854 237.561V230.983C172.854 230.876 172.875 230.77 172.916 230.671C172.957 230.573 173.017 230.483 173.093 230.407C173.169 230.332 173.259 230.272 173.358 230.232C173.457 230.191 173.563 230.17 173.67 230.171H186.931C187.038 230.17 187.145 230.19 187.244 230.231C187.343 230.271 187.434 230.331 187.511 230.406C187.587 230.482 187.648 230.571 187.689 230.67C187.731 230.769 187.752 230.876 187.753 230.983L187.756 237.561ZM205.25 237.561C205.251 237.668 205.23 237.775 205.19 237.875C205.15 237.974 205.09 238.065 205.015 238.141C204.939 238.217 204.849 238.278 204.75 238.32C204.651 238.361 204.545 238.383 204.438 238.384H191.17C191.062 238.384 190.955 238.363 190.855 238.322C190.755 238.28 190.664 238.22 190.588 238.144C190.511 238.067 190.45 237.976 190.409 237.876C190.368 237.776 190.347 237.669 190.348 237.561V230.983C190.348 230.876 190.37 230.769 190.411 230.67C190.453 230.571 190.514 230.482 190.59 230.406C190.667 230.331 190.757 230.271 190.857 230.231C190.956 230.19 191.062 230.17 191.17 230.171H204.434C204.65 230.171 204.856 230.256 205.009 230.409C205.161 230.561 205.246 230.767 205.246 230.983L205.25 237.561ZM217.53 212.863C217.533 213.882 217.334 214.892 216.946 215.835C216.558 216.778 215.987 217.634 215.267 218.356C214.547 219.078 213.692 219.651 212.75 220.042C211.808 220.433 210.799 220.634 209.779 220.634H145.021C142.96 220.633 140.984 219.814 139.527 218.357C138.07 216.899 137.251 214.923 137.25 212.863V185.461C137.25 183.4 138.069 181.423 139.526 179.966C140.984 178.508 142.96 177.69 145.021 177.69H209.766C210.785 177.69 211.795 177.891 212.737 178.282C213.678 178.673 214.534 179.245 215.254 179.967C215.974 180.689 216.544 181.546 216.933 182.489C217.321 183.431 217.519 184.441 217.517 185.461L217.53 212.863ZM216.394 168.614C216.038 168.976 215.613 169.262 215.144 169.457C214.675 169.652 214.172 169.752 213.665 169.75H141.725C140.701 169.749 139.718 169.342 138.993 168.617C138.268 167.892 137.861 166.91 137.86 165.885C137.864 164.861 138.272 163.88 138.996 163.155C139.72 162.431 140.701 162.023 141.725 162.019H213.658C214.166 162.019 214.669 162.118 215.138 162.313C215.607 162.507 216.033 162.791 216.392 163.15C216.751 163.51 217.036 163.936 217.23 164.405C217.424 164.874 217.524 165.377 217.523 165.885C217.525 166.392 217.426 166.895 217.232 167.364C217.038 167.832 216.752 168.258 216.391 168.614H216.394Z" stroke="#D65A5A" stroke-width="2" stroke-miterlimit="10"/>
<path d="M151.936 238.384H138.672C138.565 238.383 138.458 238.362 138.359 238.32C138.261 238.278 138.171 238.217 138.095 238.141C138.02 238.065 137.96 237.974 137.92 237.875C137.88 237.775 137.859 237.669 137.86 237.561V230.983C137.86 230.768 137.946 230.561 138.098 230.409C138.25 230.257 138.457 230.171 138.672 230.171H151.936C152.044 230.17 152.15 230.19 152.25 230.231C152.349 230.271 152.44 230.331 152.516 230.406C152.593 230.482 152.653 230.572 152.695 230.67C152.737 230.769 152.758 230.876 152.759 230.983V237.561C152.759 237.67 152.738 237.777 152.697 237.876C152.656 237.977 152.595 238.068 152.519 238.144C152.442 238.22 152.352 238.281 152.252 238.322C152.152 238.363 152.045 238.384 151.936 238.384Z" stroke="#D65A5A" stroke-width="2" stroke-miterlimit="10"/>
<path d="M147.903 241.664H161.167C161.383 241.664 161.591 241.749 161.745 241.901C161.899 242.053 161.986 242.259 161.989 242.476V249.061C161.987 249.277 161.9 249.485 161.746 249.638C161.592 249.79 161.384 249.876 161.167 249.876H147.903C147.686 249.876 147.478 249.79 147.324 249.638C147.17 249.485 147.082 249.277 147.08 249.061V242.476C147.083 242.259 147.171 242.053 147.325 241.901C147.479 241.749 147.686 241.664 147.903 241.664Z" stroke="#D65A5A" stroke-width="2" stroke-miterlimit="10"/>
<path d="M170.263 230.983V237.561C170.262 237.779 170.175 237.988 170.021 238.142C169.867 238.296 169.658 238.383 169.44 238.384H156.176C156.068 238.384 155.961 238.363 155.861 238.322C155.761 238.281 155.67 238.22 155.594 238.144C155.517 238.068 155.456 237.977 155.415 237.876C155.374 237.777 155.353 237.67 155.354 237.561V230.983C155.354 230.876 155.376 230.769 155.417 230.67C155.459 230.572 155.52 230.482 155.596 230.406C155.672 230.331 155.763 230.271 155.863 230.231C155.962 230.19 156.068 230.17 156.176 230.171H169.44C169.657 230.171 169.864 230.256 170.018 230.408C170.172 230.56 170.26 230.767 170.263 230.983Z" stroke="#D65A5A" stroke-width="2" stroke-miterlimit="10"/>
<path d="M178.61 241.664H165.336C164.887 241.664 164.523 242.027 164.523 242.476V249.064C164.523 249.513 164.887 249.876 165.336 249.876H178.61C179.059 249.876 179.422 249.513 179.422 249.064V242.476C179.422 242.027 179.059 241.664 178.61 241.664Z" stroke="#D65A5A" stroke-width="2" stroke-miterlimit="10"/>
<path d="M173.67 238.384C173.562 238.383 173.456 238.362 173.357 238.32C173.257 238.278 173.167 238.218 173.092 238.141C173.016 238.065 172.956 237.975 172.915 237.875C172.874 237.775 172.854 237.669 172.854 237.561V230.983C172.854 230.876 172.875 230.77 172.916 230.671C172.957 230.573 173.017 230.483 173.093 230.408C173.169 230.332 173.259 230.272 173.358 230.232C173.457 230.191 173.563 230.171 173.67 230.171H186.931C187.038 230.17 187.145 230.19 187.244 230.231C187.343 230.271 187.434 230.331 187.511 230.406C187.587 230.482 187.648 230.572 187.689 230.67C187.731 230.769 187.752 230.876 187.753 230.983V237.561C187.753 237.67 187.732 237.777 187.691 237.876C187.65 237.977 187.589 238.068 187.513 238.144C187.436 238.22 187.346 238.281 187.246 238.322C187.146 238.363 187.039 238.384 186.931 238.384H173.67Z" stroke="#D65A5A" stroke-width="2" stroke-miterlimit="10"/>
<path d="M191.17 238.384C191.062 238.384 190.955 238.363 190.855 238.322C190.755 238.281 190.664 238.22 190.588 238.144C190.511 238.068 190.451 237.977 190.409 237.876C190.368 237.777 190.347 237.67 190.348 237.561V230.983C190.348 230.876 190.37 230.769 190.411 230.67C190.453 230.572 190.514 230.482 190.59 230.406C190.667 230.331 190.757 230.271 190.857 230.231C190.956 230.19 191.062 230.17 191.17 230.171H204.434C204.65 230.171 204.856 230.257 205.009 230.409C205.161 230.561 205.246 230.768 205.246 230.983V237.561C205.247 237.669 205.227 237.775 205.187 237.875C205.146 237.974 205.087 238.065 205.011 238.141C204.936 238.217 204.846 238.278 204.747 238.32C204.648 238.362 204.542 238.383 204.434 238.384H191.17Z" stroke="#D65A5A" stroke-width="2" stroke-miterlimit="10"/>
<path d="M211.043 267.191V318.526H144.344V267.191C144.349 265.133 145.17 263.162 146.627 261.709C148.084 260.256 150.058 259.44 152.115 259.44H203.272C205.329 259.439 207.304 260.254 208.761 261.708C210.218 263.161 211.038 265.133 211.043 267.191Z" stroke="#D65A5A" stroke-width="2" stroke-miterlimit="10"/>
<path d="M137.86 165.885C137.864 164.861 138.272 163.879 138.996 163.156C139.72 162.431 140.701 162.023 141.725 162.02H213.658C214.166 162.019 214.669 162.119 215.138 162.313C215.607 162.507 216.033 162.792 216.392 163.151C216.751 163.509 217.036 163.936 217.23 164.405C217.424 164.874 217.524 165.377 217.523 165.885C217.52 166.909 217.112 167.89 216.387 168.614C215.663 169.338 214.682 169.747 213.658 169.75H141.725C140.701 169.749 139.718 169.342 138.993 168.617C138.268 167.892 137.861 166.91 137.86 165.885Z" stroke="#D65A5A" stroke-width="2" stroke-miterlimit="10"/>
<path d="M173.515 189.293V209.065C173.516 209.783 173.375 210.495 173.1 211.159C172.826 211.823 172.424 212.427 171.916 212.936C171.409 213.444 170.806 213.848 170.142 214.123C169.478 214.399 168.767 214.541 168.048 214.541H148.876C147.426 214.54 146.035 213.962 145.01 212.935C143.985 211.908 143.409 210.516 143.41 209.065V189.293C143.41 188.575 143.551 187.864 143.826 187.2C144.1 186.536 144.502 185.933 145.01 185.425C145.518 184.917 146.12 184.513 146.784 184.238C147.447 183.963 148.158 183.821 148.876 183.82H168.048C168.767 183.82 169.478 183.962 170.142 184.237C170.805 184.512 171.408 184.915 171.916 185.424C172.424 185.932 172.826 186.535 173.1 187.199C173.375 187.863 173.516 188.575 173.515 189.293Z" stroke="#D65A5A" stroke-width="2" stroke-miterlimit="10"/>
<path d="M211.161 189.269V209.092C211.162 209.81 211.021 210.522 210.747 211.186C210.473 211.85 210.07 212.454 209.562 212.962C209.055 213.471 208.452 213.874 207.788 214.15C207.125 214.425 206.413 214.567 205.695 214.568H186.486C185.767 214.567 185.055 214.425 184.392 214.15C183.728 213.875 183.125 213.471 182.617 212.962C182.109 212.454 181.706 211.85 181.432 211.186C181.157 210.522 181.016 209.81 181.016 209.092V189.269C181.016 188.55 181.157 187.839 181.432 187.174C181.706 186.511 182.109 185.907 182.617 185.398C183.125 184.89 183.728 184.486 184.392 184.211C185.055 183.936 185.767 183.793 186.486 183.793H205.695C206.413 183.793 207.125 183.936 207.788 184.211C208.452 184.487 209.055 184.89 209.562 185.398C210.07 185.907 210.473 186.511 210.747 187.175C211.021 187.839 211.162 188.551 211.161 189.269Z" stroke="#D65A5A" stroke-width="2" stroke-miterlimit="10"/>
<path d="M209.766 177.69H145.021C142.96 177.69 140.984 178.509 139.526 179.966C138.069 181.423 137.25 183.4 137.25 185.461V212.863C137.251 214.923 138.07 216.899 139.527 218.356C140.984 219.814 142.96 220.633 145.021 220.634H209.766C210.785 220.634 211.795 220.433 212.737 220.042C213.678 219.651 214.534 219.078 215.254 218.356C215.974 217.635 216.544 216.778 216.933 215.835C217.321 214.892 217.519 213.882 217.517 212.863V185.461C217.519 184.441 217.321 183.431 216.933 182.488C216.544 181.546 215.974 180.689 215.254 179.967C214.534 179.245 213.678 178.673 212.737 178.282C211.795 177.891 210.785 177.69 209.766 177.69ZM173.515 209.065C173.516 209.783 173.375 210.495 173.1 211.159C172.826 211.823 172.424 212.427 171.916 212.935C171.409 213.444 170.806 213.847 170.142 214.123C169.478 214.398 168.767 214.54 168.048 214.541H148.876C147.426 214.539 146.035 213.961 145.01 212.934C143.985 211.907 143.409 210.515 143.41 209.065V189.293C143.41 188.574 143.551 187.863 143.826 187.199C144.1 186.536 144.502 185.932 145.01 185.424C145.518 184.916 146.12 184.513 146.784 184.237C147.447 183.962 148.158 183.82 148.876 183.82H168.048C168.767 183.82 169.478 183.961 170.142 184.236C170.805 184.511 171.408 184.915 171.916 185.423C172.424 185.932 172.826 186.535 173.1 187.199C173.375 187.863 173.516 188.574 173.515 189.293V209.065ZM211.161 209.092C211.162 209.81 211.021 210.522 210.747 211.186C210.472 211.85 210.07 212.454 209.562 212.962C209.055 213.471 208.452 213.874 207.788 214.15C207.125 214.425 206.413 214.567 205.695 214.568H186.486C185.767 214.567 185.055 214.425 184.392 214.15C183.728 213.874 183.125 213.471 182.617 212.962C182.109 212.454 181.706 211.85 181.431 211.186C181.157 210.522 181.016 209.81 181.016 209.092V189.269C181.016 188.55 181.157 187.839 181.431 187.174C181.706 186.51 182.109 185.907 182.617 185.398C183.125 184.89 183.728 184.486 184.392 184.211C185.055 183.935 185.767 183.793 186.486 183.793H205.695C206.413 183.793 207.125 183.935 207.788 184.211C208.452 184.486 209.055 184.89 209.562 185.398C210.07 185.907 210.472 186.511 210.747 187.175C211.021 187.839 211.162 188.55 211.161 189.269V209.092Z" stroke="#D65A5A" stroke-width="2" stroke-miterlimit="10"/>
<path d="M173.515 189.293V209.065C173.516 209.783 173.375 210.495 173.1 211.159C172.826 211.823 172.424 212.427 171.916 212.936C171.409 213.444 170.806 213.848 170.142 214.123C169.478 214.399 168.767 214.541 168.048 214.541H148.876C147.426 214.54 146.035 213.962 145.01 212.935C143.985 211.908 143.409 210.516 143.41 209.065V189.293C143.41 188.575 143.551 187.864 143.826 187.2C144.1 186.536 144.502 185.933 145.01 185.425C145.518 184.917 146.12 184.513 146.784 184.238C147.447 183.963 148.158 183.821 148.876 183.82H168.048C168.767 183.82 169.478 183.962 170.142 184.237C170.805 184.512 171.408 184.915 171.916 185.424C172.424 185.932 172.826 186.535 173.1 187.199C173.375 187.863 173.516 188.575 173.515 189.293Z" stroke="#D65A5A" stroke-width="2" stroke-miterlimit="10"/>
<path d="M211.161 189.269V209.092C211.162 209.81 211.021 210.522 210.747 211.186C210.473 211.85 210.07 212.454 209.562 212.962C209.055 213.471 208.452 213.874 207.788 214.15C207.125 214.425 206.413 214.567 205.695 214.568H186.486C185.767 214.567 185.055 214.425 184.392 214.15C183.728 213.875 183.125 213.471 182.617 212.962C182.109 212.454 181.706 211.85 181.432 211.186C181.157 210.522 181.016 209.81 181.016 209.092V189.269C181.016 188.55 181.157 187.839 181.432 187.174C181.706 186.511 182.109 185.907 182.617 185.398C183.125 184.89 183.728 184.486 184.392 184.211C185.055 183.936 185.767 183.793 186.486 183.793H205.695C206.413 183.793 207.125 183.936 207.788 184.211C208.452 184.487 209.055 184.89 209.562 185.398C210.07 185.907 210.473 186.511 210.747 187.175C211.021 187.839 211.162 188.551 211.161 189.269Z" stroke="#D65A5A" stroke-width="2" stroke-miterlimit="10"/>
<path d="M211.161 189.269V209.092C211.162 209.81 211.021 210.522 210.747 211.186C210.473 211.85 210.07 212.454 209.562 212.962C209.055 213.471 208.452 213.874 207.788 214.15C207.125 214.425 206.413 214.567 205.695 214.568H186.486C185.767 214.567 185.055 214.425 184.392 214.15C183.728 213.875 183.125 213.471 182.617 212.962C182.109 212.454 181.706 211.85 181.432 211.186C181.157 210.522 181.016 209.81 181.016 209.092V189.269C181.016 188.55 181.157 187.839 181.432 187.174C181.706 186.511 182.109 185.907 182.617 185.398C183.125 184.89 183.728 184.486 184.392 184.211C185.055 183.936 185.767 183.793 186.486 183.793H205.695C206.413 183.793 207.125 183.936 207.788 184.211C208.452 184.487 209.055 184.89 209.562 185.398C210.07 185.907 210.473 186.511 210.747 187.175C211.021 187.839 211.162 188.551 211.161 189.269Z" stroke="#D65A5A" stroke-width="2" stroke-miterlimit="10"/>
<path d="M173.515 189.293V209.065C173.516 209.783 173.375 210.495 173.1 211.159C172.826 211.823 172.424 212.427 171.916 212.936C171.409 213.444 170.806 213.848 170.142 214.123C169.478 214.399 168.767 214.541 168.048 214.541H148.876C147.426 214.54 146.035 213.962 145.01 212.935C143.985 211.908 143.409 210.516 143.41 209.065V189.293C143.41 188.575 143.551 187.864 143.826 187.2C144.1 186.536 144.502 185.933 145.01 185.425C145.518 184.917 146.12 184.513 146.784 184.238C147.447 183.963 148.158 183.821 148.876 183.82H168.048C168.767 183.82 169.478 183.962 170.142 184.237C170.805 184.512 171.408 184.915 171.916 185.424C172.424 185.932 172.826 186.535 173.1 187.199C173.375 187.863 173.516 188.575 173.515 189.293Z" stroke="#D65A5A" stroke-width="2" stroke-miterlimit="10"/>
<path d="M211.043 267.191V318.526H144.344V267.191C144.349 265.133 145.17 263.162 146.627 261.709C148.084 260.256 150.058 259.44 152.115 259.44H203.272C205.329 259.439 207.304 260.254 208.761 261.708C210.218 263.161 211.038 265.133 211.043 267.191Z" stroke="#D65A5A" stroke-width="2" stroke-miterlimit="10"/>
<path d="M152.759 230.983V237.561C152.759 237.67 152.738 237.777 152.697 237.876C152.656 237.977 152.595 238.068 152.519 238.144C152.442 238.22 152.352 238.281 152.252 238.322C152.152 238.363 152.045 238.384 151.936 238.384H138.672C138.565 238.383 138.458 238.362 138.359 238.32C138.261 238.278 138.171 238.217 138.095 238.141C138.02 238.065 137.96 237.974 137.92 237.875C137.88 237.775 137.859 237.669 137.86 237.561V230.983C137.86 230.768 137.946 230.561 138.098 230.409C138.25 230.257 138.457 230.171 138.672 230.171H151.936C152.044 230.17 152.15 230.19 152.25 230.231C152.349 230.271 152.44 230.331 152.516 230.406C152.593 230.482 152.653 230.572 152.695 230.67C152.737 230.769 152.758 230.876 152.759 230.983Z" stroke="#D65A5A" stroke-width="2" stroke-miterlimit="10"/>
<path d="M170.263 230.983V237.561C170.262 237.779 170.175 237.988 170.021 238.142C169.867 238.296 169.658 238.383 169.44 238.384H156.176C156.068 238.384 155.961 238.363 155.861 238.322C155.761 238.281 155.67 238.22 155.594 238.144C155.517 238.068 155.456 237.977 155.415 237.876C155.374 237.777 155.353 237.67 155.354 237.561V230.983C155.354 230.876 155.376 230.769 155.417 230.67C155.459 230.572 155.52 230.482 155.596 230.406C155.672 230.331 155.763 230.271 155.863 230.231C155.962 230.19 156.068 230.17 156.176 230.171H169.44C169.657 230.171 169.864 230.256 170.018 230.408C170.172 230.56 170.26 230.767 170.263 230.983Z" stroke="#D65A5A" stroke-width="2" stroke-miterlimit="10"/>
<path d="M187.753 230.983V237.561C187.753 237.67 187.732 237.777 187.691 237.876C187.65 237.977 187.589 238.068 187.513 238.144C187.436 238.22 187.346 238.281 187.246 238.322C187.146 238.363 187.039 238.384 186.931 238.384H173.67C173.562 238.383 173.456 238.362 173.357 238.32C173.257 238.278 173.167 238.218 173.092 238.141C173.016 238.065 172.956 237.975 172.915 237.875C172.874 237.775 172.854 237.669 172.854 237.561V230.983C172.854 230.876 172.875 230.77 172.916 230.671C172.957 230.573 173.017 230.483 173.093 230.408C173.169 230.332 173.259 230.272 173.358 230.232C173.457 230.191 173.563 230.171 173.67 230.171H186.931C187.038 230.17 187.145 230.19 187.244 230.231C187.343 230.271 187.434 230.331 187.511 230.406C187.587 230.482 187.648 230.572 187.689 230.67C187.731 230.769 187.752 230.876 187.753 230.983Z" stroke="#D65A5A" stroke-width="2" stroke-miterlimit="10"/>
<path d="M205.233 230.983V237.561C205.234 237.669 205.213 237.775 205.173 237.875C205.133 237.974 205.073 238.065 204.998 238.141C204.922 238.217 204.832 238.278 204.734 238.32C204.634 238.362 204.528 238.383 204.421 238.384H191.17C191.062 238.384 190.955 238.363 190.855 238.322C190.755 238.281 190.664 238.22 190.588 238.144C190.511 238.068 190.451 237.977 190.409 237.876C190.368 237.777 190.347 237.67 190.348 237.561V230.983C190.348 230.876 190.37 230.769 190.411 230.67C190.453 230.572 190.514 230.482 190.59 230.406C190.667 230.331 190.757 230.271 190.857 230.231C190.956 230.19 191.062 230.17 191.17 230.171H204.434C204.647 230.175 204.851 230.262 205 230.414C205.149 230.566 205.233 230.77 205.233 230.983Z" stroke="#D65A5A" stroke-width="2" stroke-miterlimit="10"/>
<path d="M161.989 242.476V249.061C161.987 249.277 161.9 249.485 161.746 249.638C161.592 249.79 161.384 249.876 161.167 249.876H147.903C147.686 249.876 147.478 249.79 147.324 249.638C147.17 249.485 147.082 249.277 147.08 249.061V242.476C147.083 242.259 147.171 242.053 147.325 241.901C147.479 241.749 147.686 241.664 147.903 241.664H161.167C161.383 241.664 161.591 241.749 161.745 241.901C161.899 242.053 161.986 242.259 161.989 242.476Z" stroke="#D65A5A" stroke-width="2" stroke-miterlimit="10"/>
<path d="M178.61 241.664H165.336C164.887 241.664 164.523 242.027 164.523 242.476V249.064C164.523 249.513 164.887 249.876 165.336 249.876H178.61C179.059 249.876 179.422 249.513 179.422 249.064V242.476C179.422 242.027 179.059 241.664 178.61 241.664Z" stroke="#D65A5A" stroke-width="2" stroke-miterlimit="10"/>
<path d="M217.527 165.885C217.523 166.909 217.114 167.891 216.389 168.615C215.665 169.34 214.683 169.748 213.658 169.75H141.725C140.701 169.749 139.718 169.342 138.993 168.617C138.268 167.892 137.861 166.91 137.86 165.885C137.864 164.861 138.272 163.879 138.996 163.156C139.72 162.431 140.701 162.023 141.725 162.02H213.658C214.166 162.019 214.669 162.118 215.139 162.312C215.608 162.505 216.035 162.79 216.394 163.149C216.754 163.508 217.039 163.935 217.233 164.404C217.427 164.874 217.527 165.377 217.527 165.885Z" stroke="#D65A5A" stroke-width="2" stroke-miterlimit="10"/>
<path d="M203.063 265.377H152.125C150.917 265.377 149.938 266.356 149.938 267.564V267.648C149.938 268.856 150.917 269.835 152.125 269.835H203.063C204.271 269.835 205.25 268.856 205.25 267.648V267.564C205.25 266.356 204.271 265.377 203.063 265.377Z" stroke="#D65A5A" stroke-width="2" stroke-miterlimit="10"/>
<path d="M203.063 274.578H152.125C150.917 274.578 149.938 275.557 149.938 276.765V276.849C149.938 278.057 150.917 279.036 152.125 279.036H203.063C204.271 279.036 205.25 278.057 205.25 276.849V276.765C205.25 275.557 204.271 274.578 203.063 274.578Z" stroke="#D65A5A" stroke-width="2" stroke-miterlimit="10"/>
<path d="M203.063 283.778H152.125C150.917 283.778 149.938 284.757 149.938 285.965V286.049C149.938 287.257 150.917 288.236 152.125 288.236H203.063C204.271 288.236 205.25 287.257 205.25 286.049V285.965C205.25 284.757 204.271 283.778 203.063 283.778Z" stroke="#D65A5A" stroke-width="2" stroke-miterlimit="10"/>
<path d="M203.063 292.981H152.125C150.917 292.981 149.938 293.96 149.938 295.168V295.252C149.938 296.46 150.917 297.439 152.125 297.439H203.063C204.271 297.439 205.25 296.46 205.25 295.252V295.168C205.25 293.96 204.271 292.981 203.063 292.981Z" stroke="#D65A5A" stroke-width="2" stroke-miterlimit="10"/>
<path d="M203.063 302.181H152.125C150.917 302.181 149.938 303.16 149.938 304.368V304.453C149.938 305.66 150.917 306.64 152.125 306.64H203.063C204.271 306.64 205.25 305.66 205.25 304.453V304.368C205.25 303.16 204.271 302.181 203.063 302.181Z" stroke="#D65A5A" stroke-width="2" stroke-miterlimit="10"/>
<path d="M117.064 136.148H247.173C249.212 136.148 251.168 136.958 252.61 138.4C254.053 139.842 254.863 141.799 254.863 143.838V151.252H109.373V143.838C109.373 141.799 110.184 139.842 111.626 138.4C113.068 136.958 115.024 136.148 117.064 136.148Z" stroke="#D65A5A" stroke-width="2" stroke-miterlimit="10"/>
<path d="M240.975 256.224H254.964V268.953H268.239V283.572H281.166V295.02H293.888V305.092H320.15V318.519H240.975V256.224Z" stroke="#D65A5A" stroke-width="2" stroke-miterlimit="10"/>
<path d="M243.614 228.041H255.055H255.402L268.259 240.901L281.22 253.859L293.891 266.53L299.883 272.522" stroke="#D65A5A" stroke-width="2" stroke-miterlimit="10"/>
<path d="M255.055 268.953V228.041" stroke="#D65A5A" stroke-width="2" stroke-miterlimit="10"/>
<path d="M293.891 295.024V266.53" stroke="#D65A5A" stroke-width="2" stroke-miterlimit="10"/>
<path d="M268.259 274.681V240.897" stroke="#D65A5A" stroke-width="2" stroke-miterlimit="10"/>
<path d="M281.166 253.858V284.691" stroke="#D65A5A" stroke-width="2" stroke-miterlimit="10"/>
<path d="M126.419 290.538V299.175" stroke="#D65A5A" stroke-width="2" stroke-miterlimit="10"/>
<path d="M113.62 299.175V293.864C114.162 295.421 115.621 296.779 117.502 297.45C116.892 293.001 115.699 285.992 113.62 279.72" stroke="#D65A5A" stroke-width="2" stroke-miterlimit="10"/>
<path d="M126.419 273.24V199.167H113.62V269.91" stroke="#D65A5A" stroke-width="2" stroke-miterlimit="10"/>
<path d="M113.62 293.871V299.175" stroke="#D65A5A" stroke-width="2" stroke-miterlimit="10"/>
<path d="M113.62 269.91V199.167H33.946V318.526H112.585H113.62" stroke="#D65A5A" stroke-width="2" stroke-miterlimit="10"/>
<path d="M58.1797 216.647V263.285C58.1797 267.493 61.5911 270.904 65.7993 270.904H83.6603C87.8684 270.904 91.2798 267.493 91.2798 263.285V216.647C91.2798 212.439 87.8684 209.028 83.6603 209.028H65.7993C61.5911 209.028 58.1797 212.439 58.1797 216.647Z" stroke="#D65A5A" stroke-width="2" stroke-miterlimit="10"/>
<path d="M62.8876 219.303V231.812C62.8876 234.777 65.2911 237.181 68.256 237.181H81.2372C84.2021 237.181 86.6056 234.777 86.6056 231.812V219.303C86.6056 216.338 84.2021 213.935 81.2372 213.935H68.256C65.2911 213.935 62.8876 216.338 62.8876 219.303Z" stroke="#D65A5A" stroke-width="2" stroke-miterlimit="10"/>
<path d="M62.9078 248.315V260.788C62.9078 263.752 65.3113 266.156 68.2762 266.156H81.217C84.1819 266.156 86.5854 263.752 86.5854 260.788V248.315C86.5854 245.35 84.1819 242.947 81.217 242.947H68.2762C65.3113 242.947 62.9078 245.35 62.9078 248.315Z" stroke="#D65A5A" stroke-width="2" stroke-miterlimit="10"/>
<path d="M59.43 277.964H46.1387C45.6938 277.964 45.3333 278.325 45.3333 278.77V285.375C45.3333 285.82 45.6938 286.18 46.1387 286.18H59.43C59.8748 286.18 60.2354 285.82 60.2354 285.375V278.77C60.2354 278.325 59.8748 277.964 59.43 277.964Z" stroke="#D65A5A" stroke-width="2" stroke-miterlimit="10"/>
<path d="M76.927 277.964H63.6357C63.1909 277.964 62.8303 278.325 62.8303 278.77V285.375C62.8303 285.82 63.1909 286.18 63.6357 286.18H76.927C77.3718 286.18 77.7324 285.82 77.7324 285.375V278.77C77.7324 278.325 77.3718 277.964 76.927 277.964Z" stroke="#D65A5A" stroke-width="2" stroke-miterlimit="10"/>
<path d="M94.424 277.964H81.1328C80.6879 277.964 80.3273 278.325 80.3273 278.77V285.375C80.3273 285.82 80.6879 286.18 81.1328 286.18H94.424C94.8689 286.18 95.2295 285.82 95.2295 285.375V278.77C95.2295 278.325 94.8689 277.964 94.424 277.964Z" stroke="#D65A5A" stroke-width="2" stroke-miterlimit="10"/>
<path d="M68.657 289.459H55.3657C54.9209 289.459 54.5603 289.82 54.5603 290.265V296.87C54.5603 297.315 54.9209 297.676 55.3657 297.676H68.657C69.1019 297.676 69.4624 297.315 69.4624 296.87V290.265C69.4624 289.82 69.1019 289.459 68.657 289.459Z" stroke="#D65A5A" stroke-width="2" stroke-miterlimit="10"/>
<path d="M86.0934 289.459H72.8021C72.3573 289.459 71.9967 289.82 71.9967 290.265V296.87C71.9967 297.315 72.3573 297.676 72.8021 297.676H86.0934C86.5382 297.676 86.8988 297.315 86.8988 296.87V290.265C86.8988 289.82 86.5382 289.459 86.0934 289.459Z" stroke="#D65A5A" stroke-width="2" stroke-miterlimit="10"/>
<path d="M24.6886 183.944H126.463V199.038H16.85V191.786C16.8509 189.707 17.6769 187.713 19.1467 186.243C20.6164 184.773 22.6097 183.946 24.6886 183.944Z" stroke="#D65A5A" stroke-width="2" stroke-miterlimit="10"/>
<path d="M120.141 283.101C120.838 282.535 121.647 282.012 122.206 281.389C123.777 279.633 123.174 277.389 124.181 275.461C125.408 273.102 129.263 271.467 133.054 271.683C132.695 272.792 132.449 273.935 132.32 275.094C132.208 276.125 132.478 277.271 132.182 278.271C131.7 279.876 129.125 280.85 128.812 282.497C128.535 283.953 130.24 285.315 129.957 286.798C129.657 288.388 127.214 289.268 126.314 290.673C125.58 291.819 125.927 293.126 125.546 294.343C125.084 295.812 123.487 297.11 121.394 297.713L121.185 297.774C120.417 297.114 119.757 296.337 119.231 295.472" stroke="#D65A5A" stroke-width="2" stroke-miterlimit="10"/>
<path d="M130.756 273.529C125.105 279.295 122.446 291.451 121.411 297.719C121.327 298.248 121.249 298.73 121.185 299.172" stroke="#D65A5A" stroke-width="2" stroke-miterlimit="10"/>
<path d="M131.262 302.704L128.66 317.242C128.588 317.65 128.374 318.019 128.057 318.285C127.74 318.552 127.338 318.698 126.924 318.698H113.333C112.915 318.698 112.51 318.549 112.192 318.278C111.873 318.007 111.661 317.631 111.594 317.218L109.188 302.704H131.262Z" stroke="#D65A5A" stroke-width="2" stroke-miterlimit="10"/>
<path d="M133.732 301.083C133.695 301.525 133.494 301.936 133.168 302.237C132.843 302.537 132.416 302.704 131.973 302.704H108.514C108.075 302.704 107.652 302.54 107.327 302.245C107.002 301.949 106.799 301.543 106.758 301.106C106.735 300.862 106.763 300.615 106.84 300.381C106.918 300.148 107.043 299.933 107.208 299.751C107.374 299.569 107.575 299.423 107.8 299.324C108.025 299.224 108.268 299.172 108.514 299.172H131.959C132.204 299.17 132.447 299.219 132.672 299.317C132.897 299.414 133.1 299.557 133.266 299.737C133.433 299.917 133.561 300.129 133.641 300.361C133.721 300.592 133.752 300.838 133.732 301.083Z" stroke="#D65A5A" stroke-width="2" stroke-miterlimit="10"/>
<path d="M113.62 293.864C113.58 293.754 113.546 293.641 113.518 293.527C113.144 292.119 113.478 290.592 112.774 289.271C111.908 287.643 109.569 286.625 109.272 284.779C109.009 283.067 110.647 281.483 110.374 279.794C110.078 277.89 107.604 276.761 107.136 274.898C106.856 273.745 107.112 272.414 107.011 271.218C106.885 269.883 106.646 268.562 106.297 267.268C109.094 267.076 111.924 268.151 113.62 269.897C114.128 270.401 114.536 270.997 114.823 271.653C115.79 273.88 115.214 276.482 116.723 278.517C117.546 279.619 118.91 280.442 119.611 281.594C119.846 281.971 120.01 282.386 120.097 282.821C120.1 282.853 120.106 282.884 120.114 282.915C120.13 282.976 120.137 283.033 120.147 283.084C120.4 284.789 119.75 286.636 119.959 288.391C120.147 289.847 120.936 291.306 120.484 292.729C120.168 293.685 119.748 294.604 119.231 295.468C118.811 296.213 118.296 296.9 117.697 297.511C117.63 297.494 117.569 297.467 117.502 297.443C116.892 292.995 115.699 285.985 113.62 279.714" stroke="#D65A5A" stroke-width="2" stroke-miterlimit="10"/>
<path d="M117.724 299.168C117.664 298.649 117.586 298.083 117.502 297.456C116.892 293.008 115.699 285.998 113.62 279.726C112.309 275.733 110.637 272.023 108.527 269.428" stroke="#D65A5A" stroke-width="2" stroke-miterlimit="10"/>
<path d="M116.723 278.527C116.723 278.527 117.097 272.724 120.228 270.958C123.359 269.192 123.291 279.086 123.291 279.086" stroke="#D65A5A" stroke-width="2" stroke-miterlimit="10"/>
<path d="M120.141 283.1C119.787 280.897 119.952 278.643 120.622 276.515" stroke="#D65A5A" stroke-width="2" stroke-miterlimit="10"/>
<path d="M167.294 174.529C167.728 175 167.979 175.612 168.001 176.253C168.022 176.893 167.813 177.521 167.412 178.02L159.623 191.416L159.35 194.112L156.927 218.46L153.079 257.131C153.055 257.377 153.005 257.623 152.961 257.869C152.937 258.065 152.91 258.26 152.877 258.456C152.826 258.708 152.766 258.948 152.708 259.19C152.651 259.433 152.614 259.591 152.553 259.787C152.493 259.982 152.412 260.252 152.327 260.481L152.122 261.057C152.031 261.286 151.936 261.505 151.842 261.731C151.748 261.957 151.663 262.099 151.573 262.284C151.482 262.469 151.36 262.708 151.236 262.911C151.111 263.113 151.03 263.268 150.922 263.436C150.814 263.605 150.676 263.834 150.538 264.03C150.4 264.225 150.302 264.367 150.184 264.522C149.928 264.859 149.675 265.175 149.395 265.479C149.251 265.647 149.099 265.816 148.947 265.977C148.796 266.139 148.61 266.291 148.455 266.446C148.3 266.601 148.149 266.732 147.987 266.867C147.825 267.002 147.65 267.157 147.464 267.292C147.279 267.426 147.127 267.555 146.956 267.673C146.784 267.79 146.588 267.929 146.403 268.057C146.218 268.185 146.039 268.282 145.854 268.394C145.668 268.505 145.469 268.616 145.277 268.731C145.085 268.845 144.886 268.926 144.684 269.017C144.482 269.108 144.293 269.213 144.091 269.297C143.889 269.381 143.656 269.469 143.437 269.543C143.218 269.617 143.046 269.695 142.851 269.755C142.48 269.873 142.099 269.974 141.715 270.062C141.496 270.112 141.284 270.153 141.065 270.187C140.846 270.22 140.64 270.271 140.421 270.308H140.455L143.461 276.711L146.275 276.738C145.367 276.867 144.448 276.906 143.532 276.856L147.987 286.356C148.702 287.879 149.021 289.559 148.915 291.238C148.808 292.918 148.28 294.543 147.378 295.964C146.476 297.385 145.229 298.555 143.755 299.366C142.28 300.178 140.625 300.603 138.942 300.604H133.55C133.341 300.604 133.135 300.646 132.942 300.726C132.749 300.807 132.574 300.925 132.427 301.073C132.28 301.221 132.164 301.396 132.084 301.59C132.005 301.783 131.965 301.989 131.966 302.198V302.987C133.806 303.611 135.366 304.868 136.365 306.534C137.365 308.201 137.74 310.168 137.424 312.086C137.108 314.003 136.121 315.746 134.639 317.004C133.157 318.261 131.277 318.951 129.334 318.951C127.39 318.951 125.51 318.261 124.028 317.004C122.547 315.746 121.56 314.003 121.244 312.086C120.928 310.168 121.303 308.201 122.303 306.534C123.302 304.868 124.862 303.611 126.702 302.987V302.198C126.702 301.989 126.661 301.782 126.582 301.589C126.502 301.395 126.385 301.219 126.237 301.071C126.09 300.923 125.914 300.806 125.721 300.725C125.527 300.645 125.321 300.604 125.111 300.604H65.6139C65.4046 300.604 65.1977 300.645 65.0043 300.725C64.8112 300.806 64.6356 300.923 64.488 301.071C64.34 301.219 64.2231 301.395 64.1432 301.589C64.0637 301.782 64.0229 301.989 64.0233 302.198V302.987C65.8667 303.611 67.4283 304.869 68.4299 306.538C69.4314 308.206 69.8079 310.176 69.4914 312.097C69.1753 314.016 68.1872 315.762 66.7038 317.021C65.22 318.281 63.3375 318.972 61.3913 318.972C59.4451 318.972 57.5626 318.281 56.0788 317.021C54.5954 315.762 53.6073 314.016 53.2912 312.097C52.9747 310.176 53.3512 308.206 54.3527 306.538C55.3543 304.869 56.9159 303.611 58.7593 302.987V302.198C58.7593 301.775 58.5915 301.37 58.2926 301.071C57.9937 300.772 57.5879 300.604 57.1653 300.604H47.918C47.4924 300.603 47.0769 300.476 46.7237 300.239C46.3702 300.002 46.0952 299.665 45.9331 299.272C45.7707 298.878 45.7285 298.446 45.8121 298.028C45.8954 297.611 46.1006 297.228 46.4015 296.927C46.6004 296.728 46.8366 296.57 47.0971 296.462C47.3573 296.355 47.6363 296.3 47.918 296.301H137.004C138.129 296.299 139.235 296.015 140.22 295.474C141.206 294.932 142.039 294.152 142.644 293.204C143.248 292.255 143.604 291.17 143.678 290.048C143.753 288.926 143.544 287.804 143.07 286.784L135.41 270.254L58.638 264.046C58.5794 264.033 58.5194 264.024 58.4594 264.019C58.1224 263.986 57.7854 263.942 57.4484 263.885C57.3352 263.87 57.2226 263.85 57.1114 263.824C56.7306 263.757 56.3666 263.672 55.9993 263.578L55.6859 263.487C55.3489 263.382 55.0119 263.275 54.6749 263.15L54.412 263.049C54.1054 262.931 53.8021 262.796 53.5055 262.651C53.3798 262.599 53.2571 262.539 53.1382 262.473C52.8686 262.338 52.599 262.193 52.3361 262.031C50.124 260.731 48.2901 258.876 47.0159 256.65C45.7414 254.423 45.0707 251.902 45.0704 249.336V216.058C45.0711 212.508 46.3517 209.077 48.677 206.395C51.0026 203.713 54.2172 201.959 57.7315 201.455L153.894 187.638L163.368 174.519C163.62 174.252 163.925 174.039 164.263 173.894C164.601 173.749 164.965 173.675 165.333 173.676C165.701 173.677 166.064 173.753 166.401 173.9C166.739 174.046 167.042 174.26 167.294 174.529Z" fill="#262626"/>
<path d="M276.734 287.986C270.517 275.086 257.717 252.059 240.139 238.151L238.428 207.251C239.725 207.187 241.008 206.961 242.249 206.577C243.658 206.348 244.608 205.991 244.945 205.465C245.204 205.028 245.385 204.549 245.481 204.05C245.763 203.434 245.897 202.761 245.872 202.085C245.872 201.748 245.845 201.347 245.838 200.939C245.963 197.542 245.633 192.659 245.235 186.863C244.827 178.505 244.372 170.35 244.362 170.275V170.259C244.362 170.141 244.413 162.818 244.753 154.733C245.191 159.32 247.092 162.191 249.582 163.953C252.278 166.174 255.813 166.777 258.846 166.777C261.064 166.773 263.272 166.482 265.414 165.911C269.024 164.786 271.993 162.99 274.197 160.428C276.219 158.48 277.904 155.997 278.365 152.944C278.786 150.474 278.652 147.941 277.974 145.53C277.379 142.724 275.788 140.23 273.496 138.506C272.957 138.051 272.362 137.666 271.727 137.361C270.658 136.741 269.556 136.141 268.512 135.453C267.102 134.467 265.873 133.244 264.882 131.837C264.229 130.635 263.831 129.311 263.713 127.948C263.819 125.672 263.787 123.39 263.618 121.117C263.618 120.642 263.568 120.167 263.517 119.702C263.389 118.074 263.271 116.949 263.271 116.949C261.888 113.388 259.526 110.29 256.457 108.015C256.268 107.863 256.076 107.718 255.887 107.573C253.194 105.607 250.066 104.319 246.768 103.819C246.465 103.775 246.158 103.742 245.862 103.718C244.889 103.559 243.905 103.472 242.92 103.455C241.66 102.928 240.579 102.051 239.802 100.928C239.121 99.6881 238.638 98.3499 238.37 96.9611C237.989 94.6898 237.956 91.9634 237.767 88.8192C237.796 85.6619 236.975 82.5547 235.388 79.8247C235.381 79.8035 235.369 79.7839 235.354 79.7674C234.677 78.6297 233.856 77.5843 232.911 76.6569C230.191 73.4352 226.403 71.4199 221.692 72.596C221.648 72.596 221.604 72.623 221.554 72.6398C221.358 72.6398 221.166 72.6398 220.971 72.6735C220.966 72.6719 220.959 72.6719 220.954 72.6735C219.11 72.8269 217.324 73.3887 215.724 74.3181C215.135 74.6595 214.579 75.0541 214.062 75.4976C210.945 78.1936 209.156 82.3623 208.67 86.4905C208.647 86.659 208.637 86.8275 208.63 86.996C208.084 87.6542 207.761 88.4681 207.707 89.3213C207.653 90.151 207.842 90.9787 208.249 91.7036C208.656 92.4285 209.265 93.0199 210.002 93.4058V93.6181C210.054 95.0756 210.373 96.5116 210.942 97.8542C211.899 100.126 213.611 102.71 216.509 103.125C216.614 103.125 216.715 103.142 216.806 103.159L218.925 106.94L219.434 109.134L220.614 114.219L221.018 113.99C221.487 113.727 221.952 113.467 222.434 113.211L222.74 113.771C220.929 114.806 219.2 115.977 217.567 117.275C213.399 120.42 208.28 125.225 204.677 131.8C202.557 135.48 201.058 139.48 200.593 143.727C200.59 143.783 200.584 143.839 200.576 143.895C200.515 144.276 200.464 144.657 200.424 145.048V143.191C200.35 143.191 200.279 143.157 200.205 143.15V143.117C199.945 143.079 199.687 143.027 199.433 142.962L180.009 131.396C179.137 130.614 178.506 129.599 178.192 128.471C177.654 126.295 176.437 124.348 174.718 122.91C173.25 121.767 171.521 121.008 169.686 120.699C169.575 120.672 169.457 120.656 169.349 120.639C169.423 120.476 169.462 120.3 169.462 120.121C169.463 119.943 169.425 119.766 169.353 119.603C169.28 119.44 169.173 119.295 169.039 119.177C168.905 119.058 168.748 118.97 168.578 118.917L154.221 114.384C153.922 114.289 153.597 114.309 153.312 114.44C153.026 114.572 152.8 114.806 152.678 115.095L149.372 122.917C149.304 123.079 149.271 123.253 149.275 123.428C149.279 123.603 149.319 123.775 149.393 123.934C149.468 124.093 149.574 124.234 149.706 124.349C149.838 124.464 149.993 124.55 150.16 124.602L150.535 124.72V124.754L159.02 127.385L159.175 127.436C159.175 127.605 159.175 127.773 159.192 127.942C159.215 128.747 159.3 129.549 159.445 130.341C159.505 130.678 159.58 131.015 159.664 131.352C159.714 131.537 159.758 131.716 159.826 131.895L159.853 131.989C159.903 132.147 159.954 132.326 160.021 132.478C160.038 132.541 160.058 132.602 160.082 132.663C160.087 132.665 160.093 132.665 160.099 132.663C160.309 133.208 160.573 133.731 160.887 134.223C161.627 135.379 162.708 136.277 163.981 136.791C165.184 137.263 166.471 137.172 167.688 137.654C168.624 138.045 169.483 138.603 170.222 139.298L170.68 139.797C170.434 140.165 168.224 143.578 169.818 144.653L169.757 144.68L171.368 145.691L191.133 158.743C191.328 158.895 191.531 159.04 191.726 159.181L190.304 160.748C186.381 162.137 181.751 163.653 178.081 164.705C175.88 165.264 173.659 165.756 171.422 166.154C167.988 166.747 164.486 166.774 161.073 167.357C158.589 167.765 156.486 170.08 156.018 172.672C155.627 174.781 155.532 177.053 157.864 178.138C160.533 179.378 161.864 175.58 163.482 174.232C165.976 172.122 168.456 174.64 171.051 176.072C171.287 177.46 171.695 178.798 172.008 180.163C172.091 180.647 172.278 181.107 172.557 181.511C173.033 182.121 173.531 182.185 173.973 181.959L173.862 182.054C174.711 181.829 175.567 181.604 176.43 181.38C177.238 181.254 178.035 181.061 178.812 180.803C184.602 179.428 190.772 178.148 196.943 176.598H196.966C197.256 176.523 197.553 176.446 197.839 176.379C197.936 176.376 198.032 176.391 198.122 176.425C198.212 176.459 198.294 176.511 198.365 176.577C198.435 176.643 198.491 176.723 198.53 176.811C198.57 176.899 198.591 176.993 198.594 177.09C198.56 177.531 198.517 177.979 198.476 178.438C198.028 180.412 197.29 185.744 196.454 190.047C195.996 191.955 195.521 193.734 195.062 195.311C194.318 196.996 193.59 198.658 193.819 200.029C193.844 200.641 194.081 201.225 194.489 201.681C194.897 202.137 195.451 202.437 196.057 202.53L197.121 202.692C197.853 202.867 199.09 203.079 200.64 203.301C200.852 204.808 201.081 206.334 201.334 207.817L201.395 208.191C201.573 209.172 201.759 210.173 201.944 211.164V211.191V211.224L202.096 212.037L202.257 212.913L201.027 223.811L200.66 227.137L191.305 309.632L181.464 312.25L174.091 314.218C173.822 314.276 173.566 314.382 173.336 314.532C172.994 314.746 172.712 315.044 172.518 315.398C172.324 315.752 172.224 316.15 172.227 316.554C172.228 316.949 172.33 317.338 172.524 317.683C172.63 317.887 172.764 318.075 172.921 318.242C173.247 318.564 173.659 318.785 174.108 318.879C174.275 318.918 174.445 318.938 174.617 318.936H203.356L205.715 309.638L219.802 253.899L220.54 254.573C220.54 254.573 220.54 254.6 220.567 254.606V254.623L242.168 275.16L242.424 275.386L242.761 275.723L247.26 279.993L247.597 280.306L247.732 280.441C264.532 296.671 265.131 298.79 264.757 299.013H264.545L256.794 315.095C256.552 315.6 256.495 316.173 256.631 316.716C256.767 317.26 257.088 317.738 257.539 318.07L258.081 318.468C258.569 318.82 259.172 318.976 259.769 318.903C260.366 318.831 260.914 318.536 261.303 318.077L280.981 295.077C280.981 295.077 279.521 293.732 276.734 287.986ZM174.566 181.454C174.668 181.33 174.761 181.199 174.846 181.063C174.849 181.105 174.865 181.146 174.89 181.181L174.566 181.454ZM191.244 160.411C191.355 160.361 191.463 160.317 191.581 160.273L192.744 159.818L192.794 159.842C192.296 160.027 191.777 160.223 191.244 160.411ZM199.133 142.887C198.127 142.572 197.2 142.046 196.414 141.344L195.339 140.7L199.322 142.921C199.255 142.925 199.194 142.925 199.133 142.908V142.887Z" fill="#262626"/>
<path d="M193.829 160.045L193.243 159.826C193.201 159.803 193.16 159.778 193.121 159.751C190.058 157.77 187.665 154.973 185.62 152C183.463 148.863 176.062 145.634 173.67 142.662C172.136 140.782 170.532 138.618 168.183 137.681C166.973 137.206 165.679 137.297 164.476 136.819C163.203 136.307 162.122 135.409 161.386 134.251C161.067 133.757 160.799 133.232 160.587 132.684C160.561 132.621 160.54 132.557 160.523 132.491C160.444 132.301 160.38 132.105 160.331 131.905C160.267 131.723 160.22 131.548 160.173 131.363C160.08 131.03 160.007 130.692 159.954 130.352C159.828 129.59 159.748 128.821 159.714 128.05V128.013C159.687 127.231 159.698 126.463 159.735 125.711V125.691H159.698L156.257 124.481C155.782 124.324 155.358 124.042 155.031 123.664C154.704 123.286 154.484 122.826 154.397 122.334C154.35 122.06 154.359 121.779 154.424 121.509C154.502 121.151 154.658 120.815 154.879 120.524C155.101 120.233 155.384 119.994 155.707 119.824C156.006 119.665 156.335 119.57 156.673 119.545C157.01 119.519 157.349 119.564 157.669 119.675L164.594 122.189L166.016 122.702L166.053 122.722C166.053 122.722 166.053 120.612 168.075 120.656C169.946 120.703 176.723 121.253 178.731 128.663C179.045 129.79 179.675 130.803 180.548 131.582L196.919 141.385C198.032 142.394 199.429 143.035 200.919 143.222V145.301C200.917 145.303 200.915 145.305 200.914 145.308C200.913 145.31 200.913 145.313 200.913 145.316C200.913 145.319 200.913 145.321 200.914 145.324C200.915 145.327 200.917 145.329 200.919 145.331V146.844L202.22 155.96L203.137 162.333C201.941 162.43 200.737 162.387 199.551 162.205L198.773 161.912H198.752L193.829 160.045Z" fill="#262626"/>
<path d="M200.704 145.193V145.22C200.316 148.633 199.932 152.596 199.629 156.981C197.445 157.992 195.217 158.868 193.027 159.741C192.985 159.719 192.944 159.694 192.906 159.667C191.417 158.689 190.05 157.538 188.835 156.236L170.252 144.704C171.402 144.122 172.427 143.321 173.269 142.345L173.326 142.288C176.827 138.527 179.864 132.178 180.241 131.382L180.322 131.467L196.693 141.27C197.807 142.278 199.203 142.918 200.694 143.103L200.704 145.193Z" fill="#999999"/>
<path d="M167.742 125.849L167.368 126.86L167.01 127.84L166.815 128.397L166.788 128.481L166.751 128.582C166.663 128.835 166.478 129.042 166.238 129.159C165.997 129.276 165.72 129.293 165.467 129.205L159.543 127.386H159.516L151.003 124.77L153.214 119.544L154.188 117.242C154.312 116.952 154.539 116.719 154.826 116.589C155.113 116.458 155.438 116.438 155.738 116.534L167.469 120.241C167.089 120.155 166.702 120.099 166.313 120.076C166.037 120.059 165.76 120.105 165.503 120.208C165.246 120.311 165.015 120.47 164.827 120.672C164.648 120.875 164.52 121.117 164.452 121.377C164.383 121.638 164.376 121.912 164.432 122.176C164.608 122.853 164.956 123.473 165.443 123.975C165.491 124.029 165.538 124.076 165.592 124.13C166.027 124.613 166.532 125.03 167.088 125.367C167.088 125.367 167.105 125.367 167.125 125.394C167.32 125.56 167.526 125.712 167.742 125.849Z" fill="#852222"/>
<path d="M159.671 127.386C159.671 127.568 159.671 127.763 159.691 127.945C159.715 128.752 159.801 129.555 159.947 130.348C160.001 130.689 160.074 131.026 160.166 131.359C160.213 131.541 160.257 131.716 160.321 131.898C160.385 132.08 160.452 132.303 160.533 132.505C160.559 132.58 160.59 132.653 160.624 132.724" stroke="#CCCCCC" stroke-width="2" stroke-miterlimit="10"/>
<path d="M170.438 126.527C170.101 126.473 169.764 126.409 169.427 126.325C169.09 126.241 168.84 126.15 168.557 126.042C168.106 125.866 167.673 125.647 167.263 125.388C167.263 125.388 167.236 125.388 167.226 125.361C166.61 124.985 166.057 124.515 165.585 123.969C165.097 123.467 164.749 122.847 164.574 122.17C164.512 121.906 164.516 121.631 164.585 121.369C164.653 121.107 164.785 120.866 164.968 120.667C165.157 120.464 165.388 120.305 165.645 120.202C165.902 120.099 166.178 120.054 166.454 120.07C166.973 120.111 167.488 120.191 167.995 120.309C168.719 120.437 169.444 120.555 170.161 120.704C171.996 121.016 173.725 121.775 175.196 122.914C176.912 124.353 178.128 126.299 178.671 128.472C178.981 129.599 179.608 130.614 180.477 131.397L200.909 143.562" stroke="#CCCCCC" stroke-width="2" stroke-miterlimit="10"/>
<path d="M159.694 127.941C159.694 127.941 160.348 131.618 165.46 131.517C165.857 131.502 166.239 131.367 166.556 131.129C166.873 130.891 167.109 130.561 167.233 130.185C167.357 129.808 167.363 129.403 167.249 129.023C167.136 128.643 166.909 128.307 166.599 128.059L166.532 128.009" stroke="#CCCCCC" stroke-width="2" stroke-miterlimit="10"/>
<path d="M160.516 132.475C160.516 132.475 163.02 135.08 165.518 133.955C167.725 132.944 166.215 130.965 166.215 130.965" stroke="#CCCCCC" stroke-width="2" stroke-miterlimit="10"/>
<path d="M167.347 127.891L167.165 127.837" stroke="#CCCCCC" stroke-width="2" stroke-miterlimit="10"/>
<path d="M140.913 270.301C139.851 270.452 138.774 270.483 137.705 270.391L136.02 270.257L140.913 270.301Z" fill="#5D1717"/>
<path d="M159.853 194.129L153.568 257.148C153.238 260.442 151.81 263.528 149.515 265.912C147.219 268.296 144.188 269.838 140.91 270.291C139.847 270.443 138.771 270.474 137.702 270.382L136.017 270.248L59.1233 264.037C56.895 263.863 54.7366 263.179 52.8147 262.038C51.8852 260.084 51.405 257.947 51.4094 255.784V254.318L122.055 260.047L123.74 260.185C124.809 260.273 125.885 260.242 126.948 260.094C130.226 259.639 133.256 258.096 135.551 255.712C137.846 253.329 139.274 250.243 139.606 246.951L144.661 196.35L159.853 194.129Z" fill="#852222"/>
<path d="M144.654 196.313L139.599 246.914C139.268 250.206 137.84 253.292 135.544 255.675C133.249 258.059 130.219 259.602 126.941 260.057C125.878 260.206 124.803 260.236 123.733 260.148L122.048 260.009L51.4026 254.28V222.498C51.4043 218.948 52.6846 215.517 55.0089 212.833C57.3335 210.15 60.5468 208.393 64.0603 207.886L144.654 196.313Z" fill="#5D1717"/>
<path d="M146.777 276.74C145.713 276.892 144.636 276.923 143.565 276.831L141.88 276.697L146.777 276.74Z" fill="#5D1717"/>
<path d="M140.954 270.301L148.489 286.362C149.203 287.886 149.521 289.564 149.413 291.243C149.306 292.922 148.777 294.547 147.875 295.967C146.972 297.387 145.726 298.557 144.252 299.367C142.778 300.178 141.123 300.603 139.441 300.604H134.049C133.84 300.604 133.633 300.644 133.44 300.724C133.247 300.803 133.072 300.92 132.924 301.068C132.776 301.215 132.659 301.39 132.579 301.583C132.499 301.776 132.458 301.983 132.458 302.191V310.023C132.458 310.721 132.181 311.391 131.687 311.884C131.193 312.378 130.524 312.655 129.826 312.655C129.128 312.655 128.458 312.378 127.965 311.884C127.471 311.391 127.194 310.721 127.194 310.023V302.188C127.194 301.979 127.153 301.772 127.074 301.579C126.994 301.386 126.877 301.211 126.729 301.063C126.581 300.916 126.405 300.799 126.212 300.72C126.019 300.64 125.812 300.6 125.603 300.601H66.1093C65.9007 300.6 65.6941 300.641 65.5014 300.721C65.3086 300.8 65.1334 300.917 64.9861 301.065C64.8385 301.212 64.7215 301.387 64.642 301.58C64.5625 301.773 64.5217 301.979 64.522 302.188V310.02C64.4978 310.702 64.2096 311.348 63.7183 311.822C63.2269 312.296 62.5711 312.561 61.8884 312.561C61.2056 312.561 60.5498 312.296 60.0585 311.822C59.5675 311.348 59.279 310.702 59.2547 310.02V302.188C59.2551 301.979 59.2143 301.773 59.1347 301.58C59.0552 301.387 58.9383 301.212 58.7907 301.065C58.6434 300.917 58.4682 300.8 58.2754 300.721C58.0826 300.641 57.8761 300.6 57.6674 300.601H48.4202C47.8634 300.579 47.3367 300.342 46.9505 299.94C46.5643 299.538 46.3486 299.003 46.3486 298.445C46.3486 297.888 46.5643 297.353 46.9505 296.951C47.3367 296.549 47.8634 296.312 48.4202 296.29H137.496C138.619 296.289 139.724 296.005 140.708 295.465C141.693 294.924 142.525 294.145 143.129 293.198C143.734 292.252 144.09 291.169 144.166 290.048C144.241 288.928 144.033 287.806 143.562 286.787L135.902 270.274" fill="#999999"/>
<path d="M137.702 270.392L59.1233 264.04C55.4274 263.742 51.9796 262.063 49.4655 259.338C46.9515 256.613 45.5553 253.041 45.5557 249.333V216.058C45.5567 212.508 46.8369 209.078 49.1616 206.395C51.4865 203.713 54.6998 201.958 58.2134 201.452L154.373 187.635L163.853 174.509C164.107 174.241 164.413 174.028 164.753 173.882C165.092 173.737 165.458 173.664 165.828 173.666C166.197 173.668 166.562 173.746 166.9 173.895C167.238 174.044 167.542 174.261 167.792 174.533C168.224 175.005 168.473 175.616 168.495 176.256C168.517 176.896 168.311 177.523 167.914 178.024L160.115 191.433L153.574 257.148C153.19 260.995 151.313 264.537 148.344 267.014C145.376 269.491 141.555 270.704 137.702 270.392Z" stroke="#CCCCCC" stroke-width="2" stroke-miterlimit="10"/>
<path d="M138.045 310.737C138.048 312.246 137.635 313.727 136.851 315.016C136.067 316.305 134.943 317.353 133.601 318.044C132.26 318.736 130.754 319.044 129.249 318.935C127.744 318.826 126.299 318.304 125.071 317.426C123.844 316.548 122.882 315.349 122.293 313.96C121.703 312.571 121.508 311.046 121.728 309.553C121.949 308.061 122.578 306.658 123.544 305.499C124.511 304.341 125.779 303.471 127.207 302.986V310.023C127.207 310.721 127.485 311.39 127.978 311.884C128.472 312.377 129.141 312.655 129.839 312.655C130.537 312.655 131.207 312.377 131.7 311.884C132.194 311.39 132.471 310.721 132.471 310.023V302.983C134.096 303.528 135.508 304.57 136.508 305.962C137.508 307.353 138.046 309.024 138.045 310.737Z" stroke="#CCCCCC" stroke-width="2" stroke-miterlimit="10"/>
<path d="M70.096 310.737C70.0987 312.246 69.6855 313.726 68.9013 315.014C68.1171 316.303 66.9929 317.351 65.6516 318.041C64.3107 318.732 62.805 319.04 61.3006 318.93C59.7959 318.82 58.3509 318.298 57.1242 317.42C55.8975 316.541 54.9371 315.342 54.348 313.953C53.7593 312.564 53.5648 311.04 53.7866 309.548C54.0083 308.056 54.6371 306.654 55.6043 305.496C56.5715 304.338 57.8393 303.47 59.2682 302.986V310.023C59.2692 310.721 59.5472 311.39 60.0413 311.884C60.5353 312.377 61.2053 312.655 61.9035 312.655C62.6015 312.655 63.2711 312.377 63.7648 311.884C64.2582 311.39 64.5355 310.721 64.5355 310.023V302.983C66.1585 303.529 67.5685 304.572 68.5664 305.963C69.5642 307.355 70.0994 309.025 70.096 310.737Z" stroke="#CCCCCC" stroke-width="2" stroke-miterlimit="10"/>
<path d="M140.954 270.301L148.489 286.362C149.203 287.886 149.521 289.564 149.413 291.243C149.306 292.922 148.777 294.547 147.875 295.967C146.972 297.387 145.726 298.557 144.252 299.367C142.778 300.178 141.123 300.603 139.441 300.604H134.049C133.84 300.604 133.633 300.644 133.44 300.724C133.247 300.803 133.072 300.92 132.924 301.068C132.776 301.215 132.659 301.39 132.579 301.583C132.499 301.776 132.458 301.983 132.458 302.191V310.023C132.458 310.721 132.181 311.391 131.687 311.884C131.193 312.378 130.524 312.655 129.826 312.655C129.128 312.655 128.458 312.378 127.965 311.884C127.471 311.391 127.194 310.721 127.194 310.023V302.188C127.194 301.979 127.153 301.772 127.074 301.579C126.994 301.386 126.877 301.211 126.729 301.063C126.581 300.916 126.405 300.799 126.212 300.72C126.019 300.64 125.812 300.6 125.603 300.601H66.1093C65.9007 300.6 65.6941 300.641 65.5014 300.721C65.3086 300.8 65.1334 300.917 64.9861 301.065C64.8385 301.212 64.7215 301.387 64.642 301.58C64.5625 301.773 64.5217 301.979 64.522 302.188V310.02C64.4978 310.702 64.2096 311.348 63.7183 311.822C63.2269 312.296 62.5711 312.561 61.8884 312.561C61.2056 312.561 60.5498 312.296 60.0585 311.822C59.5675 311.348 59.279 310.702 59.2547 310.02V302.188C59.2551 301.979 59.2143 301.773 59.1347 301.58C59.0552 301.387 58.9383 301.212 58.7907 301.065C58.6434 300.917 58.4682 300.8 58.2754 300.721C58.0826 300.641 57.8761 300.6 57.6674 300.601H48.4202C47.8634 300.579 47.3367 300.342 46.9505 299.94C46.5643 299.538 46.3486 299.003 46.3486 298.445C46.3486 297.888 46.5643 297.353 46.9505 296.951C47.3367 296.549 47.8634 296.312 48.4202 296.29H137.496C138.619 296.289 139.724 296.005 140.708 295.465C141.693 294.924 142.525 294.145 143.129 293.198C143.734 292.252 144.09 291.169 144.166 290.048C144.241 288.928 144.033 287.806 143.562 286.787L135.902 270.274" stroke="#CCCCCC" stroke-width="2" stroke-miterlimit="10"/>
<path d="M167.934 125.756L167.152 127.838L166.94 128.398L166.876 128.583C166.788 128.831 166.606 129.035 166.37 129.151C166.134 129.267 165.862 129.287 165.612 129.206L159.671 127.387L150.639 124.61C150.472 124.558 150.317 124.472 150.185 124.357C150.053 124.242 149.946 124.1 149.872 123.941C149.798 123.783 149.757 123.611 149.754 123.435C149.75 123.26 149.783 123.086 149.85 122.925L153.153 115.1C153.278 114.81 153.506 114.578 153.792 114.447C154.078 114.316 154.403 114.297 154.703 114.392L169.056 118.925C169.228 118.976 169.386 119.064 169.521 119.182C169.656 119.3 169.764 119.445 169.839 119.607C169.914 119.77 169.953 119.947 169.955 120.126C169.957 120.305 169.92 120.482 169.848 120.647" stroke="#CCCCCC" stroke-width="2" stroke-miterlimit="10"/>
<path d="M164.962 121.526L152.186 117.391" stroke="#CCCCCC" stroke-width="2" stroke-miterlimit="10"/>
<path d="M180.49 131.396C180.49 131.396 175.577 142.082 170.815 144.619C170.78 144.637 170.751 144.663 170.73 144.696C170.708 144.728 170.696 144.765 170.694 144.804C170.692 144.843 170.7 144.881 170.718 144.916C170.736 144.95 170.762 144.98 170.795 145L193.121 159.737" stroke="#CCCCCC" stroke-width="2" stroke-miterlimit="10"/>
<path d="M171.196 139.788C171.196 139.788 168.439 143.805 170.475 144.789" stroke="#CCCCCC" stroke-width="2" stroke-miterlimit="10"/>
<path d="M172.723 166.006C172.723 166.006 171.594 166.057 173.858 168.908C176.123 171.759 176.891 177.185 175.351 181.064C175.351 181.064 175.284 182.075 179.314 180.814C183.345 179.554 197.482 176.605 197.482 176.605C197.482 176.605 199.689 175.442 199.005 178.388C198.321 181.333 196.983 192.168 195.585 195.292C194.186 198.416 192.825 201.513 197.637 202.686C202.449 203.858 228.702 206.325 228.702 206.325C228.702 206.325 246.563 210.285 246.374 202.082C246.185 193.88 244.874 170.266 244.874 170.266C244.874 170.266 244.982 152.038 246.185 141.261C246.185 141.261 249.326 113.879 239.988 111.348C230.65 108.818 227.478 111.51 225.109 112.787C222.74 114.065 201.856 124.98 200.717 147.498C200.717 147.498 200.64 156.2 198.877 157.497C197.115 158.795 176.49 165.929 172.723 166.006Z" fill="#999999"/>
<path d="M206.2 309.632L203.841 318.93H175.119C174.488 318.925 173.884 318.677 173.434 318.235C173.132 317.933 172.917 317.555 172.812 317.142C172.706 316.728 172.713 316.293 172.832 315.883C172.951 315.473 173.178 315.102 173.489 314.81C173.799 314.517 174.183 314.312 174.6 314.218L191.814 309.632C191.814 309.632 201.779 313.133 206.2 309.632Z" fill="#999999"/>
<path d="M239.577 206.84C239.358 206.84 239.128 206.86 238.903 206.86C238.004 212.664 237.004 218.448 235.903 224.213C223.037 221.331 205.26 226.44 205.26 226.44L205.634 228.462C202.702 228.621 201.802 227.539 201.802 227.539L201.155 227.138L202.77 212.893L202.459 211.208V211.154C202.267 210.163 202.085 209.162 201.91 208.171L201.846 207.807C201.59 206.274 201.351 204.734 201.138 203.201L201.351 203.231C201.425 203.231 201.496 203.258 201.58 203.265L201.762 203.295C201.92 203.312 202.075 203.339 202.23 203.359C202.567 203.403 203.002 203.467 203.487 203.541C203.679 203.541 203.882 203.588 204.094 203.625C211.4 204.64 230.434 207.117 239.577 206.84Z" fill="#852222"/>
<path d="M220.334 253.717L220.29 253.893L206.2 309.632L203.841 318.93H175.119C174.488 318.926 173.884 318.677 173.434 318.236C173.132 317.933 172.918 317.555 172.812 317.141C172.706 316.727 172.713 316.293 172.832 315.882C172.951 315.472 173.178 315.101 173.489 314.808C173.8 314.515 174.183 314.311 174.6 314.216L191.814 309.632L201.155 227.138L202.77 212.893" stroke="#CCCCCC" stroke-width="2" stroke-miterlimit="10"/>
<path d="M176.089 176.848C175.078 176.895 174.512 176.905 174.512 176.905C173.501 176.976 172.52 176.592 171.55 176.07C168.955 174.637 166.468 172.127 163.974 174.236C162.36 175.584 161.029 179.379 158.36 178.142C156.031 177.06 156.122 174.772 156.506 172.676C156.985 170.081 159.084 167.769 161.561 167.355C164.972 166.778 168.476 166.751 171.907 166.155C178.817 164.891 185.58 162.924 192.09 160.284C199.319 157.403 207.204 154.434 212.543 148.516C218.881 141.51 222.909 132.34 225.109 123.221" stroke="#CCCCCC" stroke-width="2" stroke-miterlimit="10"/>
<path d="M211.781 85.5434C211.781 85.5434 212.411 75.0526 222.204 72.5959C231.998 70.1391 237.841 81.5163 238.283 88.819C238.724 96.1218 238.283 101.16 243.429 103.458C243.429 103.458 258.3 103.276 263.78 116.938C263.78 116.938 264.521 123.635 264.218 127.945C263.915 132.255 269.293 136.033 272.222 137.361C275.15 138.688 280.246 144.101 278.861 152.94C277.476 161.78 265.913 165.901 265.913 165.901C265.913 165.901 256.032 168.826 250.074 163.943C243.749 158.763 245.538 149.29 245.538 149.29C245.538 149.29 248.952 118.482 242.738 113.42C239.317 110.633 237.764 110.886 235.347 109.416C232.803 107.87 231.893 107.394 231.04 106.306C229.382 104.173 226.444 100.951 228.57 93.3517C230.697 85.7523 228.57 89.584 226.548 88.5124C226.548 88.5124 224.068 84.684 220.324 87.3902C216.58 90.0963 217.493 83.4944 217.493 83.4944L215.848 85.7052C215.848 85.7052 213.277 86.2208 211.781 85.5434Z" fill="#852222"/>
<path d="M209.476 89.1708C209.385 84.2742 211.211 78.7743 215.016 75.5122C215.533 75.0673 216.087 74.6693 216.674 74.3225C220.786 71.8928 226.498 72.1118 230.589 74.4742C232.765 75.7666 234.58 77.5861 235.866 79.7651L235.9 79.8258C237.485 82.5565 238.308 85.6629 238.283 88.8203C238.303 92.9249 238.326 98.4956 240.962 101.903C242.627 104.059 244.841 103.453 247.277 103.82C250.576 104.316 253.706 105.605 256.396 107.578C260.029 110.25 263.055 114.237 263.891 118.739C264.697 123.073 263.123 127.959 265.458 131.966C267.17 134.895 270.426 136.233 273.182 137.941C278.716 141.413 279.855 148.139 278.103 154.057C276.276 160.227 271.983 164.018 265.913 165.909C265.913 165.909 245.403 170.964 245.151 152.988" stroke="#CCCCCC" stroke-width="2" stroke-miterlimit="10"/>
<path d="M217.207 83.1851C216.994 84.6274 216.118 85.9586 214.558 86.3562C212.799 86.8044 211.862 88.5164 211.37 90.2385C210.666 92.765 210.848 95.4559 211.885 97.8648C212.846 100.129 214.561 102.718 217.459 103.132C222.764 103.887 225.402 101.653 225.402 101.653" stroke="#CCCCCC" stroke-width="2" stroke-miterlimit="10"/>
<path d="M221.625 90.892C222.129 90.892 222.538 90.4832 222.538 89.9787C222.538 89.4742 222.129 89.0654 221.625 89.0654C221.12 89.0654 220.711 89.4742 220.711 89.9787C220.711 90.4832 221.12 90.892 221.625 90.892Z" fill="#CCCCCC"/>
<path d="M213.614 90.2929C214.119 90.2929 214.527 89.8837 214.527 89.3796C214.527 88.8751 214.119 88.4663 213.614 88.4663C213.11 88.4663 212.701 88.8751 212.701 89.3796C212.701 89.8837 213.11 90.2929 213.614 90.2929Z" fill="#CCCCCC"/>
<path d="M217.207 83.1851C217.006 84.0518 217.037 84.956 217.298 85.8069C217.338 85.9448 217.39 86.0789 217.453 86.2079C218.086 87.6941 219.559 88.8804 222.171 88.7321C227.842 88.4187 229.864 88.0581 229.403 90.6631C229.212 91.5848 228.936 92.4873 228.58 93.3591C227.957 95.0138 227.522 97.8547 228.163 100.948C228.901 104.564 230.653 108.258 236.561 110.314" stroke="#CCCCCC" stroke-width="2" stroke-miterlimit="10"/>
<path d="M217.702 90.2017C217.702 90.2017 216.745 93.6997 216.843 94.2153C216.94 94.7309 218.164 94.3299 218.164 94.3299" stroke="#CCCCCC" stroke-width="2" stroke-miterlimit="10"/>
<path d="M218.376 97.5354C220.206 98.5228 222.329 97.8993 223.158 96.248" stroke="#CCCCCC" stroke-width="2" stroke-miterlimit="10"/>
<path d="M226.109 93.6096C227.683 91.9421 227.574 89.2832 225.866 87.671C224.159 86.0585 221.498 86.1033 219.924 87.7704C218.35 89.4379 218.458 92.0968 220.166 93.709C221.874 95.3216 224.535 95.2768 226.109 93.6096Z" stroke="#CCCCCC" stroke-width="2" stroke-miterlimit="10"/>
<path d="M215.484 92.6344C217.058 90.9669 216.949 88.3083 215.241 86.6957C213.533 85.0835 210.873 85.128 209.299 86.7955C207.725 88.463 207.833 91.1216 209.541 92.7341C211.249 94.3463 213.91 94.3018 215.484 92.6344Z" stroke="#CCCCCC" stroke-width="2" stroke-miterlimit="10"/>
<path d="M212.31 86.8046C212.401 86.7996 212.492 86.7996 212.583 86.8046C213.361 86.8764 214.08 87.2485 214.588 87.8419C215.097 88.4351 215.354 89.2027 215.306 89.9826C215.263 90.6983 214.946 91.37 214.422 91.8593C213.898 92.3483 213.206 92.6176 212.489 92.6112C212.398 92.6112 212.307 92.6112 212.216 92.6112C211.439 92.5374 210.72 92.1646 210.213 91.5718C209.704 90.9791 209.447 90.2124 209.493 89.4333C209.536 88.7175 209.852 88.0455 210.377 87.5565C210.901 87.0672 211.593 86.7979 212.31 86.8046ZM212.31 86.1812C211.436 86.1765 210.593 86.5064 209.953 87.1026C209.314 87.6987 208.926 88.517 208.869 89.3894C208.812 90.3314 209.123 91.2588 209.737 91.9756C210.35 92.6927 211.219 93.1426 212.158 93.2312C212.27 93.2312 212.381 93.2481 212.495 93.2481C213.37 93.2515 214.213 92.9212 214.853 92.3244C215.492 91.7275 215.88 90.9093 215.936 90.0365C215.993 89.0946 215.681 88.1675 215.068 87.4507C214.454 86.7342 213.586 86.2836 212.647 86.1947C212.536 86.1947 212.425 86.1947 212.31 86.1947V86.1812Z" fill="#262626"/>
<path d="M218.817 90.3026L216.587 90.0977" stroke="#CCCCCC" stroke-width="2" stroke-miterlimit="10"/>
<path d="M222.922 87.6909H223.202C224.003 87.7664 224.744 88.1499 225.268 88.7612C225.791 89.3722 226.057 90.1632 226.009 90.9666C225.961 91.7019 225.633 92.3911 225.093 92.8922C224.553 93.3936 223.841 93.6693 223.104 93.6626C223.01 93.6626 222.919 93.6626 222.824 93.6626C222.023 93.5871 221.282 93.2032 220.759 92.5919C220.235 91.9809 219.969 91.1903 220.017 90.3869C220.065 89.6513 220.392 88.9614 220.932 88.46C221.473 87.9585 222.185 87.6832 222.922 87.6909ZM222.922 87.0675C222.024 87.0611 221.159 87.3984 220.501 88.0097C219.844 88.621 219.445 89.4608 219.387 90.3566C219.328 91.3214 219.647 92.2714 220.276 93.0061C220.905 93.7404 221.795 94.2018 222.757 94.2928C222.872 94.2928 222.983 94.3096 223.094 94.3096C223.99 94.313 224.855 93.9743 225.51 93.3623C226.165 92.7506 226.561 91.9115 226.619 91.0171C226.683 90.0506 226.366 89.0979 225.736 88.3622C225.106 87.6266 224.214 87.1669 223.249 87.081C223.134 87.081 223.023 87.081 222.912 87.081L222.922 87.0675Z" fill="#262626"/>
<path d="M215.045 92.2202C216.396 90.7896 216.302 88.5081 214.837 87.1247C213.371 85.741 211.088 85.7791 209.737 87.2096C208.387 88.6402 208.48 90.9214 209.946 92.3051C211.412 93.6888 213.695 93.6507 215.045 92.2202Z" fill="#852222"/>
<path d="M225.686 93.2052C227.043 91.7679 226.949 89.476 225.477 88.0859C224.004 86.6957 221.71 86.7342 220.354 88.1715C218.997 89.6088 219.09 91.9007 220.563 93.2908C222.036 94.681 224.329 94.6425 225.686 93.2052Z" fill="#852222"/>
<path d="M221.625 114.509L220.385 109.144L219.037 103.357" stroke="#CCCCCC" stroke-width="2" stroke-miterlimit="10"/>
<path d="M281.486 295.091L261.812 318.091C261.422 318.55 260.874 318.844 260.277 318.916C259.68 318.988 259.078 318.832 258.59 318.479L258.051 318.085C257.599 317.755 257.276 317.277 257.139 316.734C257.001 316.191 257.058 315.618 257.299 315.112L265.03 299.024C265.03 299.024 277.331 299.378 277.23 287.977C280.017 293.736 281.486 295.091 281.486 295.091Z" fill="#999999"/>
<path d="M248.238 280.454L248.099 280.316L242.926 275.399L242.677 275.17L221.069 254.613V254.593L221.038 254.566L220.307 253.892L213.739 247.647C210.142 244.222 207.721 239.747 206.824 234.861L205.634 228.485L205.257 226.463L202.77 212.926L202.459 211.241V211.187C202.267 210.196 202.085 209.196 201.91 208.205L201.846 207.841" stroke="#CCCCCC" stroke-width="2" stroke-miterlimit="10"/>
<path d="M201.128 203.211C201.341 204.744 201.58 206.284 201.836 207.818L201.9 208.182C202.075 209.172 202.257 210.173 202.449 211.164V211.218" stroke="#CCCCCC" stroke-width="2" stroke-linejoin="round"/>
<path d="M221.018 254.58L221.045 254.607L221.065 254.627" stroke="#CCCCCC" stroke-width="2" stroke-linejoin="round"/>
<path d="M242.674 275.17L242.923 275.4C244.792 277.152 246.517 278.791 248.096 280.316L248.231 280.455C268.953 300.476 265.027 299.023 265.027 299.023L257.293 315.112C257.052 315.617 256.997 316.191 257.134 316.734C257.272 317.277 257.595 317.754 258.048 318.084L258.587 318.478C259.074 318.831 259.676 318.987 260.274 318.915C260.871 318.844 261.419 318.549 261.809 318.091L281.479 295.09C281.479 295.09 280.013 293.742 277.226 287.976C270.53 274.099 256.231 248.49 236.547 235.145C235.814 234.653 235.244 233.956 234.907 233.14C234.571 232.324 234.484 231.427 234.656 230.562C235.034 228.735 235.391 226.909 235.742 225.075C235.796 224.792 235.849 224.506 235.897 224.223C236.995 218.453 237.995 212.669 238.896 206.871" stroke="#CCCCCC" stroke-width="2" stroke-linejoin="round"/>
<path d="M199.841 157.065C200.144 152.684 200.515 148.718 200.916 145.27C200.97 144.748 201.034 144.233 201.088 143.727C201.91 136.215 205.985 129.435 210.996 123.938C215.95 118.506 222.255 113.225 229.409 111.085C231.714 110.359 234.14 110.097 236.547 110.313C238.199 110.512 239.778 111.109 241.147 112.054C242.517 112.999 243.637 114.262 244.409 115.736C245.368 117.62 245.98 119.66 246.216 121.761C246.216 121.788 246.216 121.815 246.216 121.846C246.637 125.216 246.398 128.751 246.435 132.097C246.499 139.08 245.902 146.049 245.13 152.991" stroke="#CCCCCC" stroke-width="2" stroke-linejoin="round"/>
<path d="M199.241 174.531V174.519" stroke="#CCCCCC" stroke-width="2" stroke-linejoin="round"/>
<path d="M171.917 166.141C175.109 169.875 177.097 175.324 175.729 180.197C175.392 181.353 174.172 182.92 173.063 181.495C172.783 181.091 172.595 180.631 172.514 180.147C172.2 178.775 171.789 177.427 171.55 176.035" stroke="#CCCCCC" stroke-width="2" stroke-miterlimit="10"/>
<path d="M174.367 182.047C200.434 175.159 237.346 172.827 245.296 136.485C246.336 131.646 246.647 126.679 246.219 121.748" stroke="#CCCCCC" stroke-width="2" stroke-miterlimit="10"/>
<path d="M199.167 176.17C198.651 184.865 195.928 194.368 194.425 199.086C194.308 199.452 194.271 199.839 194.318 200.221C194.364 200.602 194.493 200.969 194.695 201.296C194.898 201.623 195.168 201.902 195.489 202.114C195.809 202.326 196.172 202.466 196.552 202.524C197.782 202.716 199.339 202.945 201.128 203.198L201.341 203.228C201.415 203.228 201.486 203.255 201.57 203.262L201.752 203.292C201.91 203.309 202.065 203.336 202.22 203.356C202.625 203.42 203.046 203.474 203.477 203.538C203.669 203.538 203.872 203.585 204.084 203.622C214.531 205.105 230.093 207.043 238.899 206.851C239.128 206.851 239.358 206.851 239.573 206.831L240.247 206.804L240.901 206.767C243.307 206.591 244.945 206.18 245.414 205.456C248.447 200.869 242.819 174.509 245.515 149.278" stroke="#CCCCCC" stroke-width="2" stroke-miterlimit="10"/>
<path d="M269.273 318.934H22.5116" stroke="#CCCCCC" stroke-width="2" stroke-linejoin="round"/>
<path d="M33.946 241.664C33.946 241.664 0.532463 280.853 33.946 318.527" stroke="#D65A5A" stroke-width="2" stroke-miterlimit="10"/>
</svg>
